<svg width="16" height="16" viewBox="0 0 16 16" fill="none" xmlns="http://www.w3.org/2000/svg">
<path d="M15.5011 1.93934C15.6964 2.1346 15.6964 2.45118 15.5011 2.64645L14.4582 3.68933L12.4582 1.68933L13.5011 0.646447C13.6964 0.451184 14.013 0.451185 14.2082 0.646447L15.5011 1.93934Z" fill="black"/>
<path d="M13.7511 4.39644L11.7511 2.39644L4.93812 9.20943C4.88323 9.26432 4.84188 9.33123 4.81733 9.40487L4.01277 11.8186C3.94763 12.014 4.13356 12.1999 4.329 12.1348L6.74268 11.3302C6.81632 11.3057 6.88323 11.2643 6.93812 11.2094L13.7511 4.39644Z" fill="black"/>
<path fill-rule="evenodd" clip-rule="evenodd" d="M0.999512 13.5C0.999512 14.3284 1.67108 15 2.49951 15H13.4995C14.3279 15 14.9995 14.3284 14.9995 13.5V7.5C14.9995 7.22386 14.7757 7 14.4995 7C14.2234 7 13.9995 7.22386 13.9995 7.5V13.5C13.9995 13.7761 13.7757 14 13.4995 14H2.49951C2.22337 14 1.99951 13.7761 1.99951 13.5V2.5C1.99951 2.22386 2.22337 2 2.49951 2H8.99951C9.27565 2 9.49951 1.77614 9.49951 1.5C9.49951 1.22386 9.27565 1 8.99951 1H2.49951C1.67108 1 0.999512 1.67157 0.999512 2.5V13.5Z" fill="black"/>
</svg>
