<svg width="16" height="16" viewBox="0 0 16 16" fill="none" xmlns="http://www.w3.org/2000/svg">
<path d="M6.49951 1H9.49951C9.77565 1 9.99951 1.22386 9.99951 1.5V2.5H5.99951V1.5C5.99951 1.22386 6.22337 1 6.49951 1ZM10.9995 2.5V1.5C10.9995 0.671573 10.3279 0 9.49951 0H6.49951C5.67108 0 4.99951 0.671573 4.99951 1.5V2.5H2.50517C2.50177 2.49997 2.49836 2.49997 2.49495 2.5H1.49951C1.22337 2.5 0.999512 2.72386 0.999512 3C0.999512 3.27614 1.22337 3.5 1.49951 3.5H2.03791L2.89067 14.1595C2.97383 15.1989 3.84158 16 4.8843 16H11.1147C12.1574 16 13.0252 15.1989 13.1083 14.1595L13.9611 3.5H14.4995C14.7757 3.5 14.9995 3.27614 14.9995 3C14.9995 2.72386 14.7757 2.5 14.4995 2.5H13.5041C13.5007 2.49997 13.4973 2.49997 13.4939 2.5H10.9995ZM12.9579 3.5L12.1115 14.0797C12.07 14.5994 11.6361 15 11.1147 15H4.8843C4.36294 15 3.92906 14.5994 3.88749 14.0797L3.04111 3.5H12.9579ZM5.47015 4.50086C5.74582 4.48465 5.98243 4.69497 5.99865 4.97064L6.49865 13.4706C6.51486 13.7463 6.30454 13.9829 6.02887 13.9991C5.75321 14.0154 5.51659 13.805 5.50037 13.5294L5.00037 5.02936C4.98416 4.7537 5.19449 4.51708 5.47015 4.50086ZM10.5289 4.50086C10.8045 4.51708 11.0149 4.7537 10.9986 5.02936L10.4986 13.5294C10.4824 13.805 10.2458 14.0154 9.97015 13.9991C9.69448 13.9829 9.48416 13.7463 9.50037 13.4706L10.0004 4.97064C10.0166 4.69497 10.2532 4.48465 10.5289 4.50086ZM7.99951 4.5C8.27565 4.5 8.49951 4.72386 8.49951 5V13.5C8.49951 13.7761 8.27565 14 7.99951 14C7.72337 14 7.49951 13.7761 7.49951 13.5V5C7.49951 4.72386 7.72337 4.5 7.99951 4.5Z" fill="black"/>
</svg>
