<svg width="111" height="32" viewBox="0 0 111 32" fill="none" xmlns="http://www.w3.org/2000/svg">
<path fill-rule="evenodd" clip-rule="evenodd" d="M6.9201 19.4794C8.61186 22.3925 11.6022 25.3656 16.2843 28.0521C10.3598 29.9953 5.96188 28.6787 2.91538 24.5657C-0.243457 19.0794 -0.187285 13.3665 2.40653 8.28016C2.57505 7.99351 2.80304 7.7102 2.97155 7.42355C3.92978 6.56694 4.66332 5.99365 5.45302 5.59368C9.23306 3.59382 11.8269 6.50695 14.6487 8.68013L13.4658 8.73679C10.5316 7.70686 8.21866 7.99351 6.81106 9.48007C4.27011 12.1632 5.28451 16.6229 6.9201 19.4794Z" fill="#42CEFE"/>
<path fill-rule="evenodd" clip-rule="evenodd" d="M21.4715 24.9657C22.4859 24.1091 23.388 23.0225 24.2339 21.8226C25.3044 20.2793 25.701 18.5095 27.5612 17.8795C28.4633 17.5929 29.3092 17.7095 29.9865 18.1095C30.8324 18.6794 31.3974 19.766 31.1694 21.3659C31.0009 22.5658 30.6044 23.1358 29.9865 24.1657C25.5291 31.0819 17.86 33.8817 10.0191 30.6819C6.91974 29.3654 4.60679 27.2522 2.91502 24.5657C5.45267 28.0521 8.83619 29.252 12.7847 28.8521C16.1121 28.5087 18.9901 27.1955 21.4715 24.9657Z" fill="#37B2E1"/>
<path fill-rule="evenodd" clip-rule="evenodd" d="M7.31384 2.85054C5.1694 4.28044 3.58998 6.16364 2.40707 8.33682C4.7762 5.99365 8.44388 5.53702 11.2624 7.48021C12.2206 8.16683 13.0665 9.02344 13.9685 9.82338C16.45 11.9366 17.2397 11.9966 19.6089 9.76672C20.23 9.13676 20.9074 8.45348 21.6971 7.88019C24.6874 5.767 28.1271 6.45029 30.6648 8.96678C25.8175 0.334055 15.6074 -2.80905 7.31384 2.85054Z" fill="url(#paint0_linear_1414_2460)"/>
<path fill-rule="evenodd" clip-rule="evenodd" d="M108.892 2.93535C107.858 2.93535 107.204 3.63302 107.259 4.54344C107.204 5.40066 107.858 6.04515 108.892 6.04515C109.926 6.04515 110.58 5.40066 110.58 4.54344C110.526 3.63302 109.926 2.93535 108.892 2.93535ZM110.472 17.2579V7.28093H107.313V17.2579H110.472Z" fill="#292929"/>
<path fill-rule="evenodd" clip-rule="evenodd" d="M105.896 11.3574C105.896 9.0517 104.808 7.06506 101.483 7.06506C99.6329 7.06506 98.2162 7.54686 97.5079 7.92228L98.1077 9.96211C98.7618 9.53349 99.8498 9.21125 100.887 9.21125C102.466 9.21125 102.737 9.96211 102.737 10.4971V10.6035C99.1415 10.6035 96.7996 11.8361 96.7996 14.4109C96.7996 16.019 97.9992 17.4675 100.067 17.4675C101.267 17.4675 102.3 17.0389 102.954 16.2349H103.009L103.226 17.2548H106.059C105.95 16.7198 105.896 15.8063 105.896 14.8395V11.3574ZM102.846 13.61C102.846 13.8259 102.846 13.9854 102.792 14.145C102.575 14.7895 101.921 15.3245 101.158 15.3245C100.45 15.3245 99.9041 14.8958 99.9041 14.145C99.9041 12.9123 101.212 12.5369 102.846 12.5369V13.61Z" fill="#292929"/>
<path fill-rule="evenodd" clip-rule="evenodd" d="M93.7492 17.4707C94.8947 17.4707 95.603 16.6666 95.603 15.5935C95.603 14.4673 94.8947 13.7164 93.7492 13.7164C92.6612 13.7164 91.8986 14.5204 91.8986 15.5935C91.8986 16.6666 92.6612 17.4707 93.7492 17.4707Z" fill="#292929"/>
<path fill-rule="evenodd" clip-rule="evenodd" d="M80.0771 7.28098L83.7815 16.4007C83.8899 16.6698 83.9442 16.8293 83.9442 16.9357C83.9442 17.0421 83.8899 17.2048 83.7815 17.3643C83.456 17.8461 82.9647 18.3842 82.4733 18.597C81.9819 18.866 81.4937 19.0788 81.1108 19.132L81.7649 21.76C82.5275 21.6536 83.7272 21.3314 84.8152 20.4178C85.9575 19.3979 86.886 17.7898 88.3569 13.8729L90.6989 7.27472H87.3231L86.1234 12.1553C85.9607 12.7466 85.798 13.4974 85.6321 14.0324H85.5778C85.4693 13.4974 85.2524 12.7466 85.0865 12.1553L83.5613 7.27472H80.0771V7.28098Z" fill="#292929"/>
<path fill-rule="evenodd" clip-rule="evenodd" d="M76.7013 17.258V9.58675H78.7178V7.281H76.7013V6.7992C76.7013 5.7261 77.0841 5.02843 78.1179 5.02843C78.4466 5.02843 78.6635 5.08162 78.8805 5.1348V2.66637C78.5519 2.61318 78.1179 2.56 77.6266 2.56C76.7013 2.56 75.61 2.82905 74.8475 3.57991C73.9222 4.38395 73.5393 5.7261 73.5393 6.90557V7.281H72.2311V9.58675H73.5393V17.258H76.7013Z" fill="#292929"/>
<path fill-rule="evenodd" clip-rule="evenodd" d="M60.4165 7.28098L64.1209 16.4007C64.2293 16.6698 64.2293 16.8293 64.2293 16.9357C64.2293 17.0421 64.1751 17.2048 64.0666 17.3643C63.7954 17.8461 63.2498 18.3842 62.8127 18.597C62.3213 18.866 61.8331 19.0788 61.396 19.132L62.1043 21.76C62.8669 21.6536 64.0092 21.3314 65.1004 20.4178C66.2459 19.3979 67.2254 17.7898 68.6963 13.8729L71.0383 7.27472H67.6625L66.4086 12.1553C66.3001 12.7466 66.1374 13.4974 65.9715 14.0324H65.9172C65.8087 13.4974 65.5918 12.7466 65.4258 12.1553L63.9007 7.27472H60.4165V7.28098Z" fill="#292929"/>
<path fill-rule="evenodd" clip-rule="evenodd" d="M53.0073 17.2579H56.1661V12.2147C56.1661 11.9456 56.1661 11.7329 56.2203 11.517C56.4373 10.5503 57.1998 9.96211 58.3453 9.96211C58.7282 9.96211 58.9994 9.96211 59.2164 10.0685V7.11824C58.9994 7.06506 58.8367 7.06506 58.5623 7.06506C57.5827 7.06506 56.3288 7.70954 55.8374 9.10175H55.7289L55.6204 7.2778H52.953C52.953 8.13503 53.0073 9.10175 53.0073 10.5503V17.2579Z" fill="#292929"/>
<path fill-rule="evenodd" clip-rule="evenodd" d="M51.5906 11.3574C51.5906 9.0517 50.5026 7.06506 47.1237 7.06506C45.707 7.06506 44.5647 7.3873 43.8022 7.65636V9.96211C44.4563 9.53349 45.5443 9.21125 46.5813 9.21125C48.1607 9.21125 48.4319 9.96211 48.4319 10.4971V10.6035C44.8359 10.6035 42.494 11.8361 42.494 14.4109C42.494 16.019 43.6937 17.4675 45.7612 17.4675C46.9609 17.4675 47.9947 17.0389 48.6488 16.2349H48.7031L48.92 17.2548H51.7534C51.6449 16.7198 51.5906 15.8063 51.5906 14.8395V11.3574ZM48.5403 13.61C48.5403 13.8259 48.4861 13.9854 48.4861 14.145C48.2691 14.7895 47.615 15.3245 46.8525 15.3245C46.1441 15.3245 45.5985 14.8958 45.5985 14.145C45.5985 12.9123 46.8525 12.5369 48.5403 12.5369V13.61Z" fill="#292929"/>
<path fill-rule="evenodd" clip-rule="evenodd" d="M41.2975 14.7895C40.8604 14.949 40.3722 15.0585 39.7724 15.0585C38.2472 15.0585 36.9933 14.0918 36.9933 12.2678C36.9933 10.6066 38.0271 9.47717 39.7181 9.47717C40.4264 9.47717 40.9178 9.58354 41.2975 9.69304V7.27779C40.7519 7.11823 40.1521 7.06192 39.5554 7.06192C35.7968 7.06192 33.7802 9.47717 33.7802 12.3711C33.7802 15.4809 35.851 17.4675 39.1183 17.4675C39.9351 17.4675 40.6977 17.3611 41.2975 17.1985V14.7895Z" fill="#292929"/>
<path d="M33.78 24.9063V23.9827H38.1318V24.9063H36.5096V29.2814H35.4022V24.9063H33.78Z" fill="#292929"/>
<path d="M38.6337 29.2814V25.3074H39.7022V26.0007H39.7436C39.816 25.7541 39.9376 25.5678 40.1084 25.4419C40.2792 25.3143 40.4758 25.2504 40.6983 25.2504C40.7535 25.2504 40.813 25.2539 40.8768 25.2608C40.9406 25.2677 40.9967 25.2772 41.045 25.2893V26.2672C40.9933 26.2517 40.9217 26.2379 40.8303 26.2258C40.7388 26.2138 40.6552 26.2077 40.5793 26.2077C40.4172 26.2077 40.2723 26.2431 40.1446 26.3138C40.0187 26.3828 39.9187 26.4794 39.8445 26.6036C39.7721 26.7278 39.7358 26.8709 39.7358 27.0331V29.2814H38.6337Z" fill="#292929"/>
<path d="M42.8528 29.3564C42.5992 29.3564 42.3733 29.3124 42.1749 29.2245C41.9766 29.1348 41.8196 29.0028 41.704 28.8286C41.5902 28.6527 41.5333 28.4336 41.5333 28.1715C41.5333 27.9507 41.5738 27.7653 41.6549 27.6152C41.736 27.4651 41.8463 27.3444 41.9861 27.253C42.1258 27.1616 42.2845 27.0926 42.4621 27.046C42.6415 26.9994 42.8295 26.9667 43.0261 26.9477C43.2573 26.9235 43.4435 26.9011 43.585 26.8804C43.7264 26.858 43.829 26.8252 43.8929 26.7821C43.9567 26.739 43.9886 26.6752 43.9886 26.5906V26.5751C43.9886 26.4113 43.9369 26.2845 43.8334 26.1948C43.7316 26.1051 43.5867 26.0603 43.3987 26.0603C43.2003 26.0603 43.0425 26.1042 42.9252 26.1922C42.8079 26.2784 42.7303 26.3871 42.6924 26.5182L41.673 26.4354C41.7247 26.1939 41.8265 25.9852 41.9783 25.8093C42.1301 25.6316 42.3259 25.4954 42.5656 25.4005C42.8071 25.3039 43.0865 25.2556 43.4039 25.2556C43.6247 25.2556 43.8359 25.2815 44.0378 25.3332C44.2413 25.385 44.4215 25.4652 44.5785 25.5739C44.7372 25.6825 44.8622 25.8222 44.9536 25.993C45.0451 26.162 45.0908 26.3647 45.0908 26.601V29.2814H44.0455V28.7303H44.0145C43.9506 28.8545 43.8653 28.964 43.7583 29.0589C43.6514 29.152 43.5229 29.2253 43.3728 29.2788C43.2228 29.3306 43.0494 29.3564 42.8528 29.3564ZM43.1684 28.5958C43.3306 28.5958 43.4737 28.5639 43.5979 28.5C43.7221 28.4345 43.8196 28.3465 43.8903 28.2361C43.961 28.1258 43.9964 28.0007 43.9964 27.861V27.4393C43.9619 27.4617 43.9144 27.4824 43.8541 27.5014C43.7954 27.5186 43.729 27.535 43.6548 27.5505C43.5807 27.5643 43.5065 27.5773 43.4323 27.5893C43.3582 27.5997 43.2909 27.6092 43.2305 27.6178C43.1012 27.6368 42.9882 27.6669 42.8916 27.7083C42.795 27.7497 42.72 27.8058 42.6665 27.8765C42.613 27.9455 42.5863 28.0317 42.5863 28.1352C42.5863 28.2853 42.6406 28.4 42.7493 28.4793C42.8597 28.557 42.9994 28.5958 43.1684 28.5958Z" fill="#292929"/>
<path d="M47.2666 26.9839V29.2814H46.1644V25.3074H47.2149V26.0085H47.2614C47.3494 25.7774 47.4969 25.5945 47.7038 25.46C47.9108 25.3237 48.1618 25.2556 48.4567 25.2556C48.7327 25.2556 48.9733 25.316 49.1786 25.4367C49.3838 25.5575 49.5434 25.7299 49.6572 25.9542C49.7711 26.1767 49.828 26.4423 49.828 26.7511V29.2814H48.7258V26.9477C48.7275 26.7045 48.6654 26.5148 48.5395 26.3785C48.4136 26.2405 48.2403 26.1715 48.0195 26.1715C47.8712 26.1715 47.7401 26.2034 47.6262 26.2672C47.5141 26.3311 47.4262 26.4242 47.3623 26.5467C47.3002 26.6674 47.2683 26.8131 47.2666 26.9839Z" fill="#292929"/>
<path d="M54.2218 26.4406L53.2127 26.5027C53.1955 26.4164 53.1584 26.3388 53.1015 26.2698C53.0445 26.1991 52.9695 26.143 52.8764 26.1017C52.785 26.0585 52.6754 26.037 52.5478 26.037C52.377 26.037 52.233 26.0732 52.1157 26.1456C51.9984 26.2164 51.9398 26.3112 51.9398 26.4302C51.9398 26.5251 51.9777 26.6053 52.0536 26.6709C52.1295 26.7364 52.2597 26.789 52.4443 26.8287L53.1636 26.9736C53.5499 27.0529 53.838 27.1805 54.0277 27.3565C54.2174 27.5324 54.3123 27.7635 54.3123 28.0499C54.3123 28.3103 54.2355 28.5389 54.082 28.7355C53.9303 28.9321 53.7215 29.0856 53.4559 29.196C53.192 29.3047 52.8876 29.359 52.5426 29.359C52.0165 29.359 51.5974 29.2495 51.2852 29.0304C50.9747 28.8097 50.7928 28.5095 50.7393 28.1301L51.8234 28.0731C51.8561 28.2336 51.9355 28.356 52.0614 28.4405C52.1873 28.5233 52.3486 28.5647 52.5452 28.5647C52.7384 28.5647 52.8936 28.5276 53.0109 28.4535C53.1299 28.3776 53.1903 28.2801 53.192 28.1611C53.1903 28.0611 53.148 27.9791 53.0652 27.9153C52.9825 27.8498 52.8548 27.7998 52.6823 27.7653L51.9941 27.6281C51.606 27.5505 51.3171 27.416 51.1274 27.2245C50.9394 27.0331 50.8454 26.789 50.8454 26.4923C50.8454 26.2371 50.9144 26.0171 51.0524 25.8326C51.1921 25.648 51.3878 25.5057 51.6397 25.4057C51.8932 25.3056 52.1899 25.2556 52.5297 25.2556C53.0316 25.2556 53.4266 25.3617 53.7146 25.5739C54.0044 25.786 54.1735 26.0749 54.2218 26.4406Z" fill="#292929"/>
<path d="M57.362 25.3074V26.1353H54.9093V25.3074H57.362ZM55.4707 29.2814V25.0202C55.4707 24.7321 55.5268 24.4932 55.6389 24.3035C55.7527 24.1138 55.9079 23.9715 56.1046 23.8766C56.3012 23.7817 56.5246 23.7343 56.7747 23.7343C56.9437 23.7343 57.0981 23.7472 57.2378 23.7731C57.3792 23.799 57.4844 23.8223 57.5534 23.843L57.3568 24.6709C57.3137 24.6571 57.2602 24.6442 57.1964 24.6321C57.1343 24.62 57.0705 24.614 57.0049 24.614C56.8428 24.614 56.7298 24.6519 56.666 24.7278C56.6022 24.802 56.5703 24.9063 56.5703 25.0409V29.2814H55.4707Z" fill="#292929"/>
<path d="M59.9072 29.359C59.5053 29.359 59.1577 29.2736 58.8645 29.1029C58.573 28.9304 58.3479 28.6906 58.1892 28.3836C58.0305 28.0749 57.9512 27.717 57.9512 27.3099C57.9512 26.8994 58.0305 26.5406 58.1892 26.2336C58.3479 25.9249 58.573 25.6851 58.8645 25.5143C59.1577 25.3419 59.5053 25.2556 59.9072 25.2556C60.309 25.2556 60.6557 25.3419 60.9472 25.5143C61.2405 25.6851 61.4664 25.9249 61.6251 26.2336C61.7838 26.5406 61.8631 26.8994 61.8631 27.3099C61.8631 27.717 61.7838 28.0749 61.6251 28.3836C61.4664 28.6906 61.2405 28.9304 60.9472 29.1029C60.6557 29.2736 60.309 29.359 59.9072 29.359ZM59.9123 28.5052C60.0952 28.5052 60.2478 28.4535 60.3703 28.35C60.4927 28.2448 60.585 28.1016 60.6471 27.9205C60.7109 27.7394 60.7428 27.5333 60.7428 27.3021C60.7428 27.071 60.7109 26.8649 60.6471 26.6838C60.585 26.5027 60.4927 26.3595 60.3703 26.2543C60.2478 26.1491 60.0952 26.0965 59.9123 26.0965C59.7278 26.0965 59.5725 26.1491 59.4466 26.2543C59.3224 26.3595 59.2284 26.5027 59.1646 26.6838C59.1025 26.8649 59.0715 27.071 59.0715 27.3021C59.0715 27.5333 59.1025 27.7394 59.1646 27.9205C59.2284 28.1016 59.3224 28.2448 59.4466 28.35C59.5725 28.4535 59.7278 28.5052 59.9123 28.5052Z" fill="#292929"/>
<path d="M62.7984 29.2814V25.3074H63.8669V26.0007H63.9083C63.9807 25.7541 64.1023 25.5678 64.2731 25.4419C64.4439 25.3143 64.6405 25.2504 64.863 25.2504C64.9182 25.2504 64.9777 25.2539 65.0415 25.2608C65.1053 25.2677 65.1614 25.2772 65.2097 25.2893V26.2672C65.1579 26.2517 65.0864 26.2379 64.9949 26.2258C64.9035 26.2138 64.8199 26.2077 64.744 26.2077C64.5818 26.2077 64.437 26.2431 64.3093 26.3138C64.1834 26.3828 64.0834 26.4794 64.0092 26.6036C63.9368 26.7278 63.9005 26.8709 63.9005 27.0331V29.2814H62.7984Z" fill="#292929"/>
<path d="M65.9981 29.2814V25.3074H67.0485V26.0085H67.0951C67.1779 25.7757 67.3159 25.592 67.5091 25.4574C67.7022 25.3229 67.9334 25.2556 68.2025 25.2556C68.475 25.2556 68.707 25.3237 68.8984 25.46C69.0899 25.5945 69.2175 25.7774 69.2813 26.0085H69.3227C69.4038 25.7808 69.5504 25.5989 69.7626 25.4626C69.9764 25.3246 70.2291 25.2556 70.5206 25.2556C70.8915 25.2556 71.1925 25.3738 71.4236 25.6101C71.6564 25.8447 71.7729 26.1775 71.7729 26.6088V29.2814H70.6733V26.8261C70.6733 26.6053 70.6146 26.4397 70.4973 26.3293C70.3801 26.2189 70.2334 26.1637 70.0575 26.1637C69.8574 26.1637 69.7013 26.2276 69.5892 26.3552C69.4771 26.4811 69.4211 26.6476 69.4211 26.8545V29.2814H68.3525V26.8028C68.3525 26.6079 68.2965 26.4527 68.1843 26.3371C68.074 26.2215 67.9282 26.1637 67.7471 26.1637C67.6246 26.1637 67.5142 26.1948 67.4159 26.2569C67.3193 26.3173 67.2426 26.4026 67.1857 26.513C67.1287 26.6217 67.1003 26.7493 67.1003 26.8959V29.2814H65.9981Z" fill="#292929"/>
<path d="M72.8621 29.2814V25.3074H73.9642V29.2814H72.8621ZM73.4157 24.7951C73.2519 24.7951 73.1113 24.7408 72.994 24.6321C72.8784 24.5217 72.8206 24.3897 72.8206 24.2362C72.8206 24.0845 72.8784 23.9542 72.994 23.8456C73.1113 23.7352 73.2519 23.68 73.4157 23.68C73.5796 23.68 73.7193 23.7352 73.8349 23.8456C73.9521 23.9542 74.0108 24.0845 74.0108 24.2362C74.0108 24.3897 73.9521 24.5217 73.8349 24.6321C73.7193 24.7408 73.5796 24.7951 73.4157 24.7951Z" fill="#292929"/>
<path d="M76.1679 26.9839V29.2814H75.0657V25.3074H76.1161V26.0085H76.1627C76.2507 25.7774 76.3981 25.5945 76.6051 25.46C76.8121 25.3237 77.0631 25.2556 77.358 25.2556C77.634 25.2556 77.8746 25.316 78.0798 25.4367C78.2851 25.5575 78.4447 25.7299 78.5585 25.9542C78.6723 26.1767 78.7293 26.4423 78.7293 26.7511V29.2814H77.6271V26.9477C77.6288 26.7045 77.5667 26.5148 77.4408 26.3785C77.3149 26.2405 77.1415 26.1715 76.9208 26.1715C76.7724 26.1715 76.6413 26.2034 76.5275 26.2672C76.4154 26.3311 76.3274 26.4242 76.2636 26.5467C76.2015 26.6674 76.1696 26.8131 76.1679 26.9839Z" fill="#292929"/>
<path d="M81.6069 30.8544C81.2498 30.8544 80.9437 30.8053 80.6884 30.707C80.4349 30.6104 80.233 30.4784 80.083 30.3111C79.9329 30.1438 79.8355 29.9558 79.7906 29.7471L80.81 29.61C80.8411 29.6893 80.8902 29.7635 80.9575 29.8325C81.0247 29.9015 81.1136 29.9567 81.224 29.9981C81.3361 30.0412 81.4723 30.0627 81.6328 30.0627C81.8725 30.0627 82.07 30.0041 82.2252 29.8868C82.3822 29.7712 82.4607 29.5772 82.4607 29.3047V28.5777H82.4141C82.3658 28.6881 82.2934 28.7924 82.1968 28.8907C82.1002 28.989 81.976 29.0692 81.8242 29.1313C81.6724 29.1934 81.4913 29.2245 81.2809 29.2245C80.9825 29.2245 80.7108 29.1555 80.4659 29.0175C80.2227 28.8778 80.0287 28.6648 79.8838 28.3784C79.7406 28.0904 79.669 27.7265 79.669 27.2866C79.669 26.8364 79.7423 26.4604 79.8889 26.1586C80.0356 25.8567 80.2305 25.6308 80.4737 25.4807C80.7186 25.3307 80.9868 25.2556 81.2783 25.2556C81.5008 25.2556 81.6871 25.2936 81.8372 25.3695C81.9872 25.4436 82.1079 25.5368 82.1994 25.6489C82.2925 25.7593 82.3641 25.8679 82.4141 25.9749H82.4555V25.3074H83.5499V29.3202C83.5499 29.6583 83.4671 29.9411 83.3015 30.1688C83.136 30.3965 82.9065 30.5673 82.6133 30.6811C82.3218 30.7967 81.9864 30.8544 81.6069 30.8544ZM81.6302 28.3966C81.8078 28.3966 81.9579 28.3526 82.0804 28.2646C82.2045 28.1749 82.2994 28.0473 82.3649 27.8817C82.4322 27.7144 82.4659 27.5143 82.4659 27.2814C82.4659 27.0486 82.4331 26.8468 82.3675 26.676C82.302 26.5035 82.2071 26.3699 82.0829 26.275C81.9587 26.1801 81.8078 26.1327 81.6302 26.1327C81.4491 26.1327 81.2964 26.1819 81.1722 26.2802C81.048 26.3768 80.954 26.5113 80.8902 26.6838C80.8264 26.8563 80.7945 27.0555 80.7945 27.2814C80.7945 27.5108 80.8264 27.7092 80.8902 27.8765C80.9558 28.0421 81.0498 28.1706 81.1722 28.262C81.2964 28.3517 81.4491 28.3966 81.6302 28.3966Z" fill="#292929"/>
<path d="M91.2463 25.8378H90.113C90.0923 25.6911 90.0501 25.5609 89.9863 25.4471C89.9224 25.3315 89.8405 25.2332 89.7405 25.1521C89.6404 25.0711 89.5249 25.009 89.3938 24.9658C89.2644 24.9227 89.1238 24.9012 88.9721 24.9012C88.6978 24.9012 88.4589 24.9693 88.2554 25.1056C88.0519 25.2401 87.894 25.4367 87.7819 25.6955C87.6698 25.9525 87.6137 26.2646 87.6137 26.632C87.6137 27.0098 87.6698 27.3272 87.7819 27.5842C87.8958 27.8412 88.0544 28.0352 88.258 28.1663C88.4615 28.2974 88.6969 28.3629 88.9643 28.3629C89.1144 28.3629 89.2532 28.3431 89.3808 28.3034C89.5102 28.2637 89.6249 28.206 89.725 28.1301C89.825 28.0524 89.9078 27.9584 89.9733 27.8481C90.0406 27.7377 90.0872 27.6117 90.113 27.4703L91.2463 27.4755C91.2169 27.7187 91.1436 27.9533 91.0263 28.1792C90.9108 28.4035 90.7547 28.6044 90.5581 28.7821C90.3631 28.958 90.1303 29.0977 89.8595 29.2012C89.5904 29.303 89.286 29.3538 88.9462 29.3538C88.4736 29.3538 88.051 29.2469 87.6784 29.033C87.3076 28.8191 87.0144 28.5095 86.7988 28.1042C86.5849 27.6989 86.4779 27.2081 86.4779 26.632C86.4779 26.0542 86.5866 25.5626 86.8039 25.1573C87.0213 24.752 87.3162 24.4432 87.6888 24.2311C88.0613 24.0172 88.4805 23.9102 88.9462 23.9102C89.2532 23.9102 89.5378 23.9534 89.8 24.0396C90.0639 24.1258 90.2976 24.2518 90.5011 24.4173C90.7047 24.5812 90.8702 24.7822 90.9979 25.0202C91.1273 25.2582 91.21 25.5307 91.2463 25.8378Z" fill="#292929"/>
<path d="M93.3807 29.3564C93.1271 29.3564 92.9012 29.3124 92.7028 29.2245C92.5045 29.1348 92.3475 29.0028 92.232 28.8286C92.1181 28.6527 92.0612 28.4336 92.0612 28.1715C92.0612 27.9507 92.1017 27.7653 92.1828 27.6152C92.2639 27.4651 92.3743 27.3444 92.514 27.253C92.6537 27.1616 92.8124 27.0926 92.99 27.046C93.1694 26.9994 93.3574 26.9667 93.554 26.9477C93.7852 26.9235 93.9715 26.9011 94.1129 26.8804C94.2543 26.858 94.357 26.8252 94.4208 26.7821C94.4846 26.739 94.5165 26.6752 94.5165 26.5906V26.5751C94.5165 26.4113 94.4648 26.2845 94.3613 26.1948C94.2595 26.1051 94.1146 26.0603 93.9266 26.0603C93.7283 26.0603 93.5704 26.1042 93.4531 26.1922C93.3359 26.2784 93.2582 26.3871 93.2203 26.5182L92.2009 26.4354C92.2526 26.1939 92.3544 25.9852 92.5062 25.8093C92.658 25.6316 92.8538 25.4954 93.0935 25.4005C93.335 25.3039 93.6144 25.2556 93.9318 25.2556C94.1526 25.2556 94.3639 25.2815 94.5657 25.3332C94.7692 25.385 94.9494 25.4652 95.1064 25.5739C95.2651 25.6825 95.3901 25.8222 95.4816 25.993C95.573 26.162 95.6187 26.3647 95.6187 26.601V29.2814H94.5734V28.7303H94.5424C94.4786 28.8545 94.3932 28.964 94.2862 29.0589C94.1793 29.152 94.0508 29.2253 93.9007 29.2788C93.7507 29.3306 93.5773 29.3564 93.3807 29.3564ZM93.6964 28.5958C93.8585 28.5958 94.0016 28.5639 94.1258 28.5C94.25 28.4345 94.3475 28.3465 94.4182 28.2361C94.4889 28.1258 94.5243 28.0007 94.5243 27.861V27.4393C94.4898 27.4617 94.4423 27.4824 94.382 27.5014C94.3233 27.5186 94.2569 27.535 94.1827 27.5505C94.1086 27.5643 94.0344 27.5773 93.9603 27.5893C93.8861 27.5997 93.8188 27.6092 93.7584 27.6178C93.6291 27.6368 93.5161 27.6669 93.4195 27.7083C93.3229 27.7497 93.2479 27.8058 93.1944 27.8765C93.1409 27.9455 93.1142 28.0317 93.1142 28.1352C93.1142 28.2853 93.1685 28.4 93.2772 28.4793C93.3876 28.557 93.5273 28.5958 93.6964 28.5958Z" fill="#292929"/>
<path d="M96.6923 29.2814V25.3074H97.7609V26.0007H97.8023C97.8747 25.7541 97.9963 25.5678 98.1671 25.4419C98.3378 25.3143 98.5345 25.2504 98.757 25.2504C98.8122 25.2504 98.8717 25.2539 98.9355 25.2608C98.9993 25.2677 99.0554 25.2772 99.1037 25.2893V26.2672C99.0519 26.2517 98.9803 26.2379 98.8889 26.2258C98.7975 26.2138 98.7139 26.2077 98.638 26.2077C98.4758 26.2077 98.3309 26.2431 98.2033 26.3138C98.0774 26.3828 97.9773 26.4794 97.9032 26.6036C97.8307 26.7278 97.7945 26.8709 97.7945 27.0331V29.2814H96.6923Z" fill="#292929"/>
<path d="M99.8921 29.2814V25.3074H100.994V29.2814H99.8921ZM100.446 24.7951C100.282 24.7951 100.141 24.7408 100.024 24.6321C99.9085 24.5217 99.8507 24.3897 99.8507 24.2362C99.8507 24.0845 99.9085 23.9542 100.024 23.8456C100.141 23.7352 100.282 23.68 100.446 23.68C100.61 23.68 100.749 23.7352 100.865 23.8456C100.982 23.9542 101.041 24.0845 101.041 24.2362C101.041 24.3897 100.982 24.5217 100.865 24.6321C100.749 24.7408 100.61 24.7951 100.446 24.7951Z" fill="#292929"/>
<path d="M103.198 26.9839V29.2814H102.096V25.3074H103.146V26.0085H103.193C103.281 25.7774 103.428 25.5945 103.635 25.46C103.842 25.3237 104.093 25.2556 104.388 25.2556C104.664 25.2556 104.905 25.316 105.11 25.4367C105.315 25.5575 105.475 25.7299 105.589 25.9542C105.702 26.1767 105.759 26.4423 105.759 26.7511V29.2814H104.657V26.9477C104.659 26.7045 104.597 26.5148 104.471 26.3785C104.345 26.2405 104.172 26.1715 103.951 26.1715C103.802 26.1715 103.671 26.2034 103.558 26.2672C103.445 26.3311 103.357 26.4242 103.294 26.5467C103.232 26.6674 103.2 26.8131 103.198 26.9839Z" fill="#292929"/>
<path d="M108.637 30.8544C108.28 30.8544 107.974 30.8053 107.718 30.707C107.465 30.6104 107.263 30.4784 107.113 30.3111C106.963 30.1438 106.866 29.9558 106.821 29.7471L107.84 29.61C107.871 29.6893 107.92 29.7635 107.988 29.8325C108.055 29.9015 108.144 29.9567 108.254 29.9981C108.366 30.0412 108.502 30.0627 108.663 30.0627C108.903 30.0627 109.1 30.0041 109.255 29.8868C109.412 29.7712 109.491 29.5772 109.491 29.3047V28.5777H109.444C109.396 28.6881 109.323 28.7924 109.227 28.8907C109.13 28.989 109.006 29.0692 108.854 29.1313C108.702 29.1934 108.521 29.2245 108.311 29.2245C108.013 29.2245 107.741 29.1555 107.496 29.0175C107.253 28.8778 107.059 28.6648 106.914 28.3784C106.771 28.0904 106.699 27.7265 106.699 27.2866C106.699 26.8364 106.772 26.4604 106.919 26.1586C107.066 25.8567 107.26 25.6308 107.504 25.4807C107.749 25.3307 108.017 25.2556 108.308 25.2556C108.531 25.2556 108.717 25.2936 108.867 25.3695C109.017 25.4436 109.138 25.5368 109.229 25.6489C109.323 25.7593 109.394 25.8679 109.444 25.9749H109.486V25.3074H110.58V29.3202C110.58 29.6583 110.497 29.9411 110.332 30.1688C110.166 30.3965 109.937 30.5673 109.643 30.6811C109.352 30.7967 109.016 30.8544 108.637 30.8544ZM108.66 28.3966C108.838 28.3966 108.988 28.3526 109.11 28.2646C109.235 28.1749 109.329 28.0473 109.395 27.8817C109.462 27.7144 109.496 27.5143 109.496 27.2814C109.496 27.0486 109.463 26.8468 109.398 26.676C109.332 26.5035 109.237 26.3699 109.113 26.275C108.989 26.1801 108.838 26.1327 108.66 26.1327C108.479 26.1327 108.326 26.1819 108.202 26.2802C108.078 26.3768 107.984 26.5113 107.92 26.6838C107.856 26.8563 107.825 27.0555 107.825 27.2814C107.825 27.5108 107.856 27.7092 107.92 27.8765C107.986 28.0421 108.08 28.1706 108.202 28.262C108.326 28.3517 108.479 28.3966 108.66 28.3966Z" fill="#292929"/>
<path d="M55.4707 25.3074H56.5703V26.1353H55.4707V25.3074Z" fill="#292929"/>
<defs>
<linearGradient id="paint0_linear_1414_2460" x1="-54.9548" y1="15.9986" x2="1813.93" y2="15.9986" gradientUnits="userSpaceOnUse">
<stop stop-color="#FF7642"/>
<stop offset="1" stop-color="#FFB728"/>
</linearGradient>
</defs>
</svg>
