<svg width="16" height="17" viewBox="0 0 16 17" fill="none" xmlns="http://www.w3.org/2000/svg">
<path d="M4.64645 5.48629C4.84171 5.29103 5.15829 5.29103 5.35355 5.48629L8 8.13274L10.6464 5.48629C10.8417 5.29103 11.1583 5.29103 11.3536 5.48629C11.5488 5.68155 11.5488 5.99814 11.3536 6.1934L8.70711 8.83984L11.3536 11.4863C11.5488 11.6816 11.5488 11.9981 11.3536 12.1934C11.1583 12.3887 10.8417 12.3887 10.6464 12.1934L8 9.54695L5.35355 12.1934C5.15829 12.3887 4.84171 12.3887 4.64645 12.1934C4.45118 11.9981 4.45118 11.6816 4.64645 11.4863L7.29289 8.83984L4.64645 6.1934C4.45118 5.99814 4.45118 5.68155 4.64645 5.48629Z" fill="#FD605D"/>
</svg>
