<svg width="16" height="17" viewBox="0 0 16 17" fill="none" xmlns="http://www.w3.org/2000/svg">
<path d="M6.5 1.83984H9.5C9.77614 1.83984 10 2.0637 10 2.33984V3.33984H6V2.33984C6 2.0637 6.22386 1.83984 6.5 1.83984ZM11 3.33984V2.33984C11 1.51142 10.3284 0.839844 9.5 0.839844H6.5C5.67157 0.839844 5 1.51142 5 2.33984V3.33984H2.50566C2.50226 3.33981 2.49885 3.33981 2.49544 3.33984H1.5C1.22386 3.33984 1 3.5637 1 3.83984C1 4.11599 1.22386 4.33984 1.5 4.33984H2.0384L2.89116 14.9993C2.97431 16.0387 3.84207 16.8398 4.88479 16.8398H11.1152C12.1579 16.8398 13.0257 16.0387 13.1088 14.9993L13.9616 4.33984H14.5C14.7761 4.33984 15 4.11599 15 3.83984C15 3.5637 14.7761 3.33984 14.5 3.33984H13.5046C13.5011 3.33981 13.4977 3.33981 13.4943 3.33984H11ZM12.9584 4.33984L12.112 14.9196C12.0704 15.4393 11.6366 15.8398 11.1152 15.8398H4.88479C4.36343 15.8398 3.92955 15.4393 3.88798 14.9196L3.0416 4.33984H12.9584ZM5.47064 5.34071C5.74631 5.32449 5.98292 5.53482 5.99914 5.81048L6.49914 14.3105C6.51535 14.5861 6.30503 14.8228 6.02936 14.839C5.7537 14.8552 5.51708 14.6449 5.50086 14.3692L5.00086 5.8692C4.98465 5.59354 5.19497 5.35692 5.47064 5.34071ZM10.5294 5.34071C10.805 5.35692 11.0154 5.59354 10.9991 5.8692L10.4991 14.3692C10.4829 14.6449 10.2463 14.8552 9.97064 14.839C9.69497 14.8228 9.48465 14.5861 9.50086 14.3105L10.0009 5.81048C10.0171 5.53482 10.2537 5.32449 10.5294 5.34071ZM8 5.33984C8.27614 5.33984 8.5 5.5637 8.5 5.83984V14.3398C8.5 14.616 8.27614 14.8398 8 14.8398C7.72386 14.8398 7.5 14.616 7.5 14.3398V5.83984C7.5 5.5637 7.72386 5.33984 8 5.33984Z" fill="black"/>
</svg>
