<svg width="25" height="25" viewBox="0 0 25 25" fill="none" xmlns="http://www.w3.org/2000/svg">
<path d="M12.5002 12.5002V21.5002M12.5002 12.5002L10.0002 14.5002M12.5002 12.5002L15.0002 14.5002M5.53421 9.61719C4.58842 9.85518 3.76208 10.4303 3.21046 11.2346C2.65883 12.0389 2.41989 13.0169 2.53851 13.985C2.65714 14.953 3.12517 15.8444 3.85467 16.4917C4.58417 17.139 5.52494 17.4976 6.50021 17.5002H7.50021" stroke="#191D23" stroke-width="2" stroke-linecap="round" stroke-linejoin="round"/>
<path d="M16.3306 7.63821C15.9889 6.28478 15.1452 5.11195 13.9708 4.35746C12.7963 3.60298 11.3789 3.3233 10.0059 3.57511C8.63289 3.82692 7.40699 4.59139 6.57671 5.71354C5.74643 6.8357 5.37391 8.23157 5.53465 9.61821C5.53465 9.61821 5.68765 10.5002 6.00065 11.0002" stroke="#191D23" stroke-width="2" stroke-linecap="round" stroke-linejoin="round"/>
<path d="M17.5 17.5C18.206 17.4995 18.904 17.3495 19.5479 17.0599C20.1917 16.7702 20.767 16.3475 21.2357 15.8195C21.7045 15.2915 22.0561 14.6702 22.2674 13.9965C22.4787 13.3229 22.545 12.6121 22.4618 11.9109C22.3786 11.2098 22.1479 10.5343 21.7848 9.92874C21.4217 9.32321 20.9345 8.80145 20.3552 8.39778C19.776 7.99412 19.1178 7.71772 18.424 7.58676C17.7302 7.4558 17.0166 7.47327 16.33 7.638L15 8" stroke="#191D23" stroke-width="2" stroke-linecap="round" stroke-linejoin="round"/>
</svg>
