<svg width="21" height="21" viewBox="0 0 21 21" fill="none" xmlns="http://www.w3.org/2000/svg">
<path d="M11.333 4.66683C11.333 4.20659 10.9599 3.8335 10.4997 3.8335C10.0394 3.8335 9.66634 4.20659 9.66634 4.66683V9.66683H4.66634C4.2061 9.66683 3.83301 10.0399 3.83301 10.5002C3.83301 10.9604 4.2061 11.3335 4.66634 11.3335H9.66634V16.3335C9.66634 16.7937 10.0394 17.1668 10.4997 17.1668C10.9599 17.1668 11.333 16.7937 11.333 16.3335V11.3335H16.333C16.7932 11.3335 17.1663 10.9604 17.1663 10.5002C17.1663 10.0399 16.7932 9.66683 16.333 9.66683H11.333V4.66683Z" fill="white"/>
</svg>
