<svg width="16" height="17" viewBox="0 0 16 17" fill="none" xmlns="http://www.w3.org/2000/svg">
<path d="M15.5016 2.77918C15.6969 2.97445 15.6969 3.29103 15.5016 3.48629L14.4587 4.52917L12.4587 2.52917L13.5016 1.48629C13.6969 1.29103 14.0134 1.29103 14.2087 1.48629L15.5016 2.77918Z" fill="black"/>
<path d="M13.7516 5.23628L11.7516 3.23628L4.93861 10.0493C4.88372 10.1042 4.84237 10.1711 4.81782 10.2447L4.01326 12.6584C3.94812 12.8538 4.13405 13.0398 4.32949 12.9746L6.74317 12.1701C6.81681 12.1455 6.88372 12.1042 6.93861 12.0493L13.7516 5.23628Z" fill="black"/>
<path fill-rule="evenodd" clip-rule="evenodd" d="M1 14.3398C1 15.1683 1.67157 15.8398 2.5 15.8398H13.5C14.3284 15.8398 15 15.1683 15 14.3398V8.33984C15 8.0637 14.7761 7.83984 14.5 7.83984C14.2239 7.83984 14 8.0637 14 8.33984V14.3398C14 14.616 13.7761 14.8398 13.5 14.8398H2.5C2.22386 14.8398 2 14.616 2 14.3398V3.33984C2 3.0637 2.22386 2.83984 2.5 2.83984H9C9.27614 2.83984 9.5 2.61599 9.5 2.33984C9.5 2.0637 9.27614 1.83984 9 1.83984H2.5C1.67157 1.83984 1 2.51142 1 3.33984V14.3398Z" fill="black"/>
</svg>
