<svg width="25" height="24" viewBox="0 0 25 24" fill="none" xmlns="http://www.w3.org/2000/svg">
<path d="M20 3.74902H5C3.75736 3.74902 2.75 4.75638 2.75 5.99902V19.499C2.75 20.7417 3.75736 21.749 5 21.749H20C21.2426 21.749 22.25 20.7417 22.25 19.499V5.99902C22.25 4.75638 21.2426 3.74902 20 3.74902Z" stroke="#019FD5" stroke-width="1.5" stroke-linejoin="round"/>
<path d="M19.1478 3.74902H5.85219C4.14172 3.74902 2.75 5.1623 2.75 6.89902V9.74902H3.5C3.5 8.99902 4.25 8.24902 5 8.24902H20C20.75 8.24902 21.5 8.99902 21.5 9.74902H22.25V6.89902C22.25 5.1623 20.8583 3.74902 19.1478 3.74902Z" fill="#019FD5"/>
<path d="M14.375 11.999C14.9963 11.999 15.5 11.4953 15.5 10.874C15.5 10.2527 14.9963 9.74902 14.375 9.74902C13.7537 9.74902 13.25 10.2527 13.25 10.874C13.25 11.4953 13.7537 11.999 14.375 11.999Z" fill="#019FD5"/>
<path d="M18.125 11.999C18.7463 11.999 19.25 11.4953 19.25 10.874C19.25 10.2527 18.7463 9.74902 18.125 9.74902C17.5037 9.74902 17 10.2527 17 10.874C17 11.4953 17.5037 11.999 18.125 11.999Z" fill="#019FD5"/>
<path d="M14.375 15.7483C14.9963 15.7483 15.5 15.2446 15.5 14.6233C15.5 14.002 14.9963 13.4983 14.375 13.4983C13.7537 13.4983 13.25 14.002 13.25 14.6233C13.25 15.2446 13.7537 15.7483 14.375 15.7483Z" fill="#019FD5"/>
<path d="M18.125 15.7483C18.7463 15.7483 19.25 15.2446 19.25 14.6233C19.25 14.002 18.7463 13.4983 18.125 13.4983C17.5037 13.4983 17 14.002 17 14.6233C17 15.2446 17.5037 15.7483 18.125 15.7483Z" fill="#019FD5"/>
<path d="M6.875 15.7483C7.49632 15.7483 8 15.2446 8 14.6233C8 14.002 7.49632 13.4983 6.875 13.4983C6.25368 13.4983 5.75 14.002 5.75 14.6233C5.75 15.2446 6.25368 15.7483 6.875 15.7483Z" fill="#019FD5"/>
<path d="M10.625 15.7483C11.2463 15.7483 11.75 15.2446 11.75 14.6233C11.75 14.002 11.2463 13.4983 10.625 13.4983C10.0037 13.4983 9.5 14.002 9.5 14.6233C9.5 15.2446 10.0037 15.7483 10.625 15.7483Z" fill="#019FD5"/>
<path d="M6.875 19.499C7.49632 19.499 8 18.9953 8 18.374C8 17.7527 7.49632 17.249 6.875 17.249C6.25368 17.249 5.75 17.7527 5.75 18.374C5.75 18.9953 6.25368 19.499 6.875 19.499Z" fill="#019FD5"/>
<path d="M10.625 19.499C11.2463 19.499 11.75 18.9953 11.75 18.374C11.75 17.7527 11.2463 17.249 10.625 17.249C10.0037 17.249 9.5 17.7527 9.5 18.374C9.5 18.9953 10.0037 19.499 10.625 19.499Z" fill="#019FD5"/>
<path d="M14.375 19.499C14.9963 19.499 15.5 18.9953 15.5 18.374C15.5 17.7527 14.9963 17.249 14.375 17.249C13.7537 17.249 13.25 17.7527 13.25 18.374C13.25 18.9953 13.7537 19.499 14.375 19.499Z" fill="#019FD5"/>
<path d="M6.5 2.24902V3.74902" stroke="#019FD5" stroke-width="1.5" stroke-linecap="round" stroke-linejoin="round"/>
<path d="M18.5 2.24902V3.74902" stroke="#019FD5" stroke-width="1.5" stroke-linecap="round" stroke-linejoin="round"/>
</svg>
