<svg width="25" height="24" viewBox="0 0 25 24" fill="none" xmlns="http://www.w3.org/2000/svg">
<path d="M19.625 2.99902H5.375C4.67941 3.001 4.01288 3.2782 3.52103 3.77005C3.02918 4.26191 2.75198 4.92844 2.75 5.62402V14.624C2.75198 15.3196 3.02918 15.9861 3.52103 16.478C4.01288 16.9698 4.67941 17.247 5.375 17.249H7.25V20.999L11.6431 17.3362C11.7106 17.2799 11.7957 17.249 11.8836 17.249H19.625C20.3206 17.247 20.9871 16.9698 21.479 16.478C21.9708 15.9861 22.248 15.3196 22.25 14.624V5.62402C22.248 4.92844 21.9708 4.26191 21.479 3.77005C20.9871 3.2782 20.3206 3.001 19.625 2.99902V2.99902Z" stroke="#019FD5" stroke-width="1.5" stroke-linejoin="round"/>
</svg>
