<svg width="16" height="17" viewBox="0 0 16 17" fill="none" xmlns="http://www.w3.org/2000/svg">
<path d="M12 7.34033V13.0903C12 13.2545 11.9677 13.417 11.9048 13.5687C11.842 13.7203 11.75 13.8581 11.6339 13.9742C11.5178 14.0903 11.38 14.1824 11.2284 14.2452C11.0767 14.308 10.9141 14.3403 10.75 14.3403H3.25C2.91848 14.3403 2.60054 14.2086 2.36612 13.9742C2.1317 13.7398 2 13.4218 2 13.0903V5.59033C2 5.25881 2.1317 4.94087 2.36612 4.70645C2.60054 4.47203 2.91848 4.34033 3.25 4.34033H8.48375" stroke="white" stroke-linecap="round" stroke-linejoin="round"/>
<path d="M14.3733 2.0044C14.3277 1.95423 14.2723 1.91383 14.2106 1.88566C14.1489 1.85748 14.0821 1.84211 14.0143 1.84048C13.9464 1.83884 13.879 1.85097 13.816 1.87614C13.753 1.90131 13.6957 1.93899 13.6477 1.9869L13.2612 2.37159C13.2143 2.41847 13.188 2.48203 13.188 2.54831C13.188 2.61459 13.2143 2.67815 13.2612 2.72503L13.6155 3.07878C13.6388 3.10212 13.6664 3.12064 13.6968 3.13327C13.7272 3.14591 13.7598 3.15241 13.7927 3.15241C13.8256 3.15241 13.8582 3.14591 13.8887 3.13327C13.9191 3.12064 13.9467 3.10212 13.9699 3.07878L14.3468 2.70378C14.5374 2.51347 14.5552 2.20347 14.3733 2.0044Z" fill="white"/>
<path d="M12.4794 3.15339L6.83816 8.78463C6.80396 8.8187 6.7791 8.86099 6.76598 8.90745L6.50504 9.68463C6.49879 9.70572 6.49834 9.72811 6.50376 9.74943C6.50917 9.77074 6.52023 9.79021 6.53579 9.80576C6.55134 9.82131 6.5708 9.83238 6.59212 9.83779C6.61344 9.8432 6.63583 9.84276 6.65691 9.83651L7.43348 9.57557C7.47993 9.56245 7.52222 9.53759 7.55629 9.50338L13.1875 3.86151C13.2396 3.80885 13.2689 3.73777 13.2689 3.6637C13.2689 3.58962 13.2396 3.51854 13.1875 3.46589L12.8766 3.15339C12.8239 3.10081 12.7525 3.07129 12.678 3.07129C12.6035 3.07129 12.5321 3.10081 12.4794 3.15339V3.15339Z" fill="white"/>
</svg>
