<svg width="113" height="20" viewBox="0 0 113 20" fill="none" xmlns="http://www.w3.org/2000/svg">
<path d="M107.313 19.8001C106.713 19.8001 106.136 19.7068 105.583 19.5201C105.036 19.3334 104.543 19.0634 104.103 18.7101C103.663 18.3634 103.303 17.9434 103.023 17.4501L105.243 16.3501C105.449 16.7434 105.739 17.0334 106.113 17.2201C106.493 17.4134 106.896 17.5101 107.323 17.5101C107.823 17.5101 108.269 17.4201 108.663 17.2401C109.056 17.0668 109.359 16.8068 109.573 16.4601C109.793 16.1201 109.896 15.6934 109.883 15.1801V12.1101H110.183V3.9001H112.293V15.2201C112.293 15.4934 112.279 15.7534 112.253 16.0001C112.233 16.2534 112.196 16.5001 112.143 16.7401C111.983 17.4401 111.676 18.0134 111.223 18.4601C110.769 18.9134 110.206 19.2501 109.533 19.4701C108.866 19.6901 108.126 19.8001 107.313 19.8001ZM107.103 15.0001C106.109 15.0001 105.243 14.7501 104.503 14.2501C103.763 13.7501 103.189 13.0701 102.783 12.2101C102.376 11.3501 102.173 10.3801 102.173 9.3001C102.173 8.20676 102.376 7.23343 102.783 6.3801C103.196 5.5201 103.779 4.84343 104.533 4.3501C105.286 3.8501 106.173 3.6001 107.193 3.6001C108.219 3.6001 109.079 3.8501 109.773 4.3501C110.473 4.84343 111.003 5.5201 111.363 6.3801C111.723 7.2401 111.903 8.21343 111.903 9.3001C111.903 10.3734 111.723 11.3434 111.363 12.2101C111.003 13.0701 110.466 13.7501 109.753 14.2501C109.039 14.7501 108.156 15.0001 107.103 15.0001ZM107.473 12.8401C108.119 12.8401 108.639 12.6934 109.033 12.4001C109.433 12.1001 109.723 11.6834 109.903 11.1501C110.089 10.6168 110.183 10.0001 110.183 9.3001C110.183 8.59343 110.089 7.97676 109.903 7.4501C109.723 6.91676 109.439 6.50343 109.053 6.2101C108.666 5.9101 108.166 5.7601 107.553 5.7601C106.906 5.7601 106.373 5.9201 105.953 6.2401C105.533 6.55343 105.223 6.9801 105.023 7.5201C104.823 8.05343 104.723 8.64676 104.723 9.3001C104.723 9.9601 104.819 10.5601 105.013 11.1001C105.213 11.6334 105.516 12.0568 105.923 12.3701C106.329 12.6834 106.846 12.8401 107.473 12.8401Z" fill="black"/>
<path d="M97.7232 14.6998V9.49984C97.7232 9.15984 97.6998 8.78318 97.6532 8.36984C97.6065 7.95651 97.4965 7.55984 97.3232 7.17984C97.1565 6.79318 96.9032 6.47651 96.5632 6.22984C96.2298 5.98318 95.7765 5.85984 95.2032 5.85984C94.8965 5.85984 94.5932 5.90984 94.2932 6.00984C93.9932 6.10984 93.7198 6.28318 93.4732 6.52984C93.2332 6.76984 93.0398 7.10318 92.8932 7.52984C92.7465 7.94984 92.6732 8.48984 92.6732 9.14984L91.2432 8.53984C91.2432 7.61984 91.4198 6.78651 91.7732 6.03984C92.1332 5.29318 92.6598 4.69984 93.3532 4.25984C94.0465 3.81318 94.8998 3.58984 95.9132 3.58984C96.7132 3.58984 97.3732 3.72318 97.8932 3.98984C98.4132 4.25651 98.8265 4.59651 99.1332 5.00984C99.4398 5.42318 99.6665 5.86318 99.8132 6.32984C99.9598 6.79651 100.053 7.23984 100.093 7.65984C100.14 8.07318 100.163 8.40984 100.163 8.66984V14.6998H97.7232ZM90.2332 14.6998V3.89984H92.3832V7.24984H92.6732V14.6998H90.2332Z" fill="black"/>
<path d="M84.8477 2.2598V0.0498047H87.2577V2.2598H84.8477ZM84.8477 14.6998V3.89981H87.2577V14.6998H84.8477Z" fill="black"/>
<path d="M76.6339 14.9998C75.6405 14.9998 74.7739 14.7498 74.0339 14.2498C73.2939 13.7498 72.7205 13.0698 72.3139 12.2098C71.9072 11.3498 71.7039 10.3798 71.7039 9.2998C71.7039 8.20647 71.9072 7.23314 72.3139 6.37981C72.7272 5.51981 73.3105 4.84314 74.0639 4.3498C74.8172 3.84981 75.7039 3.5998 76.7239 3.5998C77.7505 3.5998 78.6105 3.84981 79.3039 4.3498C80.0039 4.84314 80.5339 5.51981 80.8939 6.37981C81.2539 7.23981 81.4339 8.21314 81.4339 9.2998C81.4339 10.3731 81.2539 11.3431 80.8939 12.2098C80.5339 13.0698 79.9972 13.7498 79.2839 14.2498C78.5705 14.7498 77.6872 14.9998 76.6339 14.9998ZM77.0039 12.8398C77.6505 12.8398 78.1705 12.6931 78.5639 12.3998C78.9639 12.0998 79.2539 11.6831 79.4339 11.1498C79.6205 10.6165 79.7139 9.9998 79.7139 9.2998C79.7139 8.59314 79.6205 7.97647 79.4339 7.44981C79.2539 6.91647 78.9705 6.50314 78.5839 6.2098C78.1972 5.9098 77.6972 5.7598 77.0839 5.7598C76.4372 5.7598 75.9039 5.91981 75.4839 6.23981C75.0639 6.55314 74.7539 6.9798 74.5539 7.5198C74.3539 8.05314 74.2539 8.64647 74.2539 9.2998C74.2539 9.9598 74.3505 10.5598 74.5439 11.0998C74.7439 11.6331 75.0472 12.0565 75.4539 12.3698C75.8605 12.6831 76.3772 12.8398 77.0039 12.8398ZM79.7139 14.6998V7.11981H79.4139V0.299805H81.8439V14.6998H79.7139Z" fill="black"/>
<path d="M64.511 14.7V3.90001H66.641V6.53001L66.381 6.19001C66.5143 5.83001 66.691 5.50335 66.911 5.21001C67.1377 4.91001 67.4077 4.66335 67.721 4.47001C67.9877 4.29001 68.281 4.15001 68.601 4.05001C68.9276 3.94335 69.261 3.88001 69.601 3.86001C69.941 3.83335 70.271 3.84668 70.591 3.90001V6.15001C70.271 6.05668 69.901 6.02668 69.481 6.06001C69.0677 6.09335 68.6943 6.21001 68.361 6.41001C68.0277 6.59001 67.7543 6.82001 67.541 7.10001C67.3343 7.38001 67.181 7.70001 67.081 8.06001C66.981 8.41335 66.931 8.79668 66.931 9.21001V14.7H64.511Z" fill="black"/>
<path d="M56.0075 15.0001C55.2275 15.0001 54.5675 14.8534 54.0275 14.5601C53.4875 14.2601 53.0775 13.8634 52.7975 13.3701C52.5241 12.8768 52.3875 12.3334 52.3875 11.7401C52.3875 11.2201 52.4741 10.7534 52.6475 10.3401C52.8208 9.9201 53.0875 9.5601 53.4475 9.2601C53.8075 8.95343 54.2741 8.70343 54.8475 8.5101C55.2808 8.3701 55.7875 8.24343 56.3675 8.1301C56.9541 8.01676 57.5875 7.91343 58.2675 7.8201C58.9541 7.7201 59.6708 7.61343 60.4175 7.5001L59.5575 7.9901C59.5641 7.24343 59.3975 6.69343 59.0575 6.3401C58.7175 5.98676 58.1441 5.8101 57.3375 5.8101C56.8508 5.8101 56.3808 5.92343 55.9275 6.1501C55.4741 6.37676 55.1575 6.76676 54.9775 7.3201L52.7775 6.6301C53.0441 5.71676 53.5508 4.98343 54.2975 4.4301C55.0508 3.87676 56.0641 3.6001 57.3375 3.6001C58.2975 3.6001 59.1408 3.75676 59.8675 4.0701C60.6008 4.38343 61.1441 4.89676 61.4975 5.6101C61.6908 5.9901 61.8075 6.3801 61.8475 6.7801C61.8875 7.17343 61.9075 7.60343 61.9075 8.0701V14.7001H59.7975V12.3601L60.1475 12.7401C59.6608 13.5201 59.0908 14.0934 58.4375 14.4601C57.7908 14.8201 56.9808 15.0001 56.0075 15.0001ZM56.4875 13.0801C57.0341 13.0801 57.5008 12.9834 57.8875 12.7901C58.2741 12.5968 58.5808 12.3601 58.8075 12.0801C59.0408 11.8001 59.1975 11.5368 59.2775 11.2901C59.4041 10.9834 59.4741 10.6334 59.4875 10.2401C59.5075 9.8401 59.5175 9.51676 59.5175 9.2701L60.2575 9.4901C59.5308 9.60343 58.9075 9.70343 58.3875 9.7901C57.8675 9.87676 57.4208 9.9601 57.0475 10.0401C56.6741 10.1134 56.3441 10.1968 56.0575 10.2901C55.7775 10.3901 55.5408 10.5068 55.3475 10.6401C55.1541 10.7734 55.0041 10.9268 54.8975 11.1001C54.7975 11.2734 54.7475 11.4768 54.7475 11.7101C54.7475 11.9768 54.8141 12.2134 54.9475 12.4201C55.0808 12.6201 55.2741 12.7801 55.5275 12.9001C55.7875 13.0201 56.1075 13.0801 56.4875 13.0801Z" fill="black"/>
<path d="M45.3942 15.0001C44.3142 15.0001 43.3708 14.7568 42.5642 14.2701C41.7575 13.7834 41.1308 13.1134 40.6842 12.2601C40.2442 11.4001 40.0242 10.4134 40.0242 9.3001C40.0242 8.16676 40.2508 7.17343 40.7042 6.3201C41.1575 5.46676 41.7875 4.8001 42.5942 4.3201C43.4008 3.8401 44.3342 3.6001 45.3942 3.6001C46.4808 3.6001 47.4275 3.84343 48.2342 4.3301C49.0408 4.81676 49.6675 5.4901 50.1142 6.3501C50.5608 7.20343 50.7842 8.18676 50.7842 9.3001C50.7842 10.4201 50.5575 11.4101 50.1042 12.2701C49.6575 13.1234 49.0308 13.7934 48.2242 14.2801C47.4175 14.7601 46.4742 15.0001 45.3942 15.0001ZM45.3942 12.7401C46.3542 12.7401 47.0675 12.4201 47.5342 11.7801C48.0008 11.1401 48.2342 10.3134 48.2342 9.3001C48.2342 8.25343 47.9975 7.4201 47.5242 6.8001C47.0508 6.17343 46.3408 5.8601 45.3942 5.8601C44.7475 5.8601 44.2142 6.00676 43.7942 6.3001C43.3808 6.58676 43.0742 6.9901 42.8742 7.5101C42.6742 8.02343 42.5742 8.6201 42.5742 9.3001C42.5742 10.3468 42.8108 11.1834 43.2842 11.8101C43.7642 12.4301 44.4675 12.7401 45.3942 12.7401Z" fill="black"/>
<path d="M33.49 14.9998C32.4367 14.9998 31.5534 14.7498 30.84 14.2498C30.1267 13.7498 29.59 13.0698 29.23 12.2098C28.87 11.3431 28.69 10.3731 28.69 9.2998C28.69 8.21314 28.87 7.23981 29.23 6.37981C29.59 5.51981 30.1167 4.84314 30.81 4.3498C31.51 3.84981 32.3734 3.5998 33.4 3.5998C34.42 3.5998 35.3034 3.84981 36.05 4.3498C36.8034 4.84314 37.3867 5.51981 37.8 6.37981C38.2134 7.23314 38.42 8.20647 38.42 9.2998C38.42 10.3798 38.2167 11.3498 37.81 12.2098C37.4034 13.0698 36.83 13.7498 36.09 14.2498C35.35 14.7498 34.4834 14.9998 33.49 14.9998ZM28.28 14.6998V0.299805H30.71V7.11981H30.41V14.6998H28.28ZM33.12 12.8398C33.7467 12.8398 34.2634 12.6831 34.67 12.3698C35.0767 12.0565 35.3767 11.6331 35.57 11.0998C35.77 10.5598 35.87 9.9598 35.87 9.2998C35.87 8.64647 35.77 8.05314 35.57 7.5198C35.37 6.9798 35.06 6.55314 34.64 6.23981C34.22 5.91981 33.6867 5.7598 33.04 5.7598C32.4267 5.7598 31.9267 5.9098 31.54 6.2098C31.1534 6.50314 30.8667 6.91647 30.68 7.44981C30.5 7.97647 30.41 8.59314 30.41 9.2998C30.41 9.9998 30.5 10.6165 30.68 11.1498C30.8667 11.6831 31.1567 12.0998 31.55 12.3998C31.95 12.6931 32.4734 12.8398 33.12 12.8398Z" fill="black"/>
<path d="M23.2505 14.6998V9.49984C23.2505 9.15984 23.2272 8.78318 23.1805 8.36984C23.1338 7.95651 23.0238 7.55984 22.8505 7.17984C22.6838 6.79318 22.4305 6.47651 22.0905 6.22984C21.7572 5.98318 21.3038 5.85984 20.7305 5.85984C20.4238 5.85984 20.1205 5.90984 19.8205 6.00984C19.5205 6.10984 19.2472 6.28318 19.0005 6.52984C18.7605 6.76984 18.5672 7.10318 18.4205 7.52984C18.2738 7.94984 18.2005 8.48984 18.2005 9.14984L16.7705 8.53984C16.7705 7.61984 16.9472 6.78651 17.3005 6.03984C17.6605 5.29318 18.1872 4.69984 18.8805 4.25984C19.5738 3.81318 20.4272 3.58984 21.4405 3.58984C22.2405 3.58984 22.9005 3.72318 23.4205 3.98984C23.9405 4.25651 24.3538 4.59651 24.6605 5.00984C24.9672 5.42318 25.1938 5.86318 25.3405 6.32984C25.4872 6.79651 25.5805 7.23984 25.6205 7.65984C25.6672 8.07318 25.6905 8.40984 25.6905 8.66984V14.6998H23.2505ZM15.7605 14.6998V3.89984H17.9105V7.24984H18.2005V14.6998H15.7605Z" fill="black"/>
<path d="M6.89 15C5.45 15 4.21667 14.6867 3.19 14.06C2.16333 13.4267 1.37333 12.5467 0.82 11.42C0.273333 10.2933 0 8.98667 0 7.5C0 6.01333 0.273333 4.70667 0.82 3.58C1.37333 2.45333 2.16333 1.57667 3.19 0.949999C4.21667 0.316667 5.45 0 6.89 0C8.33 0 9.56333 0.316667 10.59 0.949999C11.6233 1.57667 12.4133 2.45333 12.96 3.58C13.5133 4.70667 13.79 6.01333 13.79 7.5C13.79 8.98667 13.5133 10.2933 12.96 11.42C12.4133 12.5467 11.6233 13.4267 10.59 14.06C9.56333 14.6867 8.33 15 6.89 15ZM6.89 12.73C7.85667 12.7367 8.66 12.5233 9.3 12.09C9.94667 11.6567 10.43 11.0467 10.75 10.26C11.0767 9.47333 11.24 8.55333 11.24 7.5C11.24 6.44667 11.0767 5.53333 10.75 4.76C10.43 3.98 9.94667 3.37333 9.3 2.94C8.66 2.50667 7.85667 2.28333 6.89 2.27C5.92333 2.26333 5.12 2.47667 4.48 2.91C3.84 3.34333 3.35667 3.95333 3.03 4.74C2.71 5.52667 2.55 6.44667 2.55 7.5C2.55 8.55333 2.71 9.47 3.03 10.25C3.35 11.0233 3.83 11.6267 4.47 12.06C5.11667 12.4933 5.92333 12.7167 6.89 12.73Z" fill="black"/>
</svg>
