<svg width="24" height="24" viewBox="0 0 24 24" fill="none" xmlns="http://www.w3.org/2000/svg">
<g clip-path="url(#clip0_1421_7247)">
<path d="M15.75 12.3811V20.4375C15.75 21.5766 14.857 22.5 13.7367 22.5H5.01562C3.89297 22.5 3 21.5766 3 20.4375V8.0625C3.0032 7.51648 3.22152 6.99373 3.60763 6.60763C3.99373 6.22152 4.51648 6.0032 5.0625 6H9.47437C9.62708 6.00023 9.77822 6.03086 9.91897 6.09009C10.0597 6.14932 10.1873 6.23597 10.2942 6.345L15.4106 11.5481C15.6283 11.7707 15.7501 12.0697 15.75 12.3811V12.3811Z" stroke="#019FD5" stroke-width="1.5" stroke-linejoin="round"/>
<path d="M9.375 6V11.0625C9.37914 11.4093 9.51875 11.7408 9.764 11.986C10.0092 12.2313 10.3407 12.3709 10.6875 12.375H15.75" stroke="#019FD5" stroke-width="1.5" stroke-linecap="round" stroke-linejoin="round"/>
<path d="M8.24976 6V3.5625C8.25295 3.01648 8.47128 2.49373 8.85738 2.10763C9.24348 1.72152 9.76623 1.5032 10.3123 1.5H14.7185C14.8721 1.50021 15.024 1.53081 15.1657 1.59002C15.3074 1.64923 15.4359 1.73589 15.544 1.845L20.6604 7.04812C20.8779 7.26835 20.9998 7.56545 20.9997 7.875V15.9375C20.9997 17.0766 20.1068 18 18.9865 18H16.1248" stroke="#019FD5" stroke-width="1.5" stroke-linejoin="round"/>
<path d="M14.625 1.5V6.5625C14.6291 6.90931 14.7687 7.24075 15.014 7.486C15.2592 7.73125 15.5907 7.87086 15.9375 7.875H21" stroke="#019FD5" stroke-width="1.5" stroke-linecap="round" stroke-linejoin="round"/>
</g>
<defs>
<clipPath id="clip0_1421_7247">
<rect width="24" height="24" fill="white"/>
</clipPath>
</defs>
</svg>
