<svg width="24" height="24" viewBox="0 0 24 24" fill="none" xmlns="http://www.w3.org/2000/svg">
<path d="M9.56238 2.25H3.18738C2.66961 2.25 2.24988 2.66973 2.24988 3.1875V9.5625C2.24988 10.0803 2.66961 10.5 3.18738 10.5H9.56238C10.0801 10.5 10.4999 10.0803 10.4999 9.5625V3.1875C10.4999 2.66973 10.0801 2.25 9.56238 2.25Z" stroke="#2398FF" stroke-width="1.5" stroke-linecap="round" stroke-linejoin="round"/>
<path d="M20.8124 2.25H14.4374C13.9196 2.25 13.4999 2.66973 13.4999 3.1875V9.5625C13.4999 10.0803 13.9196 10.5 14.4374 10.5H20.8124C21.3301 10.5 21.7499 10.0803 21.7499 9.5625V3.1875C21.7499 2.66973 21.3301 2.25 20.8124 2.25Z" stroke="#2398FF" stroke-width="1.5" stroke-linecap="round" stroke-linejoin="round"/>
<path d="M9.56238 13.5H3.18738C2.66961 13.5 2.24988 13.9197 2.24988 14.4375V20.8125C2.24988 21.3303 2.66961 21.75 3.18738 21.75H9.56238C10.0801 21.75 10.4999 21.3303 10.4999 20.8125V14.4375C10.4999 13.9197 10.0801 13.5 9.56238 13.5Z" stroke="#2398FF" stroke-width="1.5" stroke-linecap="round" stroke-linejoin="round"/>
<path d="M20.8124 13.5H14.4374C13.9196 13.5 13.4999 13.9197 13.4999 14.4375V20.8125C13.4999 21.3303 13.9196 21.75 14.4374 21.75H20.8124C21.3301 21.75 21.7499 21.3303 21.7499 20.8125V14.4375C21.7499 13.9197 21.3301 13.5 20.8124 13.5Z" stroke="#2398FF" stroke-width="1.5" stroke-linecap="round" stroke-linejoin="round"/>
</svg>
