<svg width="19" height="18" viewBox="0 0 19 18" fill="none" xmlns="http://www.w3.org/2000/svg">
<path d="M7.67187 1.68677H2.89062C2.5023 1.68677 2.1875 2.00157 2.1875 2.38989V7.17114C2.1875 7.55947 2.5023 7.87427 2.89062 7.87427H7.67187C8.0602 7.87427 8.375 7.55947 8.375 7.17114V2.38989C8.375 2.00157 8.0602 1.68677 7.67187 1.68677Z" stroke="#F7FDFD" stroke-width="1.5" stroke-linecap="round" stroke-linejoin="round"/>
<path d="M16.1094 1.68677H11.3281C10.9398 1.68677 10.625 2.00157 10.625 2.38989V7.17114C10.625 7.55947 10.9398 7.87427 11.3281 7.87427H16.1094C16.4977 7.87427 16.8125 7.55947 16.8125 7.17114V2.38989C16.8125 2.00157 16.4977 1.68677 16.1094 1.68677Z" stroke="#F7FDFD" stroke-width="1.5" stroke-linecap="round" stroke-linejoin="round"/>
<path d="M7.67187 10.1245H2.89062C2.5023 10.1245 2.1875 10.4393 2.1875 10.8276V15.6089C2.1875 15.9972 2.5023 16.312 2.89062 16.312H7.67187C8.0602 16.312 8.375 15.9972 8.375 15.6089V10.8276C8.375 10.4393 8.0602 10.1245 7.67187 10.1245Z" stroke="#F7FDFD" stroke-width="1.5" stroke-linecap="round" stroke-linejoin="round"/>
<path d="M16.1094 10.1245H11.3281C10.9398 10.1245 10.625 10.4393 10.625 10.8276V15.6089C10.625 15.9972 10.9398 16.312 11.3281 16.312H16.1094C16.4977 16.312 16.8125 15.9972 16.8125 15.6089V10.8276C16.8125 10.4393 16.4977 10.1245 16.1094 10.1245Z" stroke="#F7FDFD" stroke-width="1.5" stroke-linecap="round" stroke-linejoin="round"/>
</svg>
