<svg width="25" height="24" viewBox="0 0 25 24" fill="none" xmlns="http://www.w3.org/2000/svg">
<path d="M4.25 9.9375V21C4.25 21.1989 4.32902 21.3897 4.46967 21.5303C4.61032 21.671 4.80109 21.75 5 21.75H9.5V15.375C9.5 15.0766 9.61852 14.7905 9.8295 14.5795C10.0405 14.3685 10.3266 14.25 10.625 14.25H14.375C14.6734 14.25 14.9595 14.3685 15.1705 14.5795C15.3815 14.7905 15.5 15.0766 15.5 15.375V21.75H20C20.1989 21.75 20.3897 21.671 20.5303 21.5303C20.671 21.3897 20.75 21.1989 20.75 21V9.9375" stroke="#F3F4F6" stroke-width="1.5" stroke-linecap="round" stroke-linejoin="round"/>
<path d="M23 12.0011L13.0105 2.43863C12.7761 2.19113 12.2281 2.18832 11.9895 2.43863L2 12.0011" stroke="#F3F4F6" stroke-width="1.5" stroke-linecap="round" stroke-linejoin="round"/>
<path d="M19.25 8.39062V3H17V6.23437" stroke="#F3F4F6" stroke-width="1.5" stroke-linecap="round" stroke-linejoin="round"/>
</svg>
