<svg width="24" height="24" viewBox="0 0 24 24" fill="none" xmlns="http://www.w3.org/2000/svg">
<path d="M21.6472 2.5218C21.6392 2.48333 21.6205 2.44794 21.593 2.41979C21.5656 2.39163 21.5308 2.3719 21.4925 2.36289C18.9435 1.73945 13.055 3.96086 9.86144 7.15211C9.29227 7.7166 8.77328 8.32954 8.31035 8.98398C7.32597 8.89492 6.3416 8.96992 5.50347 9.33554C3.13676 10.3762 2.44816 13.094 2.25598 14.2607C2.24556 14.3246 2.25001 14.3901 2.26897 14.452C2.28794 14.514 2.32091 14.5707 2.36533 14.6178C2.40975 14.665 2.46443 14.7013 2.52513 14.7239C2.58583 14.7465 2.65092 14.7548 2.71535 14.7482L6.5155 14.331C6.51813 14.6176 6.53534 14.9039 6.56707 15.1888C6.5869 15.3857 6.67475 15.5696 6.8155 15.7087L8.28691 17.1801C8.42614 17.3209 8.61015 17.4088 8.80722 17.4285C9.09039 17.4601 9.37497 17.4773 9.65988 17.4801L9.24316 21.2769C9.23665 21.3413 9.24503 21.4063 9.26765 21.4669C9.29026 21.5275 9.32651 21.5821 9.37358 21.6264C9.42066 21.6708 9.4773 21.7037 9.53913 21.7227C9.60097 21.7417 9.66634 21.7462 9.73019 21.7359C10.8974 21.5484 13.6208 20.8598 14.6553 18.4935C15.021 17.6544 15.096 16.6752 15.0116 15.6955C15.668 15.233 16.2827 14.714 16.8486 14.1444C20.0539 10.957 22.2613 5.19789 21.6472 2.5218ZM13.9996 10.0152C13.7196 9.73533 13.5289 9.37868 13.4517 8.99041C13.3744 8.60213 13.414 8.19966 13.5655 7.83389C13.717 7.46813 13.9735 7.1555 14.3027 6.93555C14.6318 6.71559 15.0188 6.59819 15.4147 6.59819C15.8106 6.59819 16.1976 6.71559 16.5268 6.93555C16.8559 7.1555 17.1125 7.46813 17.264 7.83389C17.4154 8.19966 17.4551 8.60213 17.3778 8.99041C17.3005 9.37868 17.1098 9.73533 16.8299 10.0152C16.6442 10.2013 16.4236 10.349 16.1808 10.4497C15.9379 10.5504 15.6776 10.6023 15.4147 10.6023C15.1518 10.6023 14.8915 10.5504 14.6487 10.4497C14.4058 10.349 14.1853 10.2013 13.9996 10.0152V10.0152Z" stroke="#019FD5" stroke-width="1.5" stroke-linecap="round" stroke-linejoin="round"/>
<path d="M5.13937 16.5C4.67208 16.5574 4.23735 16.7692 3.90422 17.1019C3.07828 17.9306 3 21 3 21C3 21 6.07125 20.9217 6.89765 20.0948C7.23167 19.7622 7.44387 19.3268 7.5 18.8587" stroke="#019FD5" stroke-width="1.5" stroke-linecap="round" stroke-linejoin="round"/>
</svg>
