<svg width="14" height="15" viewBox="0 0 14 15" fill="none" xmlns="http://www.w3.org/2000/svg">
<path d="M7.00021 0.98291C7.4736 0.98291 7.85735 1.36667 7.85735 1.84005V6.98291H13.0002C13.4736 6.98291 13.8574 7.36667 13.8574 7.84005C13.8574 8.31344 13.4736 8.6972 13.0002 8.6972H7.85735V13.8401C7.85735 14.3134 7.4736 14.6972 7.00021 14.6972C6.52682 14.6972 6.14307 14.3134 6.14307 13.8401V8.6972H1.00021C0.526822 8.6972 0.143066 8.31344 0.143066 7.84005C0.143066 7.36667 0.526822 6.98291 1.00021 6.98291H6.14307V1.84005C6.14307 1.36667 6.52682 0.98291 7.00021 0.98291Z" fill="white"/>
</svg>
