<svg width="24" height="24" viewBox="0 0 24 24" fill="none" xmlns="http://www.w3.org/2000/svg">
<path fill-rule="evenodd" clip-rule="evenodd" d="M11 5.73901V8H10C6.829 8 4.151 10.108 3.29 13H2V17H3.29C4.151 19.892 6.829 22 10 22C11.308 22 12.692 22 14 22C17.171 22 19.849 19.892 20.71 17H22V13H20.71C19.849 10.108 17.171 8 14 8H13V5.745C13.603 5.399 14.009 4.749 14.009 4.005C14.009 2.898 13.111 2 12.005 2C10.898 2 10 2.898 10 4.005C10 4.745 10.402 5.39201 11 5.73901ZM5 15C5 12.239 7.239 10 10 10C11.308 10 12.692 10 14 10C16.761 10 19 12.239 19 15C19 15.004 19 15.009 19 15.013C19 17.761 16.761 20 14 20C12.692 20 11.308 20 10 20C7.239 20 5 17.761 5 15ZM14 14V16H16V14H14ZM8 14V16H10V14H8Z" fill="#2398FF"/>
</svg>
