<svg width="36" height="37" viewBox="0 0 36 37" fill="none" xmlns="http://www.w3.org/2000/svg">
<g clip-path="url(#clip0_187_9201)">
<path d="M36 24.75V32.25C36 33.4434 35.5259 34.588 34.682 35.4319C33.8381 36.2759 32.6935 36.75 31.5 36.75H24C21.8956 36.7478 19.8289 36.1923 18.007 35.1392C16.1851 34.0861 14.6722 32.5724 13.62 30.75C14.7508 30.7419 15.8778 30.6172 16.983 30.378C17.8247 31.4304 18.8925 32.28 20.1072 32.8637C21.3219 33.4474 22.6523 33.7503 24 33.75H31.5C31.8978 33.75 32.2794 33.5919 32.5607 33.3106C32.842 33.0293 33 32.6478 33 32.25V24.75C32.9996 23.4018 32.6958 22.071 32.111 20.8563C31.5263 19.6416 30.6756 18.5741 29.622 17.733C29.8633 16.6279 29.9899 15.501 30 14.37C31.8224 15.4221 33.3361 16.935 34.3892 18.7569C35.4423 20.5788 35.9978 22.6456 36 24.75ZM26.9655 15.2265C27.1058 13.2939 26.8284 11.3538 26.1523 9.538C25.4761 7.72218 24.417 6.07319 23.0469 4.70308C21.6768 3.33297 20.0278 2.27385 18.212 1.59769C16.3961 0.921528 14.456 0.644167 12.5235 0.784455C9.09887 1.17555 5.93539 2.80522 3.62876 5.36657C1.32214 7.92792 0.0315407 11.2442 0 14.691L0 22.251C0 26.049 2.2605 27.75 4.5 27.75H13.05C16.4982 27.7203 19.8165 26.4305 22.3797 24.1238C24.9428 21.817 26.5739 18.6525 26.9655 15.2265ZM20.925 6.82646C21.9899 7.89371 22.8131 9.17725 23.339 10.5902C23.8648 12.0032 24.0811 13.5127 23.973 15.0165C23.6528 17.692 22.3657 20.1582 20.354 21.9509C18.3422 23.7435 15.7446 24.739 13.05 24.75H4.5C3.108 24.75 3 22.8375 3 22.251V14.691C3.01251 11.9975 4.00897 9.40151 5.80188 7.39147C7.59478 5.38143 10.0605 4.09596 12.735 3.77696C12.984 3.75896 13.233 3.74996 13.482 3.74996C14.8639 3.74867 16.2325 4.01971 17.5096 4.54759C18.7867 5.07547 19.9473 5.84985 20.925 6.82646Z" fill="black"/>
</g>
<defs>
<clipPath id="clip0_187_9201">
<rect width="36" height="36" fill="white" transform="translate(0 0.75)"/>
</clipPath>
</defs>
</svg>
