<svg width="20" height="20" viewBox="0 0 20 20" fill="none" xmlns="http://www.w3.org/2000/svg">
<g clip-path="url(#clip0_340_3860)">
<path d="M20 13.3331V17.4998C20 18.1628 19.7366 18.7987 19.2678 19.2676C18.7989 19.7364 18.163 19.9998 17.5 19.9998H13.3333C12.1642 19.9986 11.016 19.69 10.0039 19.1049C8.99172 18.5199 8.15121 17.6789 7.56667 16.6665C8.19489 16.662 8.82098 16.5927 9.435 16.4598C9.90262 17.0445 10.4958 17.5165 11.1707 17.8408C11.8455 18.165 12.5846 18.3333 13.3333 18.3331H17.5C17.721 18.3331 17.933 18.2453 18.0893 18.089C18.2455 17.9328 18.3333 17.7208 18.3333 17.4998V13.3331C18.3331 12.5841 18.1643 11.8448 17.8395 11.17C17.5146 10.4951 17.042 9.90208 16.4567 9.43479C16.5907 8.82088 16.6611 8.19479 16.6667 7.56645C17.6791 8.151 18.5201 8.9915 19.1051 10.0037C19.6902 11.0158 19.9988 12.164 20 13.3331ZM14.9808 8.04229C15.0588 6.96865 14.9047 5.89082 14.529 4.88203C14.1534 3.87324 13.565 2.95714 12.8038 2.19597C12.0426 1.4348 11.1265 0.846396 10.1178 0.47075C9.10896 0.0951034 8.03113 -0.0589861 6.9575 0.018952C5.05493 0.236229 3.29744 1.1416 2.01598 2.56457C0.734522 3.98754 0.0175226 5.82993 0 7.74479L0 11.9448C0 14.0548 1.25583 14.9998 2.5 14.9998H7.25C9.16567 14.9833 11.0092 14.2668 12.4332 12.9852C13.8571 11.7037 14.7633 9.94563 14.9808 8.04229ZM11.625 3.37562C12.2166 3.96854 12.674 4.68162 12.9661 5.46661C13.2582 6.2516 13.3784 7.09018 13.3183 7.92562C13.1405 9.41202 12.4254 10.7821 11.3078 11.7781C10.1901 12.774 8.74699 13.3271 7.25 13.3331H2.5C1.72667 13.3331 1.66667 12.2706 1.66667 11.9448V7.74479C1.67361 6.24843 2.22721 4.80621 3.22326 3.68952C4.21932 2.57283 5.58916 1.85868 7.075 1.68145C7.21333 1.67145 7.35167 1.66645 7.49 1.66645C8.25772 1.66574 9.01807 1.81632 9.72757 2.10958C10.4371 2.40285 11.0818 2.83306 11.625 3.37562Z" fill="#2398FF"/>
</g>
<defs>
<clipPath id="clip0_340_3860">
<rect width="20" height="20" fill="white"/>
</clipPath>
</defs>
</svg>
