<svg width="36" height="36" viewBox="0 0 36 36" fill="none" xmlns="http://www.w3.org/2000/svg">
<g clip-path="url(#clip0_187_9172)">
<path d="M22.5 4.5C22.5 3.30653 22.0259 2.16193 21.182 1.31802C20.3381 0.474106 19.1935 0 18 0L0 0V36H3V19.5H15V21C15 22.1935 15.4741 23.3381 16.318 24.182C17.1619 25.0259 18.3065 25.5 19.5 25.5H36V6H22.5V4.5ZM3 3H18C18.3978 3 18.7794 3.15804 19.0607 3.43934C19.342 3.72064 19.5 4.10218 19.5 4.5V16.5H3V3ZM33 9V22.5H19.5C19.1022 22.5 18.7206 22.342 18.4393 22.0607C18.158 21.7794 18 21.3978 18 21V19.5H22.5V9H33Z" fill="black"/>
</g>
<defs>
<clipPath id="clip0_187_9172">
<rect width="36" height="36" fill="white"/>
</clipPath>
</defs>
</svg>
