<svg width="36" height="36" viewBox="0 0 36 36" fill="none" xmlns="http://www.w3.org/2000/svg">
<path d="M29.25 15.5576V29.251C29.25 30.1461 28.8944 31.0045 28.2615 31.6375C27.6285 32.2704 26.7701 32.626 25.875 32.626H10.125C9.22989 32.626 8.37145 32.2704 7.73851 31.6375C7.10558 31.0045 6.75 30.1461 6.75 29.251V6.75098C6.75 5.85587 7.10558 4.99743 7.73851 4.36449C8.37145 3.73156 9.22989 3.37598 10.125 3.37598H17.0684C17.6649 3.37607 18.237 3.61304 18.6588 4.0348L28.5912 13.9671C29.0129 14.389 29.2499 14.9611 29.25 15.5576Z" stroke="black" stroke-width="2" stroke-linejoin="round"/>
<path d="M18.0001 3.93896V12.3765C18.0001 12.9732 18.2372 13.5455 18.6591 13.9675C19.0811 14.3894 19.6534 14.6265 20.2501 14.6265H28.6876" stroke="black" stroke-width="2" stroke-linecap="round" stroke-linejoin="round"/>
<path d="M12.3749 20.251H23.6249" stroke="black" stroke-width="2" stroke-linecap="round" stroke-linejoin="round"/>
<path d="M12.3749 25.8765H23.6249" stroke="black" stroke-width="2" stroke-linecap="round" stroke-linejoin="round"/>
</svg>
