<svg width="36" height="37" viewBox="0 0 36 37" fill="none" xmlns="http://www.w3.org/2000/svg">
<path d="M31.5 18.5001C31.5 11.0469 25.4531 5.00006 18 5.00006C10.5469 5.00006 4.5 11.0469 4.5 18.5001C4.5 25.9532 10.5469 32.0001 18 32.0001C25.4531 32.0001 31.5 25.9532 31.5 18.5001Z" stroke="#2C3137" stroke-width="2" stroke-miterlimit="10"/>
<path d="M17.5961 12.1761L17.9997 20.7507L18.4026 12.1761C18.4051 12.1213 18.3964 12.0665 18.377 12.0152C18.3576 11.9639 18.3279 11.917 18.2898 11.8775C18.2517 11.8381 18.206 11.8068 18.1554 11.7856C18.1048 11.7644 18.0504 11.7537 17.9955 11.7542V11.7542C17.9413 11.7547 17.8877 11.7662 17.838 11.7878C17.7883 11.8095 17.7435 11.841 17.7062 11.8803C17.6689 11.9197 17.64 11.9662 17.6211 12.017C17.6021 12.0678 17.5937 12.1219 17.5961 12.1761V12.1761Z" stroke="#2C3137" stroke-width="2" stroke-linecap="round" stroke-linejoin="round"/>
<path d="M18 25.3684C17.9197 25.3684 17.8411 25.3446 17.7743 25.3C17.7075 25.2553 17.6554 25.1919 17.6247 25.1177C17.5939 25.0434 17.5859 24.9617 17.6016 24.8829C17.6172 24.8041 17.6559 24.7317 17.7127 24.6749C17.7696 24.6181 17.8419 24.5794 17.9207 24.5637C17.9995 24.5481 18.0812 24.5561 18.1555 24.5869C18.2297 24.6176 18.2931 24.6697 18.3378 24.7365C18.3824 24.8033 18.4062 24.8818 18.4062 24.9622C18.4062 25.0699 18.3634 25.1733 18.2873 25.2495C18.2111 25.3256 18.1077 25.3684 18 25.3684Z" fill="black" stroke="#2C3137" stroke-width="2"/>
</svg>
