<svg width="24" height="24" viewBox="0 0 24 24" fill="none" xmlns="http://www.w3.org/2000/svg">
<path d="M20.9999 12C20.9999 7.03125 16.9686 3 11.9999 3C7.03113 3 2.99988 7.03125 2.99988 12C2.99988 16.9687 7.03113 21 11.9999 21C16.9686 21 20.9999 16.9687 20.9999 12Z" stroke="#FD605D" stroke-width="1.5" stroke-miterlimit="10"/>
<path d="M11.7309 7.78517L11.9999 13.5016L12.2685 7.78517C12.2702 7.74862 12.2644 7.71213 12.2514 7.6779C12.2385 7.64368 12.2188 7.61245 12.1934 7.58613C12.168 7.55981 12.1374 7.53894 12.1037 7.5248C12.07 7.51067 12.0337 7.50356 11.9971 7.50392V7.50392C11.961 7.50426 11.9253 7.51188 11.8921 7.52633C11.859 7.54077 11.8291 7.56174 11.8043 7.588C11.7794 7.61425 11.7601 7.64523 11.7475 7.67911C11.7349 7.71299 11.7292 7.74906 11.7309 7.78517V7.78517Z" stroke="#FD605D" stroke-width="1.5" stroke-linecap="round" stroke-linejoin="round"/>
<path d="M11.9999 17.2461C11.8145 17.2461 11.6332 17.1911 11.479 17.0881C11.3249 16.9851 11.2047 16.8387 11.1337 16.6674C11.0628 16.4961 11.0442 16.3076 11.0804 16.1257C11.1166 15.9438 11.2059 15.7768 11.337 15.6457C11.4681 15.5146 11.6351 15.4253 11.817 15.3891C11.9988 15.3529 12.1873 15.3715 12.3586 15.4425C12.5299 15.5134 12.6764 15.6336 12.7794 15.7877C12.8824 15.9419 12.9374 16.1232 12.9374 16.3086C12.9374 16.5572 12.8386 16.7957 12.6628 16.9715C12.487 17.1473 12.2485 17.2461 11.9999 17.2461Z" fill="#FD605D"/>
</svg>
