<svg width="36" height="37" viewBox="0 0 36 37" fill="none" xmlns="http://www.w3.org/2000/svg">
<path d="M13.625 16.8125C13.625 17.1922 13.3172 17.5 12.9375 17.5C12.5578 17.5 12.25 17.1922 12.25 16.8125C12.25 16.4328 12.5578 16.125 12.9375 16.125C13.3172 16.125 13.625 16.4328 13.625 16.8125Z" fill="black" stroke="#2C3137" stroke-width="2"/>
<mask id="path-2-inside-1_589_4915" fill="white">
<path d="M18.0027 27.502C14.8091 27.502 12.1231 25.4257 11.2731 22.5921C11.2493 22.5078 11.2455 22.4191 11.2621 22.333C11.2787 22.247 11.3151 22.166 11.3685 22.0966C11.4219 22.0271 11.4908 21.9711 11.5697 21.933C11.6486 21.8949 11.7353 21.8757 11.8229 21.877H24.1761C24.2637 21.8757 24.3504 21.8949 24.4293 21.933C24.5082 21.9711 24.5771 22.0271 24.6305 22.0966C24.6839 22.166 24.7203 22.247 24.7369 22.333C24.7535 22.4191 24.7497 22.5078 24.7259 22.5921C23.8829 25.4257 21.1963 27.502 18.0027 27.502Z"/>
</mask>
<path d="M18.0027 27.502C14.8091 27.502 12.1231 25.4257 11.2731 22.5921C11.2493 22.5078 11.2455 22.4191 11.2621 22.333C11.2787 22.247 11.3151 22.166 11.3685 22.0966C11.4219 22.0271 11.4908 21.9711 11.5697 21.933C11.6486 21.8949 11.7353 21.8757 11.8229 21.877H24.1761C24.2637 21.8757 24.3504 21.8949 24.4293 21.933C24.5082 21.9711 24.5771 22.0271 24.6305 22.0966C24.6839 22.166 24.7203 22.247 24.7369 22.333C24.7535 22.4191 24.7497 22.5078 24.7259 22.5921C23.8829 25.4257 21.1963 27.502 18.0027 27.502Z" fill="black"/>
<path d="M11.2731 22.5921L9.34811 23.1348L9.35262 23.1508L9.35741 23.1668L11.2731 22.5921ZM11.8229 21.877L11.7929 23.8768L11.8079 23.877H11.8229V21.877ZM24.1761 21.877V23.877H24.1911L24.2062 23.8768L24.1761 21.877ZM24.7259 22.5921L26.6429 23.1624L26.647 23.1487L26.6509 23.1348L24.7259 22.5921ZM18.0027 25.502C15.6879 25.502 13.7837 24.0008 13.1887 22.0174L9.35741 23.1668C10.4625 26.8505 13.9302 29.502 18.0027 29.502V25.502ZM13.198 22.0494C13.2588 22.2649 13.2684 22.4916 13.226 22.7114L9.29824 21.9546C9.22272 22.3465 9.2398 22.7507 9.34811 23.1348L13.198 22.0494ZM13.226 22.7114C13.1836 22.9313 13.0905 23.1382 12.954 23.3157L9.78306 20.8775C9.53976 21.1939 9.37375 21.5627 9.29824 21.9546L13.226 22.7114ZM12.954 23.3157C12.8175 23.4932 12.6415 23.6363 12.4399 23.7338L10.6995 20.1322C10.3402 20.3059 10.0263 20.5611 9.78306 20.8775L12.954 23.3157ZM12.4399 23.7338C12.2383 23.8312 12.0167 23.8802 11.7929 23.8768L11.8529 19.8772C11.4539 19.8712 11.0589 19.9586 10.6995 20.1322L12.4399 23.7338ZM11.8229 23.877H24.1761V19.877H11.8229V23.877ZM24.2062 23.8768C23.9823 23.8802 23.7607 23.8312 23.5591 23.7338L25.2995 20.1322C24.9401 19.9586 24.5451 19.8712 24.1461 19.8772L24.2062 23.8768ZM23.5591 23.7338C23.3575 23.6363 23.1815 23.4932 23.045 23.3157L26.216 20.8775C25.9727 20.5611 25.6588 20.3059 25.2995 20.1322L23.5591 23.7338ZM23.045 23.3157C22.9085 23.1382 22.8154 22.9313 22.773 22.7114L26.7008 21.9546C26.6253 21.5627 26.4592 21.1939 26.216 20.8775L23.045 23.3157ZM22.773 22.7114C22.7307 22.4916 22.7402 22.2649 22.801 22.0494L26.6509 23.1348C26.7592 22.7507 26.7763 22.3465 26.7008 21.9546L22.773 22.7114ZM22.809 22.0218C22.2203 24.0003 20.3186 25.502 18.0027 25.502V29.502C22.0739 29.502 25.5455 26.8511 26.6429 23.1624L22.809 22.0218Z" fill="#2C3137" mask="url(#path-2-inside-1_589_4915)"/>
<path d="M23.75 16.8125C23.75 17.1922 23.4422 17.5 23.0625 17.5C22.6828 17.5 22.375 17.1922 22.375 16.8125C22.375 16.4328 22.6828 16.125 23.0625 16.125C23.4422 16.125 23.75 16.4328 23.75 16.8125Z" fill="black" stroke="#2C3137" stroke-width="2"/>
<path d="M18 33.1249C26.0772 33.1249 32.625 26.5771 32.625 18.4999C32.625 10.4227 26.0772 3.87491 18 3.87491C9.92283 3.87491 3.375 10.4227 3.375 18.4999C3.375 26.5771 9.92283 33.1249 18 33.1249Z" stroke="#2C3137" stroke-width="2" stroke-miterlimit="10"/>
</svg>
