<svg width="16" height="17" viewBox="0 0 16 17" fill="none" xmlns="http://www.w3.org/2000/svg">
<path d="M5.99994 14.5005H9.99994" stroke="black" stroke-linecap="round" stroke-linejoin="round"/>
<path d="M11.9999 7.00049V8.00049C11.9999 10.2005 10.1999 12.0005 7.99994 12.0005C5.79994 12.0005 3.99994 10.2005 3.99994 8.00049V7.00049" stroke="black" stroke-linecap="round" stroke-linejoin="round"/>
<path d="M7.99988 12.001V14.501" stroke="black" stroke-linecap="round" stroke-linejoin="round"/>
<path d="M7.99996 2.50003C7.73695 2.4987 7.47628 2.54953 7.23303 2.64957C6.98978 2.74961 6.76878 2.89688 6.5828 3.08286C6.39681 3.26884 6.24955 3.48984 6.14951 3.73309C6.04947 3.97634 5.99864 4.23701 5.99996 4.50002V7.96877C5.99996 9.06877 6.90621 10 7.99996 10C9.09371 10 9.99996 9.09377 9.99996 7.96877V4.50002C9.99996 3.37503 9.12496 2.50003 7.99996 2.50003Z" stroke="black" stroke-linecap="round" stroke-linejoin="round"/>
</svg>
