<svg width="18" height="18" viewBox="0 0 18 18" fill="none" xmlns="http://www.w3.org/2000/svg">
<path d="M7.7727 2.25049C6.68041 2.25049 5.61265 2.57439 4.70445 3.18123C3.79625 3.78807 3.08839 4.6506 2.67039 5.65974C2.25239 6.66888 2.14303 7.77931 2.35612 8.85061C2.56921 9.9219 3.0952 10.906 3.86756 11.6783C4.63992 12.4507 5.62397 12.9767 6.69527 13.1898C7.76657 13.4029 8.877 13.2935 9.88614 12.8755C10.8953 12.4575 11.7578 11.7496 12.3646 10.8414C12.9715 9.93322 13.2954 8.86547 13.2954 7.77318C13.2953 6.3085 12.7134 4.90384 11.6777 3.86815C10.642 2.83247 9.23738 2.25058 7.7727 2.25049V2.25049Z" stroke="black" stroke-width="1.5" stroke-miterlimit="10"/>
<path d="M11.8931 11.8931L15.7501 15.7501" stroke="black" stroke-width="1.5" stroke-miterlimit="10" stroke-linecap="round"/>
</svg>
