<svg width="16" height="16" viewBox="0 0 16 16" fill="none" xmlns="http://www.w3.org/2000/svg">
<path d="M6.90906 2.00049C5.93814 2.00049 4.98903 2.2884 4.18173 2.82781C3.37444 3.36723 2.74524 4.13392 2.37368 5.03093C2.00213 5.92795 1.90491 6.915 2.09433 7.86726C2.28375 8.81952 2.75129 9.69424 3.43783 10.3808C4.12438 11.0673 4.99909 11.5349 5.95135 11.7243C6.90362 11.9137 7.89067 11.8165 8.78768 11.4449C9.68469 11.0734 10.4514 10.4442 10.9908 9.63688C11.5302 8.82959 11.8181 7.88047 11.8181 6.90955C11.818 5.60761 11.3008 4.35902 10.3802 3.43841C9.45959 2.5178 8.211 2.00057 6.90906 2.00049V2.00049Z" stroke="black" stroke-width="1.5" stroke-miterlimit="10"/>
<path d="M10.5715 10.5718L13.9999 14.0002" stroke="black" stroke-width="1.5" stroke-miterlimit="10" stroke-linecap="round"/>
</svg>
