<svg width="16" height="17" viewBox="0 0 16 17" fill="none" xmlns="http://www.w3.org/2000/svg">
<path d="M10.0001 5.0625C10.0001 5.0625 10.7614 4.6875 8.00012 4.6875C7.01122 4.6875 6.04452 4.98074 5.22227 5.53015C4.40003 6.07956 3.75916 6.86045 3.38073 7.77408C3.00229 8.68771 2.90327 9.69304 3.0962 10.6629C3.28912 11.6329 3.76533 12.5238 4.46459 13.223C5.16385 13.9223 6.05477 14.3985 7.02467 14.5914C7.99458 14.7843 8.99991 14.6853 9.91354 14.3069C10.8272 13.9285 11.6081 13.2876 12.1575 12.4653C12.7069 11.6431 13.0001 10.6764 13.0001 9.6875" stroke="white" stroke-miterlimit="10" stroke-linecap="square"/>
<path d="M8.00006 2.31299L10.5001 4.81299L8.00006 7.31299" fill="white"/>
<path d="M8.00006 2.31299L10.5001 4.81299L8.00006 7.31299" stroke="white" stroke-miterlimit="10" stroke-linecap="square"/>
</svg>
