<svg width="25" height="24" viewBox="0 0 25 24" fill="none" xmlns="http://www.w3.org/2000/svg">
<path d="M15.2783 1.54688L5 14.25H11L9.52297 22.3701C9.52016 22.3861 9.52087 22.4024 9.52507 22.4181C9.52927 22.4337 9.53684 22.4482 9.54725 22.4606C9.55766 22.473 9.57067 22.4829 9.58534 22.4897C9.60002 22.4965 9.61601 22.5 9.63219 22.5V22.5C9.6494 22.5 9.66637 22.4959 9.68175 22.4882C9.69713 22.4805 9.71049 22.4693 9.72078 22.4555L20 9.75H14L15.4841 1.62891C15.4861 1.61273 15.4846 1.59631 15.4797 1.58074C15.4749 1.56518 15.4668 1.55082 15.456 1.53862C15.4452 1.52643 15.4319 1.51668 15.417 1.51002C15.4021 1.50336 15.386 1.49994 15.3697 1.5V1.5C15.3518 1.50007 15.3343 1.50435 15.3184 1.5125C15.3025 1.52064 15.2887 1.53242 15.2783 1.54688V1.54688Z" stroke="#2398FF" stroke-width="1.5" stroke-linecap="round" stroke-linejoin="round"/>
</svg>
