<svg width="25" height="24" viewBox="0 0 25 24" fill="none" xmlns="http://www.w3.org/2000/svg">
<path d="M19.6249 2.99902H5.3749C4.67932 3.001 4.01279 3.2782 3.52093 3.77005C3.02908 4.26191 2.75188 4.92844 2.7499 5.62402V14.624C2.75188 15.3196 3.02908 15.9861 3.52093 16.478C4.01279 16.9698 4.67932 17.247 5.3749 17.249H7.2499V20.999L11.643 17.3362C11.7105 17.2799 11.7956 17.249 11.8835 17.249H19.6249C20.3205 17.247 20.987 16.9698 21.4789 16.478C21.9707 15.9861 22.2479 15.3196 22.2499 14.624V5.62402C22.2479 4.92844 21.9707 4.26191 21.4789 3.77005C20.987 3.2782 20.3205 3.001 19.6249 2.99902V2.99902Z" stroke="white" stroke-width="1.5" stroke-linejoin="round"/>
</svg>
