<svg width="25" height="24" viewBox="0 0 25 24" fill="none" xmlns="http://www.w3.org/2000/svg">
<path d="M20 10.3718V19.5007C20 20.0975 19.7629 20.6698 19.341 21.0917C18.919 21.5137 18.3467 21.7507 17.75 21.7507H7.25C6.65326 21.7507 6.08097 21.5137 5.65901 21.0917C5.23705 20.6698 5 20.0975 5 19.5007V4.50073C5 3.90399 5.23705 3.3317 5.65901 2.90974C6.08097 2.48779 6.65326 2.25073 7.25 2.25073H11.8789C12.2766 2.25079 12.658 2.40878 12.9392 2.68995L19.5608 9.31151C19.8419 9.59275 19.9999 9.97414 20 10.3718Z" stroke="white" stroke-width="1.5" stroke-linejoin="round"/>
<path d="M12.5001 2.62573V8.25073C12.5001 8.64855 12.6581 9.03008 12.9394 9.31139C13.2207 9.59269 13.6022 9.75073 14.0001 9.75073H19.6251" stroke="white" stroke-width="1.5" stroke-linecap="round" stroke-linejoin="round"/>
<path d="M8.74991 13.5007H16.2499" stroke="white" stroke-width="1.5" stroke-linecap="round" stroke-linejoin="round"/>
<path d="M8.74991 17.251H16.2499" stroke="white" stroke-width="1.5" stroke-linecap="round" stroke-linejoin="round"/>
</svg>
