<svg width="25" height="24" viewBox="0 0 25 24" fill="none" xmlns="http://www.w3.org/2000/svg">
<path d="M10.0625 2.24902H3.6875C3.16973 2.24902 2.75 2.66876 2.75 3.18652V9.56152C2.75 10.0793 3.16973 10.499 3.6875 10.499H10.0625C10.5803 10.499 11 10.0793 11 9.56152V3.18652C11 2.66876 10.5803 2.24902 10.0625 2.24902Z" stroke="#2398FF" stroke-width="1.5" stroke-linecap="round" stroke-linejoin="round"/>
<path d="M21.3125 2.24902H14.9375C14.4197 2.24902 14 2.66876 14 3.18652V9.56152C14 10.0793 14.4197 10.499 14.9375 10.499H21.3125C21.8303 10.499 22.25 10.0793 22.25 9.56152V3.18652C22.25 2.66876 21.8303 2.24902 21.3125 2.24902Z" stroke="#2398FF" stroke-width="1.5" stroke-linecap="round" stroke-linejoin="round"/>
<path d="M10.0625 13.4995H3.6875C3.16973 13.4995 2.75 13.9192 2.75 14.437V20.812C2.75 21.3298 3.16973 21.7495 3.6875 21.7495H10.0625C10.5803 21.7495 11 21.3298 11 20.812V14.437C11 13.9192 10.5803 13.4995 10.0625 13.4995Z" stroke="#2398FF" stroke-width="1.5" stroke-linecap="round" stroke-linejoin="round"/>
<path d="M21.3125 13.4995H14.9375C14.4197 13.4995 14 13.9192 14 14.437V20.812C14 21.3298 14.4197 21.7495 14.9375 21.7495H21.3125C21.8303 21.7495 22.25 21.3298 22.25 20.812V14.437C22.25 13.9192 21.8303 13.4995 21.3125 13.4995Z" stroke="#2398FF" stroke-width="1.5" stroke-linecap="round" stroke-linejoin="round"/>
</svg>
