<svg width="25" height="24" viewBox="0 0 25 24" fill="none" xmlns="http://www.w3.org/2000/svg">
<path d="M10.0624 2.24902H3.6874C3.16963 2.24902 2.7499 2.66876 2.7499 3.18652V9.56152C2.7499 10.0793 3.16963 10.499 3.6874 10.499H10.0624C10.5802 10.499 10.9999 10.0793 10.9999 9.56152V3.18652C10.9999 2.66876 10.5802 2.24902 10.0624 2.24902Z" stroke="white" stroke-width="1.5" stroke-linecap="round" stroke-linejoin="round"/>
<path d="M21.3124 2.24902H14.9374C14.4196 2.24902 13.9999 2.66876 13.9999 3.18652V9.56152C13.9999 10.0793 14.4196 10.499 14.9374 10.499H21.3124C21.8301 10.499 22.2499 10.0793 22.2499 9.56152V3.18652C22.2499 2.66876 21.8301 2.24902 21.3124 2.24902Z" stroke="white" stroke-width="1.5" stroke-linecap="round" stroke-linejoin="round"/>
<path d="M10.0624 13.4995H3.6874C3.16963 13.4995 2.7499 13.9192 2.7499 14.437V20.812C2.7499 21.3298 3.16963 21.7495 3.6874 21.7495H10.0624C10.5802 21.7495 10.9999 21.3298 10.9999 20.812V14.437C10.9999 13.9192 10.5802 13.4995 10.0624 13.4995Z" stroke="white" stroke-width="1.5" stroke-linecap="round" stroke-linejoin="round"/>
<path d="M21.3124 13.4995H14.9374C14.4196 13.4995 13.9999 13.9192 13.9999 14.437V20.812C13.9999 21.3298 14.4196 21.7495 14.9374 21.7495H21.3124C21.8301 21.7495 22.2499 21.3298 22.2499 20.812V14.437C22.2499 13.9192 21.8301 13.4995 21.3124 13.4995Z" stroke="white" stroke-width="1.5" stroke-linecap="round" stroke-linejoin="round"/>
</svg>
