<svg width="25" height="24" viewBox="0 0 25 24" fill="none" xmlns="http://www.w3.org/2000/svg">
<path d="M4.25 9.93701V20.9995C4.25 21.1984 4.32902 21.3892 4.46967 21.5298C4.61032 21.6705 4.80109 21.7495 5 21.7495H9.5V15.3745C9.5 15.0761 9.61852 14.79 9.8295 14.579C10.0405 14.368 10.3266 14.2495 10.625 14.2495H14.375C14.6734 14.2495 14.9595 14.368 15.1705 14.579C15.3815 14.79 15.5 15.0761 15.5 15.3745V21.7495H20C20.1989 21.7495 20.3897 21.6705 20.5303 21.5298C20.671 21.3892 20.75 21.1984 20.75 20.9995V9.93701" stroke="#2398FF" stroke-width="1.5" stroke-linecap="round" stroke-linejoin="round"/>
<path d="M23 12.0009L13.0105 2.43839C12.7761 2.19089 12.2281 2.18808 11.9895 2.43839L2 12.0009" stroke="#2398FF" stroke-width="1.5" stroke-linecap="round" stroke-linejoin="round"/>
<path d="M19.25 8.39038V2.99976H17V6.23413" stroke="#2398FF" stroke-width="1.5" stroke-linecap="round" stroke-linejoin="round"/>
</svg>
