<svg width="25" height="24" viewBox="0 0 25 24" fill="none" xmlns="http://www.w3.org/2000/svg">
<path d="M4.25003 9.93701V20.9995C4.25003 21.1984 4.32905 21.3892 4.4697 21.5298C4.61035 21.6705 4.80112 21.7495 5.00003 21.7495H9.50003V15.3745C9.50003 15.0761 9.61856 14.79 9.82953 14.579C10.0405 14.368 10.3267 14.2495 10.625 14.2495H14.375C14.6734 14.2495 14.9595 14.368 15.1705 14.579C15.3815 14.79 15.5 15.0761 15.5 15.3745V21.7495H20C20.1989 21.7495 20.3897 21.6705 20.5304 21.5298C20.671 21.3892 20.75 21.1984 20.75 20.9995V9.93701" stroke="white" stroke-width="1.5" stroke-linecap="round" stroke-linejoin="round"/>
<path d="M23 12.0009L13.0105 2.43839C12.7761 2.19089 12.2281 2.18808 11.9895 2.43839L2 12.0009" stroke="white" stroke-width="1.5" stroke-linecap="round" stroke-linejoin="round"/>
<path d="M19.2499 8.39038V2.99976H16.9999V6.23413" stroke="white" stroke-width="1.5" stroke-linecap="round" stroke-linejoin="round"/>
</svg>
