<svg width="25" height="24" viewBox="0 0 25 24" fill="none" xmlns="http://www.w3.org/2000/svg">
<path fill-rule="evenodd" clip-rule="evenodd" d="M11.5 5.73901V8H10.5C7.329 8 4.651 10.108 3.79 13H2.5V17H3.79C4.651 19.892 7.329 22 10.5 22C11.808 22 13.192 22 14.5 22C17.671 22 20.349 19.892 21.21 17H22.5V13H21.21C20.349 10.108 17.671 8 14.5 8H13.5V5.745C14.103 5.399 14.509 4.749 14.509 4.005C14.509 2.898 13.611 2 12.505 2C11.398 2 10.5 2.898 10.5 4.005C10.5 4.745 10.902 5.39201 11.5 5.73901ZM5.5 15C5.5 12.239 7.739 10 10.5 10C11.808 10 13.192 10 14.5 10C17.261 10 19.5 12.239 19.5 15C19.5 15.004 19.5 15.009 19.5 15.013C19.5 17.761 17.261 20 14.5 20C13.192 20 11.808 20 10.5 20C7.739 20 5.5 17.761 5.5 15ZM14.5 14V16H16.5V14H14.5ZM8.5 14V16H10.5V14H8.5Z" fill="#2398FF"/>
</svg>
