<svg width="25" height="25" viewBox="0 0 25 25" fill="none" xmlns="http://www.w3.org/2000/svg">
<path d="M9.375 21.8757H15.625" stroke="black" stroke-width="1.5" stroke-linecap="round" stroke-linejoin="round"/>
<path d="M18.75 10.1571V11.7196C18.75 15.1571 15.9375 17.9696 12.5 17.9696C9.0625 17.9696 6.25 15.1571 6.25 11.7196V10.1571" stroke="black" stroke-width="1.5" stroke-linecap="round" stroke-linejoin="round"/>
<path d="M12.5 17.9702V21.8765" stroke="black" stroke-width="1.5" stroke-linecap="round" stroke-linejoin="round"/>
<path d="M12.5 3.12541C12.0891 3.12334 11.6818 3.20275 11.3017 3.35907C10.9216 3.51538 10.5763 3.74548 10.2857 4.03608C9.99512 4.32668 9.76501 4.672 9.6087 5.05207C9.45239 5.43215 9.37297 5.83944 9.37504 6.2504V11.6703C9.37504 13.3891 10.7911 14.8442 12.5 14.8442C14.209 14.8442 15.625 13.4281 15.625 11.6703V6.2504C15.625 4.49259 14.2579 3.12541 12.5 3.12541Z" stroke="black" stroke-width="1.5" stroke-linecap="round" stroke-linejoin="round"/>
</svg>
