<svg width="16" height="17" viewBox="0 0 16 17" fill="none" xmlns="http://www.w3.org/2000/svg">
<path d="M6 14.5005H10" stroke="#2398FF" stroke-linecap="round" stroke-linejoin="round"/>
<path d="M12 7.00055V8.00055C12 10.2005 10.2 12.0005 8 12.0005C5.8 12.0005 4 10.2005 4 8.00055V7.00055" stroke="#2398FF" stroke-linecap="round" stroke-linejoin="round"/>
<path d="M7.99988 12.0009V14.5009" stroke="#2398FF" stroke-linecap="round" stroke-linejoin="round"/>
<path d="M8.00003 2.50024C7.73701 2.49891 7.47634 2.54974 7.23309 2.64978C6.98984 2.74982 6.76884 2.89709 6.58286 3.08307C6.39688 3.26905 6.24961 3.49006 6.14957 3.73331C6.04953 3.97656 5.9987 4.23722 6.00003 4.50024V7.96899C6.00003 9.06899 6.90628 10.0002 8.00003 10.0002C9.09377 10.0002 10 9.09399 10 7.96899V4.50024C10 3.37524 9.12502 2.50024 8.00003 2.50024Z" stroke="#2398FF" stroke-linecap="round" stroke-linejoin="round"/>
</svg>
