<svg width="16" height="17" viewBox="0 0 16 17" fill="none" xmlns="http://www.w3.org/2000/svg">
<path d="M12 7.50061V13.2506C12 13.4148 11.9677 13.5773 11.9048 13.729C11.842 13.8806 11.75 14.0184 11.6339 14.1345C11.5178 14.2506 11.38 14.3426 11.2284 14.4055C11.0767 14.4683 10.9141 14.5006 10.75 14.5006H3.25C2.91848 14.5006 2.60054 14.3689 2.36612 14.1345C2.1317 13.9001 2 13.5821 2 13.2506V5.75061C2 5.41909 2.1317 5.10115 2.36612 4.86673C2.60054 4.63231 2.91848 4.50061 3.25 4.50061H8.48375" stroke="#2398FF" stroke-linecap="round" stroke-linejoin="round"/>
<path d="M14.3731 2.1645C14.3274 2.11432 14.2721 2.07393 14.2104 2.04575C14.1486 2.01758 14.0819 2.00221 14.014 2.00057C13.9462 1.99894 13.8788 2.01107 13.8157 2.03624C13.7527 2.0614 13.6955 2.09908 13.6475 2.147L13.2609 2.53169C13.2141 2.57857 13.1877 2.64213 13.1877 2.7084C13.1877 2.77468 13.2141 2.83824 13.2609 2.88512L13.6153 3.23887C13.6385 3.26221 13.6661 3.28073 13.6965 3.29337C13.7269 3.306 13.7595 3.31251 13.7925 3.31251C13.8254 3.31251 13.858 3.306 13.8884 3.29337C13.9188 3.28073 13.9464 3.26221 13.9697 3.23887L14.3465 2.86387C14.5372 2.67356 14.555 2.36356 14.3731 2.1645Z" fill="#2398FF"/>
<path d="M12.4794 3.31354L6.83816 8.94479C6.80396 8.97885 6.7791 9.02115 6.76598 9.0676L6.50504 9.84479C6.49879 9.86588 6.49834 9.88826 6.50376 9.90958C6.50917 9.9309 6.52023 9.95036 6.53579 9.96592C6.55134 9.98147 6.5708 9.99254 6.59212 9.99795C6.61344 10.0034 6.63583 10.0029 6.65691 9.99666L7.43348 9.73573C7.47993 9.7226 7.52222 9.69774 7.55629 9.66354L13.1875 4.02167C13.2396 3.96901 13.2689 3.89793 13.2689 3.82385C13.2689 3.74978 13.2396 3.6787 13.1875 3.62604L12.8766 3.31354C12.8239 3.26097 12.7525 3.23145 12.678 3.23145C12.6035 3.23145 12.5321 3.26097 12.4794 3.31354Z" fill="#2398FF"/>
</svg>
