<svg width="16" height="16" viewBox="0 0 16 16" fill="none" xmlns="http://www.w3.org/2000/svg">
<path d="M12.0001 7.00062V12.7506C12.0001 12.9148 11.9678 13.0773 11.905 13.229C11.8421 13.3806 11.7501 13.5184 11.634 13.6345C11.5179 13.7506 11.3801 13.8427 11.2285 13.9055C11.0768 13.9683 10.9143 14.0006 10.7501 14.0006H3.25012C2.9186 14.0006 2.60066 13.8689 2.36624 13.6345C2.13182 13.4001 2.00012 13.0821 2.00012 12.7506V5.25063C2.00012 4.9191 2.13182 4.60116 2.36624 4.36674C2.60066 4.13232 2.9186 4.00063 3.25012 4.00063H8.48387" stroke="#2398FF" stroke-linecap="round" stroke-linejoin="round"/>
<path d="M14.3732 1.66451C14.3276 1.61434 14.2722 1.57394 14.2105 1.54577C14.1488 1.51759 14.082 1.50222 14.0141 1.50059C13.9463 1.49895 13.8789 1.51108 13.8159 1.53625C13.7529 1.56142 13.6956 1.5991 13.6476 1.64701L13.261 2.0317C13.2142 2.07858 13.1879 2.14214 13.1879 2.20842C13.1879 2.2747 13.2142 2.33826 13.261 2.38514L13.6154 2.73889C13.6386 2.76223 13.6662 2.78075 13.6967 2.79338C13.7271 2.80602 13.7597 2.81252 13.7926 2.81252C13.8255 2.81252 13.8581 2.80602 13.8885 2.79338C13.9189 2.78075 13.9466 2.76223 13.9698 2.73889L14.3467 2.36389C14.5373 2.17358 14.5551 1.86358 14.3732 1.66451Z" fill="#2398FF"/>
<path d="M12.4794 2.81356L6.83816 8.44481C6.80396 8.47887 6.7791 8.52116 6.76598 8.56762L6.50504 9.34481C6.49879 9.36589 6.49834 9.38828 6.50376 9.4096C6.50917 9.43092 6.52023 9.45038 6.53579 9.46593C6.55134 9.48148 6.5708 9.49255 6.59212 9.49796C6.61344 9.50337 6.63583 9.50293 6.65691 9.49668L7.43348 9.23574C7.47993 9.22262 7.52222 9.19776 7.55629 9.16356L13.1875 3.52168C13.2396 3.46903 13.2689 3.39794 13.2689 3.32387C13.2689 3.2498 13.2396 3.17871 13.1875 3.12606L12.8766 2.81356C12.8239 2.76098 12.7525 2.73146 12.678 2.73146C12.6035 2.73146 12.5321 2.76098 12.4794 2.81356V2.81356Z" fill="#2398FF"/>
</svg>
