<svg width="20" height="21" viewBox="0 0 20 21" fill="none" xmlns="http://www.w3.org/2000/svg">
<path d="M3.34279 17.9301H16.6576C16.8739 17.93 17.0864 17.8739 17.2745 17.7671C17.4626 17.6604 17.6197 17.5066 17.7306 17.321C17.8415 17.1353 17.9023 16.9241 17.9071 16.7078C17.9119 16.4916 17.8605 16.2779 17.758 16.0875L11.101 3.72421C10.6287 2.84765 9.3717 2.84765 8.89943 3.72421L2.2424 16.0875C2.13989 16.2779 2.08852 16.4916 2.09333 16.7078C2.09813 16.9241 2.15895 17.1353 2.26983 17.321C2.38071 17.5066 2.53786 17.6604 2.72593 17.7671C2.91399 17.8739 3.12654 17.93 3.34279 17.9301V17.9301Z" stroke="#F2A217" stroke-linecap="round" stroke-linejoin="round"/>
<path d="M9.77579 8.1322L10 12.8978L10.2238 8.13416C10.2252 8.1037 10.2204 8.07329 10.2096 8.04477C10.1988 8.01625 10.1824 7.99023 10.1612 7.96829C10.14 7.94636 10.1146 7.92897 10.0865 7.91719C10.0584 7.90541 10.0281 7.89949 9.99766 7.89978V7.89978C9.96771 7.90008 9.93812 7.90637 9.91064 7.91828C9.88316 7.9302 9.85835 7.9475 9.83767 7.96917C9.81699 7.99083 9.80086 8.01642 9.79023 8.04442C9.7796 8.07243 9.77469 8.10227 9.77579 8.1322V8.1322Z" stroke="#F2A217" stroke-linecap="round" stroke-linejoin="round"/>
<path d="M10 16.0168C9.84548 16.0168 9.69444 15.9709 9.56596 15.8851C9.43749 15.7993 9.33735 15.6772 9.27822 15.5345C9.21909 15.3917 9.20362 15.2347 9.23376 15.0831C9.26391 14.9316 9.33831 14.7924 9.44757 14.6831C9.55683 14.5738 9.69604 14.4994 9.84759 14.4693C9.99913 14.4391 10.1562 14.4546 10.299 14.5137C10.4417 14.5729 10.5637 14.673 10.6496 14.8015C10.7354 14.93 10.7812 15.081 10.7812 15.2355C10.7812 15.4427 10.6989 15.6414 10.5524 15.7879C10.4059 15.9345 10.2072 16.0168 10 16.0168Z" fill="#F2A217"/>
</svg>
