<svg width="17" height="17" viewBox="0 0 17 17" fill="none" xmlns="http://www.w3.org/2000/svg">
<path d="M13 15.4997C12.8777 15.5001 12.7595 15.4556 12.6678 15.3747L8.5 11.6688L4.33219 15.3747C4.26006 15.4388 4.17093 15.4807 4.07553 15.4953C3.98014 15.5099 3.88256 15.4965 3.79458 15.4569C3.7066 15.4172 3.63197 15.353 3.5797 15.2719C3.52743 15.1907 3.49975 15.0962 3.5 14.9997V3.49972C3.50058 2.96947 3.71148 2.4611 4.08643 2.08615C4.46137 1.7112 4.96975 1.5003 5.5 1.49973H11.5C12.0303 1.5003 12.5386 1.7112 12.9136 2.08615C13.2885 2.4611 13.4994 2.96947 13.5 3.49972V14.9997C13.5 15.1323 13.4473 15.2595 13.3536 15.3533C13.2598 15.447 13.1326 15.4997 13 15.4997Z" fill="black"/>
</svg>
