<svg width="24" height="24" viewBox="0 0 24 24" fill="none" xmlns="http://www.w3.org/2000/svg">
<path d="M19.5029 12.7504C19.5029 11.267 19.0631 9.81697 18.2389 8.58361C17.4148 7.35024 16.2435 6.38895 14.8731 5.82129C13.5026 5.25363 11.9946 5.10511 10.5398 5.3945C9.0849 5.68388 7.74852 6.39819 6.69963 7.44708C5.65074 8.49598 4.93643 9.83235 4.64704 11.2872C4.35765 12.7421 4.50618 14.2501 5.07384 15.6205C5.64149 16.991 6.60279 18.1623 7.83615 18.9864C9.06952 19.8105 10.5196 20.2504 12.0029 20.2504C13.9921 20.2504 15.8997 19.4602 17.3062 18.0537C18.7128 16.6472 19.5029 14.7395 19.5029 12.7504Z" stroke="#2398FF" stroke-width="1.5" stroke-miterlimit="10"/>
<path d="M6.66153 4.27574C6.26796 3.93896 5.76765 3.75275 5.24966 3.75027L5.11887 3.75402C3.92122 3.82621 2.99966 4.87527 3.00294 6.1409C3.00294 6.76012 3.22138 7.04887 3.51294 7.4173C3.53105 7.44098 3.55392 7.46059 3.58008 7.47488C3.60624 7.48918 3.63511 7.49782 3.66481 7.50027H3.70606C3.72929 7.49986 3.75211 7.4941 3.77276 7.48345C3.7934 7.47281 3.81132 7.45755 3.82513 7.43887L6.67372 4.6409C6.69804 4.6163 6.71704 4.58696 6.72954 4.5547C6.74204 4.52245 6.74777 4.48796 6.74637 4.4534C6.74519 4.41955 6.73705 4.3863 6.72245 4.35574C6.70786 4.32517 6.68712 4.29794 6.66153 4.27574V4.27574Z" stroke="#2398FF" stroke-width="1.5" stroke-miterlimit="10"/>
<path d="M17.338 4.27574C17.7316 3.93896 18.2319 3.75275 18.7499 3.75027L18.8806 3.75402C20.0783 3.82621 20.9999 4.87527 20.9966 6.1409C20.9966 6.76012 20.7781 7.04887 20.4866 7.4173C20.4684 7.44089 20.4455 7.46042 20.4194 7.47463C20.3932 7.48884 20.3644 7.49741 20.3347 7.4998H20.2934C20.2702 7.49939 20.2474 7.49363 20.2268 7.48299C20.2061 7.47234 20.1882 7.45708 20.1744 7.4384L17.3258 4.6409C17.3015 4.6163 17.2825 4.58696 17.27 4.5547C17.2575 4.52245 17.2517 4.48796 17.2531 4.4534C17.2543 4.41955 17.2625 4.3863 17.2771 4.35574C17.2917 4.32517 17.3124 4.29794 17.338 4.27574V4.27574Z" stroke="#2398FF" stroke-width="1.5" stroke-miterlimit="10"/>
<path d="M12.0029 7.50055V12.7505H8.25293" stroke="#2398FF" stroke-width="1.5" stroke-linecap="round" stroke-linejoin="round"/>
<path d="M19.5029 20.2504L17.6279 18.3754" stroke="#2398FF" stroke-width="1.5" stroke-linecap="round" stroke-linejoin="round"/>
<path d="M4.50293 20.2504L6.37793 18.3754" stroke="#2398FF" stroke-width="1.5" stroke-linecap="round" stroke-linejoin="round"/>
</svg>
