<svg width="24" height="24" viewBox="0 0 24 24" fill="none" xmlns="http://www.w3.org/2000/svg">
<path d="M21 12.0001C21 7.03131 16.9687 3.00006 12 3.00006C7.03125 3.00006 3 7.03131 3 12.0001C3 16.9688 7.03125 21.0001 12 21.0001C16.9687 21.0001 21 16.9688 21 12.0001Z" stroke="#2398FF" stroke-width="1.5" stroke-miterlimit="10"/>
<path d="M11.7307 7.78407L11.9998 13.5005L12.2684 7.78407C12.2701 7.74753 12.2642 7.71103 12.2513 7.67681C12.2384 7.64258 12.2186 7.61136 12.1932 7.58503C12.1678 7.55871 12.1373 7.53784 12.1036 7.52371C12.0698 7.50957 12.0336 7.50246 11.997 7.50282V7.50282C11.9608 7.50316 11.9251 7.51078 11.892 7.52523C11.8589 7.53967 11.829 7.56065 11.8041 7.5869C11.7793 7.61315 11.76 7.64414 11.7474 7.67801C11.7348 7.71189 11.7291 7.74796 11.7307 7.78407V7.78407Z" stroke="#2398FF" stroke-width="1.5" stroke-linecap="round" stroke-linejoin="round"/>
<path d="M12 17.2456C11.8146 17.2456 11.6333 17.1906 11.4792 17.0876C11.325 16.9846 11.2048 16.8382 11.1339 16.6669C11.0629 16.4956 11.0443 16.3071 11.0805 16.1252C11.1167 15.9434 11.206 15.7763 11.3371 15.6452C11.4682 15.5141 11.6352 15.4248 11.8171 15.3886C11.999 15.3524 12.1875 15.371 12.3588 15.442C12.5301 15.5129 12.6765 15.6331 12.7795 15.7873C12.8825 15.9414 12.9375 16.1227 12.9375 16.3081C12.9375 16.5567 12.8387 16.7952 12.6629 16.971C12.4871 17.1468 12.2486 17.2456 12 17.2456Z" fill="#2398FF"/>
</svg>
