<svg width="24" height="24" viewBox="0 0 24 24" fill="none" xmlns="http://www.w3.org/2000/svg">
<path d="M12 2.24966C8.27344 2.24966 5.25 5.12732 5.25 8.67154C5.25 12.7497 9.75 19.2123 11.4023 21.4445C11.4709 21.5387 11.5608 21.6154 11.6647 21.6683C11.7686 21.7211 11.8835 21.7487 12 21.7487C12.1165 21.7487 12.2314 21.7211 12.3353 21.6683C12.4392 21.6154 12.5291 21.5387 12.5977 21.4445C14.25 19.2132 18.75 12.7529 18.75 8.67154C18.75 5.12732 15.7266 2.24966 12 2.24966Z" stroke="#2398FF" stroke-width="1.5" stroke-linecap="round" stroke-linejoin="round"/>
<path d="M12 11.25C13.2426 11.25 14.25 10.2426 14.25 8.99997C14.25 7.75733 13.2426 6.74997 12 6.74997C10.7574 6.74997 9.75 7.75733 9.75 8.99997C9.75 10.2426 10.7574 11.25 12 11.25Z" stroke="#2398FF" stroke-width="1.5" stroke-linecap="round" stroke-linejoin="round"/>
</svg>
