<svg width="24" height="24" viewBox="0 0 24 24" fill="none" xmlns="http://www.w3.org/2000/svg">
<path d="M5.29321 6.00084C3.83784 7.62629 3.02301 9.72541 3.00056 11.9071C2.94524 16.8922 7.0154 20.9915 12.0006 21.0008C16.9787 21.0102 21.0005 16.9775 21.0005 12.0008C21.0005 7.10052 17.0841 3.11287 12.2115 3.00084C12.1841 2.99996 12.1567 3.00461 12.1312 3.01451C12.1056 3.02442 12.0822 3.03937 12.0625 3.05849C12.0429 3.07761 12.0272 3.10049 12.0166 3.12578C12.0059 3.15107 12.0005 3.17824 12.0006 3.20568V7.12584" stroke="#2398FF" stroke-width="1.5" stroke-linecap="round" stroke-linejoin="round"/>
<path d="M10.9397 13.0614L7.23658 7.76451C7.18534 7.69113 7.16158 7.60205 7.16944 7.51289C7.17731 7.42373 7.2163 7.34019 7.27959 7.2769C7.34288 7.21362 7.42642 7.17462 7.51557 7.16676C7.60473 7.15889 7.69381 7.18266 7.7672 7.23389L13.0641 10.937C13.389 11.171 13.6087 11.5235 13.6757 11.9182C13.7427 12.313 13.6516 12.7182 13.4221 13.0463C13.1927 13.3744 12.8433 13.599 12.4495 13.6715C12.0557 13.7439 11.6492 13.6585 11.318 13.4336C11.1715 13.3321 11.0436 13.2062 10.9397 13.0614Z" fill="#2398FF"/>
</svg>
