<svg width="16" height="17" viewBox="0 0 16 17" fill="none" xmlns="http://www.w3.org/2000/svg">
<path d="M10 5.06268C10 5.06268 10.7613 4.68768 8 4.68768C7.0111 4.68768 6.0444 4.98093 5.22215 5.53033C4.39991 6.07974 3.75904 6.86063 3.3806 7.77426C3.00217 8.6879 2.90315 9.69323 3.09608 10.6631C3.289 11.633 3.76521 12.524 4.46447 13.2232C5.16373 13.9225 6.05465 14.3987 7.02455 14.5916C7.99446 14.7845 8.99979 14.6855 9.91342 14.3071C10.827 13.9286 11.6079 13.2878 12.1573 12.4655C12.7068 11.6433 13 10.6766 13 9.68768" stroke="white" stroke-miterlimit="10" stroke-linecap="square"/>
<path d="M8 2.31299L10.5 4.81299L8 7.31299" fill="white"/>
<path d="M8 2.31299L10.5 4.81299L8 7.31299" stroke="white" stroke-miterlimit="10" stroke-linecap="square"/>
</svg>
