<svg width="17" height="16" viewBox="0 0 17 16" fill="none" xmlns="http://www.w3.org/2000/svg">
<g clip-path="url(#clip0_1109_9030)">
<path d="M11.5001 3.99999V11.6667C11.5001 13.14 10.3067 14.3333 8.83341 14.3333C7.36008 14.3333 6.16675 13.14 6.16675 11.6667V3.33332C6.16675 2.41332 6.91341 1.66666 7.83341 1.66666C8.75341 1.66666 9.50008 2.41332 9.50008 3.33332V10.3333C9.50008 10.5101 9.42984 10.6797 9.30482 10.8047C9.17979 10.9298 9.01023 11 8.83341 11C8.6566 11 8.48703 10.9298 8.36201 10.8047C8.23699 10.6797 8.16675 10.5101 8.16675 10.3333V3.99999H7.16675V10.3333C7.16675 11.2533 7.91341 12 8.83341 12C9.75341 12 10.5001 11.2533 10.5001 10.3333V3.33332C10.5001 1.85999 9.30675 0.666656 7.83341 0.666656C6.36008 0.666656 5.16675 1.85999 5.16675 3.33332V11.6667C5.16675 13.6933 6.81008 15.3333 8.83341 15.3333C10.8567 15.3333 12.5001 13.6933 12.5001 11.6667V3.99999H11.5001Z" fill="#2398FF"/>
</g>
<defs>
<clipPath id="clip0_1109_9030">
<rect width="16" height="16" fill="white" transform="translate(0.5)"/>
</clipPath>
</defs>
</svg>
