<svg width="111" height="32" viewBox="0 0 111 32" fill="none" xmlns="http://www.w3.org/2000/svg">
<path fill-rule="evenodd" clip-rule="evenodd" d="M6.4201 19.4794C8.11186 22.3925 11.1022 25.3656 15.7843 28.0521C9.8598 29.9953 5.46188 28.6787 2.41538 24.5657C-0.743457 19.0794 -0.687285 13.3665 1.90653 8.28016C2.07505 7.99351 2.30304 7.7102 2.47155 7.42355C3.42978 6.56694 4.16332 5.99365 4.95302 5.59368C8.73306 3.59382 11.3269 6.50695 14.1487 8.68013L12.9658 8.73679C10.0316 7.70686 7.71866 7.99351 6.31106 9.48007C3.77011 12.1632 4.78451 16.6229 6.4201 19.4794Z" fill="#42CEFE"/>
<path fill-rule="evenodd" clip-rule="evenodd" d="M20.9715 24.9657C21.9859 24.1091 22.888 23.0225 23.7339 21.8226C24.8044 20.2793 25.201 18.5095 27.0612 17.8795C27.9633 17.5929 28.8092 17.7095 29.4865 18.1095C30.3324 18.6794 30.8974 19.766 30.6694 21.3659C30.5009 22.5658 30.1044 23.1358 29.4865 24.1657C25.0291 31.0819 17.36 33.8817 9.5191 30.6819C6.41974 29.3654 4.10679 27.2522 2.41502 24.5657C4.95267 28.0521 8.33619 29.252 12.2847 28.8521C15.6121 28.5087 18.4901 27.1955 20.9715 24.9657Z" fill="#37B2E1"/>
<path fill-rule="evenodd" clip-rule="evenodd" d="M6.81384 2.85054C4.6694 4.28044 3.08998 6.16364 1.90707 8.33682C4.2762 5.99365 7.94388 5.53702 10.7624 7.48021C11.7206 8.16683 12.5665 9.02344 13.4685 9.82338C15.95 11.9366 16.7397 11.9966 19.1089 9.76672C19.73 9.13676 20.4074 8.45348 21.1971 7.88019C24.1874 5.767 27.6271 6.45029 30.1648 8.96678C25.3175 0.334055 15.1074 -2.80905 6.81384 2.85054Z" fill="url(#paint0_linear_581_3923)"/>
<path fill-rule="evenodd" clip-rule="evenodd" d="M108.392 2.93535C107.358 2.93535 106.704 3.63302 106.759 4.54344C106.704 5.40066 107.358 6.04515 108.392 6.04515C109.426 6.04515 110.08 5.40066 110.08 4.54344C110.026 3.63302 109.426 2.93535 108.392 2.93535ZM109.972 17.2579V7.28093H106.813V17.2579H109.972Z" fill="#292929"/>
<path fill-rule="evenodd" clip-rule="evenodd" d="M105.396 11.3574C105.396 9.0517 104.308 7.06506 100.983 7.06506C99.1329 7.06506 97.7162 7.54686 97.0079 7.92228L97.6077 9.96211C98.2618 9.53349 99.3498 9.21125 100.387 9.21125C101.966 9.21125 102.237 9.96211 102.237 10.4971V10.6035C98.6415 10.6035 96.2996 11.8361 96.2996 14.4109C96.2996 16.019 97.4992 17.4675 99.5668 17.4675C100.767 17.4675 101.8 17.0389 102.454 16.2349H102.509L102.726 17.2548H105.559C105.45 16.7198 105.396 15.8063 105.396 14.8395V11.3574ZM102.346 13.61C102.346 13.8259 102.346 13.9854 102.292 14.145C102.075 14.7895 101.421 15.3245 100.658 15.3245C99.9497 15.3245 99.4041 14.8958 99.4041 14.145C99.4041 12.9123 100.712 12.5369 102.346 12.5369V13.61Z" fill="#292929"/>
<path fill-rule="evenodd" clip-rule="evenodd" d="M93.2492 17.4707C94.3947 17.4707 95.103 16.6666 95.103 15.5935C95.103 14.4673 94.3947 13.7164 93.2492 13.7164C92.1612 13.7164 91.3986 14.5204 91.3986 15.5935C91.3986 16.6666 92.1612 17.4707 93.2492 17.4707Z" fill="#292929"/>
<path fill-rule="evenodd" clip-rule="evenodd" d="M79.5771 7.28098L83.2815 16.4007C83.3899 16.6698 83.4442 16.8293 83.4442 16.9357C83.4442 17.0421 83.3899 17.2048 83.2815 17.3643C82.956 17.8461 82.4647 18.3842 81.9733 18.597C81.4819 18.866 80.9937 19.0788 80.6108 19.132L81.2649 21.76C82.0275 21.6536 83.2272 21.3314 84.3152 20.4178C85.4575 19.3979 86.386 17.7898 87.8569 13.8729L90.1989 7.27472H86.8231L85.6234 12.1553C85.4607 12.7466 85.298 13.4974 85.1321 14.0324H85.0778C84.9693 13.4974 84.7524 12.7466 84.5865 12.1553L83.0613 7.27472H79.5771V7.28098Z" fill="#292929"/>
<path fill-rule="evenodd" clip-rule="evenodd" d="M76.2013 17.258V9.58675H78.2178V7.281H76.2013V6.7992C76.2013 5.7261 76.5841 5.02843 77.6179 5.02843C77.9466 5.02843 78.1635 5.08162 78.3805 5.1348V2.66637C78.0519 2.61318 77.6179 2.56 77.1266 2.56C76.2013 2.56 75.11 2.82905 74.3475 3.57991C73.4222 4.38395 73.0393 5.7261 73.0393 6.90557V7.281H71.7311V9.58675H73.0393V17.258H76.2013Z" fill="#292929"/>
<path fill-rule="evenodd" clip-rule="evenodd" d="M59.9165 7.28098L63.6209 16.4007C63.7293 16.6698 63.7293 16.8293 63.7293 16.9357C63.7293 17.0421 63.6751 17.2048 63.5666 17.3643C63.2954 17.8461 62.7498 18.3842 62.3127 18.597C61.8213 18.866 61.3331 19.0788 60.896 19.132L61.6043 21.76C62.3669 21.6536 63.5092 21.3314 64.6004 20.4178C65.7459 19.3979 66.7254 17.7898 68.1963 13.8729L70.5383 7.27472H67.1625L65.9086 12.1553C65.8001 12.7466 65.6374 13.4974 65.4715 14.0324H65.4172C65.3087 13.4974 65.0918 12.7466 64.9258 12.1553L63.4007 7.27472H59.9165V7.28098Z" fill="#292929"/>
<path fill-rule="evenodd" clip-rule="evenodd" d="M52.5073 17.2579H55.6661V12.2147C55.6661 11.9456 55.6661 11.7329 55.7203 11.517C55.9373 10.5503 56.6998 9.96211 57.8453 9.96211C58.2282 9.96211 58.4994 9.96211 58.7164 10.0685V7.11824C58.4994 7.06506 58.3367 7.06506 58.0623 7.06506C57.0827 7.06506 55.8288 7.70954 55.3374 9.10175H55.2289L55.1204 7.2778H52.453C52.453 8.13503 52.5073 9.10175 52.5073 10.5503V17.2579Z" fill="#292929"/>
<path fill-rule="evenodd" clip-rule="evenodd" d="M51.0906 11.3574C51.0906 9.0517 50.0026 7.06506 46.6237 7.06506C45.207 7.06506 44.0647 7.3873 43.3022 7.65636V9.96211C43.9563 9.53349 45.0443 9.21125 46.0813 9.21125C47.6607 9.21125 47.9319 9.96211 47.9319 10.4971V10.6035C44.3359 10.6035 41.994 11.8361 41.994 14.4109C41.994 16.019 43.1937 17.4675 45.2612 17.4675C46.4609 17.4675 47.4947 17.0389 48.1488 16.2349H48.2031L48.42 17.2548H51.2534C51.1449 16.7198 51.0906 15.8063 51.0906 14.8395V11.3574ZM48.0403 13.61C48.0403 13.8259 47.9861 13.9854 47.9861 14.145C47.7691 14.7895 47.115 15.3245 46.3525 15.3245C45.6441 15.3245 45.0985 14.8958 45.0985 14.145C45.0985 12.9123 46.3525 12.5369 48.0403 12.5369V13.61Z" fill="#292929"/>
<path fill-rule="evenodd" clip-rule="evenodd" d="M40.7975 14.7895C40.3604 14.949 39.8722 15.0585 39.2724 15.0585C37.7472 15.0585 36.4933 14.0918 36.4933 12.2678C36.4933 10.6066 37.5271 9.47717 39.2181 9.47717C39.9264 9.47717 40.4178 9.58354 40.7975 9.69304V7.27779C40.2519 7.11823 39.6521 7.06192 39.0554 7.06192C35.2968 7.06192 33.2802 9.47717 33.2802 12.3711C33.2802 15.4809 35.351 17.4675 38.6183 17.4675C39.4351 17.4675 40.1977 17.3611 40.7975 17.1985V14.7895Z" fill="#292929"/>
<path d="M33.28 24.9063V23.9827H37.6318V24.9063H36.0096V29.2814H34.9022V24.9063H33.28Z" fill="#292929"/>
<path d="M38.1337 29.2814V25.3074H39.2022V26.0007H39.2436C39.316 25.7541 39.4376 25.5678 39.6084 25.4419C39.7792 25.3143 39.9758 25.2504 40.1983 25.2504C40.2535 25.2504 40.313 25.2539 40.3768 25.2608C40.4406 25.2677 40.4967 25.2772 40.545 25.2893V26.2672C40.4933 26.2517 40.4217 26.2379 40.3303 26.2258C40.2388 26.2138 40.1552 26.2077 40.0793 26.2077C39.9172 26.2077 39.7723 26.2431 39.6446 26.3138C39.5187 26.3828 39.4187 26.4794 39.3445 26.6036C39.2721 26.7278 39.2358 26.8709 39.2358 27.0331V29.2814H38.1337Z" fill="#292929"/>
<path d="M42.3528 29.3564C42.0992 29.3564 41.8733 29.3124 41.6749 29.2245C41.4766 29.1348 41.3196 29.0028 41.204 28.8286C41.0902 28.6527 41.0333 28.4336 41.0333 28.1715C41.0333 27.9507 41.0738 27.7653 41.1549 27.6152C41.236 27.4651 41.3463 27.3444 41.4861 27.253C41.6258 27.1616 41.7845 27.0926 41.9621 27.046C42.1415 26.9994 42.3295 26.9667 42.5261 26.9477C42.7573 26.9235 42.9435 26.9011 43.085 26.8804C43.2264 26.858 43.329 26.8252 43.3929 26.7821C43.4567 26.739 43.4886 26.6752 43.4886 26.5906V26.5751C43.4886 26.4113 43.4369 26.2845 43.3334 26.1948C43.2316 26.1051 43.0867 26.0603 42.8987 26.0603C42.7003 26.0603 42.5425 26.1042 42.4252 26.1922C42.3079 26.2784 42.2303 26.3871 42.1924 26.5182L41.173 26.4354C41.2247 26.1939 41.3265 25.9852 41.4783 25.8093C41.6301 25.6316 41.8259 25.4954 42.0656 25.4005C42.3071 25.3039 42.5865 25.2556 42.9039 25.2556C43.1247 25.2556 43.3359 25.2815 43.5378 25.3332C43.7413 25.385 43.9215 25.4652 44.0785 25.5739C44.2372 25.6825 44.3622 25.8222 44.4536 25.993C44.5451 26.162 44.5908 26.3647 44.5908 26.601V29.2814H43.5455V28.7303H43.5145C43.4506 28.8545 43.3653 28.964 43.2583 29.0589C43.1514 29.152 43.0229 29.2253 42.8728 29.2788C42.7228 29.3306 42.5494 29.3564 42.3528 29.3564ZM42.6684 28.5958C42.8306 28.5958 42.9737 28.5639 43.0979 28.5C43.2221 28.4345 43.3196 28.3465 43.3903 28.2361C43.461 28.1258 43.4964 28.0007 43.4964 27.861V27.4393C43.4619 27.4617 43.4144 27.4824 43.3541 27.5014C43.2954 27.5186 43.229 27.535 43.1548 27.5505C43.0807 27.5643 43.0065 27.5773 42.9323 27.5893C42.8582 27.5997 42.7909 27.6092 42.7305 27.6178C42.6012 27.6368 42.4882 27.6669 42.3916 27.7083C42.295 27.7497 42.22 27.8058 42.1665 27.8765C42.113 27.9455 42.0863 28.0317 42.0863 28.1352C42.0863 28.2853 42.1406 28.4 42.2493 28.4793C42.3597 28.557 42.4994 28.5958 42.6684 28.5958Z" fill="#292929"/>
<path d="M46.7666 26.9839V29.2814H45.6644V25.3074H46.7149V26.0085H46.7614C46.8494 25.7774 46.9969 25.5945 47.2038 25.46C47.4108 25.3237 47.6618 25.2556 47.9567 25.2556C48.2327 25.2556 48.4733 25.316 48.6786 25.4367C48.8838 25.5575 49.0434 25.7299 49.1572 25.9542C49.2711 26.1767 49.328 26.4423 49.328 26.7511V29.2814H48.2258V26.9477C48.2275 26.7045 48.1654 26.5148 48.0395 26.3785C47.9136 26.2405 47.7403 26.1715 47.5195 26.1715C47.3712 26.1715 47.2401 26.2034 47.1262 26.2672C47.0141 26.3311 46.9262 26.4242 46.8623 26.5467C46.8002 26.6674 46.7683 26.8131 46.7666 26.9839Z" fill="#292929"/>
<path d="M53.7218 26.4406L52.7127 26.5027C52.6955 26.4164 52.6584 26.3388 52.6015 26.2698C52.5445 26.1991 52.4695 26.143 52.3764 26.1017C52.285 26.0585 52.1754 26.037 52.0478 26.037C51.877 26.037 51.733 26.0732 51.6157 26.1456C51.4984 26.2164 51.4398 26.3112 51.4398 26.4302C51.4398 26.5251 51.4777 26.6053 51.5536 26.6709C51.6295 26.7364 51.7597 26.789 51.9443 26.8287L52.6636 26.9736C53.0499 27.0529 53.338 27.1805 53.5277 27.3565C53.7174 27.5324 53.8123 27.7635 53.8123 28.0499C53.8123 28.3103 53.7355 28.5389 53.582 28.7355C53.4303 28.9321 53.2215 29.0856 52.9559 29.196C52.692 29.3047 52.3876 29.359 52.0426 29.359C51.5165 29.359 51.0974 29.2495 50.7852 29.0304C50.4747 28.8097 50.2928 28.5095 50.2393 28.1301L51.3234 28.0731C51.3561 28.2336 51.4355 28.356 51.5614 28.4405C51.6873 28.5233 51.8486 28.5647 52.0452 28.5647C52.2384 28.5647 52.3936 28.5276 52.5109 28.4535C52.6299 28.3776 52.6903 28.2801 52.692 28.1611C52.6903 28.0611 52.648 27.9791 52.5652 27.9153C52.4825 27.8498 52.3548 27.7998 52.1823 27.7653L51.4941 27.6281C51.106 27.5505 50.8171 27.416 50.6274 27.2245C50.4394 27.0331 50.3454 26.789 50.3454 26.4923C50.3454 26.2371 50.4144 26.0171 50.5524 25.8326C50.6921 25.648 50.8878 25.5057 51.1397 25.4057C51.3932 25.3056 51.6899 25.2556 52.0297 25.2556C52.5316 25.2556 52.9266 25.3617 53.2146 25.5739C53.5044 25.786 53.6735 26.0749 53.7218 26.4406Z" fill="#292929"/>
<path d="M56.862 25.3074V26.1353H54.4093V25.3074H56.862ZM54.9707 29.2814V25.0202C54.9707 24.7321 55.0268 24.4932 55.1389 24.3035C55.2527 24.1138 55.4079 23.9715 55.6046 23.8766C55.8012 23.7817 56.0246 23.7343 56.2747 23.7343C56.4437 23.7343 56.5981 23.7472 56.7378 23.7731C56.8792 23.799 56.9844 23.8223 57.0534 23.843L56.8568 24.6709C56.8137 24.6571 56.7602 24.6442 56.6964 24.6321C56.6343 24.62 56.5705 24.614 56.5049 24.614C56.3428 24.614 56.2298 24.6519 56.166 24.7278C56.1022 24.802 56.0703 24.9063 56.0703 25.0409V29.2814H54.9707Z" fill="#292929"/>
<path d="M59.4072 29.359C59.0053 29.359 58.6577 29.2736 58.3645 29.1029C58.073 28.9304 57.8479 28.6906 57.6892 28.3836C57.5305 28.0749 57.4512 27.717 57.4512 27.3099C57.4512 26.8994 57.5305 26.5406 57.6892 26.2336C57.8479 25.9249 58.073 25.6851 58.3645 25.5143C58.6577 25.3419 59.0053 25.2556 59.4072 25.2556C59.809 25.2556 60.1557 25.3419 60.4472 25.5143C60.7405 25.6851 60.9664 25.9249 61.1251 26.2336C61.2838 26.5406 61.3631 26.8994 61.3631 27.3099C61.3631 27.717 61.2838 28.0749 61.1251 28.3836C60.9664 28.6906 60.7405 28.9304 60.4472 29.1029C60.1557 29.2736 59.809 29.359 59.4072 29.359ZM59.4123 28.5052C59.5952 28.5052 59.7478 28.4535 59.8703 28.35C59.9927 28.2448 60.085 28.1016 60.1471 27.9205C60.2109 27.7394 60.2428 27.5333 60.2428 27.3021C60.2428 27.071 60.2109 26.8649 60.1471 26.6838C60.085 26.5027 59.9927 26.3595 59.8703 26.2543C59.7478 26.1491 59.5952 26.0965 59.4123 26.0965C59.2278 26.0965 59.0725 26.1491 58.9466 26.2543C58.8224 26.3595 58.7284 26.5027 58.6646 26.6838C58.6025 26.8649 58.5715 27.071 58.5715 27.3021C58.5715 27.5333 58.6025 27.7394 58.6646 27.9205C58.7284 28.1016 58.8224 28.2448 58.9466 28.35C59.0725 28.4535 59.2278 28.5052 59.4123 28.5052Z" fill="#292929"/>
<path d="M62.2984 29.2814V25.3074H63.3669V26.0007H63.4083C63.4807 25.7541 63.6023 25.5678 63.7731 25.4419C63.9439 25.3143 64.1405 25.2504 64.363 25.2504C64.4182 25.2504 64.4777 25.2539 64.5415 25.2608C64.6053 25.2677 64.6614 25.2772 64.7097 25.2893V26.2672C64.6579 26.2517 64.5864 26.2379 64.4949 26.2258C64.4035 26.2138 64.3199 26.2077 64.244 26.2077C64.0818 26.2077 63.937 26.2431 63.8093 26.3138C63.6834 26.3828 63.5834 26.4794 63.5092 26.6036C63.4368 26.7278 63.4005 26.8709 63.4005 27.0331V29.2814H62.2984Z" fill="#292929"/>
<path d="M65.4981 29.2814V25.3074H66.5485V26.0085H66.5951C66.6779 25.7757 66.8159 25.592 67.0091 25.4574C67.2022 25.3229 67.4334 25.2556 67.7025 25.2556C67.975 25.2556 68.207 25.3237 68.3984 25.46C68.5899 25.5945 68.7175 25.7774 68.7813 26.0085H68.8227C68.9038 25.7808 69.0504 25.5989 69.2626 25.4626C69.4764 25.3246 69.7291 25.2556 70.0206 25.2556C70.3915 25.2556 70.6925 25.3738 70.9236 25.6101C71.1564 25.8447 71.2729 26.1775 71.2729 26.6088V29.2814H70.1733V26.8261C70.1733 26.6053 70.1146 26.4397 69.9973 26.3293C69.8801 26.2189 69.7334 26.1637 69.5575 26.1637C69.3574 26.1637 69.2013 26.2276 69.0892 26.3552C68.9771 26.4811 68.9211 26.6476 68.9211 26.8545V29.2814H67.8525V26.8028C67.8525 26.6079 67.7965 26.4527 67.6843 26.3371C67.574 26.2215 67.4282 26.1637 67.2471 26.1637C67.1246 26.1637 67.0142 26.1948 66.9159 26.2569C66.8193 26.3173 66.7426 26.4026 66.6857 26.513C66.6287 26.6217 66.6003 26.7493 66.6003 26.8959V29.2814H65.4981Z" fill="#292929"/>
<path d="M72.3621 29.2814V25.3074H73.4642V29.2814H72.3621ZM72.9157 24.7951C72.7519 24.7951 72.6113 24.7408 72.494 24.6321C72.3784 24.5217 72.3206 24.3897 72.3206 24.2362C72.3206 24.0845 72.3784 23.9542 72.494 23.8456C72.6113 23.7352 72.7519 23.68 72.9157 23.68C73.0796 23.68 73.2193 23.7352 73.3349 23.8456C73.4521 23.9542 73.5108 24.0845 73.5108 24.2362C73.5108 24.3897 73.4521 24.5217 73.3349 24.6321C73.2193 24.7408 73.0796 24.7951 72.9157 24.7951Z" fill="#292929"/>
<path d="M75.6679 26.9839V29.2814H74.5657V25.3074H75.6161V26.0085H75.6627C75.7507 25.7774 75.8981 25.5945 76.1051 25.46C76.3121 25.3237 76.5631 25.2556 76.858 25.2556C77.134 25.2556 77.3746 25.316 77.5798 25.4367C77.7851 25.5575 77.9447 25.7299 78.0585 25.9542C78.1723 26.1767 78.2293 26.4423 78.2293 26.7511V29.2814H77.1271V26.9477C77.1288 26.7045 77.0667 26.5148 76.9408 26.3785C76.8149 26.2405 76.6415 26.1715 76.4208 26.1715C76.2724 26.1715 76.1413 26.2034 76.0275 26.2672C75.9154 26.3311 75.8274 26.4242 75.7636 26.5467C75.7015 26.6674 75.6696 26.8131 75.6679 26.9839Z" fill="#292929"/>
<path d="M81.1069 30.8544C80.7498 30.8544 80.4437 30.8053 80.1884 30.707C79.9349 30.6104 79.733 30.4784 79.583 30.3111C79.4329 30.1438 79.3355 29.9558 79.2906 29.7471L80.31 29.61C80.3411 29.6893 80.3902 29.7635 80.4575 29.8325C80.5247 29.9015 80.6136 29.9567 80.724 29.9981C80.8361 30.0412 80.9723 30.0627 81.1328 30.0627C81.3725 30.0627 81.57 30.0041 81.7252 29.8868C81.8822 29.7712 81.9607 29.5772 81.9607 29.3047V28.5777H81.9141C81.8658 28.6881 81.7934 28.7924 81.6968 28.8907C81.6002 28.989 81.476 29.0692 81.3242 29.1313C81.1724 29.1934 80.9913 29.2245 80.7809 29.2245C80.4825 29.2245 80.2108 29.1555 79.9659 29.0175C79.7227 28.8778 79.5287 28.6648 79.3838 28.3784C79.2406 28.0904 79.169 27.7265 79.169 27.2866C79.169 26.8364 79.2423 26.4604 79.3889 26.1586C79.5356 25.8567 79.7305 25.6308 79.9737 25.4807C80.2186 25.3307 80.4868 25.2556 80.7783 25.2556C81.0008 25.2556 81.1871 25.2936 81.3372 25.3695C81.4872 25.4436 81.6079 25.5368 81.6994 25.6489C81.7925 25.7593 81.8641 25.8679 81.9141 25.9749H81.9555V25.3074H83.0499V29.3202C83.0499 29.6583 82.9671 29.9411 82.8015 30.1688C82.636 30.3965 82.4065 30.5673 82.1133 30.6811C81.8218 30.7967 81.4864 30.8544 81.1069 30.8544ZM81.1302 28.3966C81.3078 28.3966 81.4579 28.3526 81.5804 28.2646C81.7045 28.1749 81.7994 28.0473 81.8649 27.8817C81.9322 27.7144 81.9659 27.5143 81.9659 27.2814C81.9659 27.0486 81.9331 26.8468 81.8675 26.676C81.802 26.5035 81.7071 26.3699 81.5829 26.275C81.4587 26.1801 81.3078 26.1327 81.1302 26.1327C80.9491 26.1327 80.7964 26.1819 80.6722 26.2802C80.548 26.3768 80.454 26.5113 80.3902 26.6838C80.3264 26.8563 80.2945 27.0555 80.2945 27.2814C80.2945 27.5108 80.3264 27.7092 80.3902 27.8765C80.4558 28.0421 80.5498 28.1706 80.6722 28.262C80.7964 28.3517 80.9491 28.3966 81.1302 28.3966Z" fill="#292929"/>
<path d="M90.7463 25.8378H89.613C89.5923 25.6911 89.5501 25.5609 89.4863 25.4471C89.4224 25.3315 89.3405 25.2332 89.2405 25.1521C89.1404 25.0711 89.0249 25.009 88.8938 24.9658C88.7644 24.9227 88.6238 24.9012 88.4721 24.9012C88.1978 24.9012 87.9589 24.9693 87.7554 25.1056C87.5519 25.2401 87.394 25.4367 87.2819 25.6955C87.1698 25.9525 87.1137 26.2646 87.1137 26.632C87.1137 27.0098 87.1698 27.3272 87.2819 27.5842C87.3958 27.8412 87.5544 28.0352 87.758 28.1663C87.9615 28.2974 88.1969 28.3629 88.4643 28.3629C88.6144 28.3629 88.7532 28.3431 88.8808 28.3034C89.0102 28.2637 89.1249 28.206 89.225 28.1301C89.325 28.0524 89.4078 27.9584 89.4733 27.8481C89.5406 27.7377 89.5872 27.6117 89.613 27.4703L90.7463 27.4755C90.7169 27.7187 90.6436 27.9533 90.5263 28.1792C90.4108 28.4035 90.2547 28.6044 90.0581 28.7821C89.8631 28.958 89.6303 29.0977 89.3595 29.2012C89.0904 29.303 88.786 29.3538 88.4462 29.3538C87.9736 29.3538 87.551 29.2469 87.1784 29.033C86.8076 28.8191 86.5144 28.5095 86.2988 28.1042C86.0849 27.6989 85.9779 27.2081 85.9779 26.632C85.9779 26.0542 86.0866 25.5626 86.3039 25.1573C86.5213 24.752 86.8162 24.4432 87.1888 24.2311C87.5613 24.0172 87.9805 23.9102 88.4462 23.9102C88.7532 23.9102 89.0378 23.9534 89.3 24.0396C89.5639 24.1258 89.7976 24.2518 90.0011 24.4173C90.2047 24.5812 90.3702 24.7822 90.4979 25.0202C90.6273 25.2582 90.71 25.5307 90.7463 25.8378Z" fill="#292929"/>
<path d="M92.8807 29.3564C92.6271 29.3564 92.4012 29.3124 92.2028 29.2245C92.0045 29.1348 91.8475 29.0028 91.732 28.8286C91.6181 28.6527 91.5612 28.4336 91.5612 28.1715C91.5612 27.9507 91.6017 27.7653 91.6828 27.6152C91.7639 27.4651 91.8743 27.3444 92.014 27.253C92.1537 27.1616 92.3124 27.0926 92.49 27.046C92.6694 26.9994 92.8574 26.9667 93.054 26.9477C93.2852 26.9235 93.4715 26.9011 93.6129 26.8804C93.7543 26.858 93.857 26.8252 93.9208 26.7821C93.9846 26.739 94.0165 26.6752 94.0165 26.5906V26.5751C94.0165 26.4113 93.9648 26.2845 93.8613 26.1948C93.7595 26.1051 93.6146 26.0603 93.4266 26.0603C93.2283 26.0603 93.0704 26.1042 92.9531 26.1922C92.8359 26.2784 92.7582 26.3871 92.7203 26.5182L91.7009 26.4354C91.7526 26.1939 91.8544 25.9852 92.0062 25.8093C92.158 25.6316 92.3538 25.4954 92.5935 25.4005C92.835 25.3039 93.1144 25.2556 93.4318 25.2556C93.6526 25.2556 93.8639 25.2815 94.0657 25.3332C94.2692 25.385 94.4494 25.4652 94.6064 25.5739C94.7651 25.6825 94.8901 25.8222 94.9816 25.993C95.073 26.162 95.1187 26.3647 95.1187 26.601V29.2814H94.0734V28.7303H94.0424C93.9786 28.8545 93.8932 28.964 93.7862 29.0589C93.6793 29.152 93.5508 29.2253 93.4007 29.2788C93.2507 29.3306 93.0773 29.3564 92.8807 29.3564ZM93.1964 28.5958C93.3585 28.5958 93.5016 28.5639 93.6258 28.5C93.75 28.4345 93.8475 28.3465 93.9182 28.2361C93.9889 28.1258 94.0243 28.0007 94.0243 27.861V27.4393C93.9898 27.4617 93.9423 27.4824 93.882 27.5014C93.8233 27.5186 93.7569 27.535 93.6827 27.5505C93.6086 27.5643 93.5344 27.5773 93.4603 27.5893C93.3861 27.5997 93.3188 27.6092 93.2584 27.6178C93.1291 27.6368 93.0161 27.6669 92.9195 27.7083C92.8229 27.7497 92.7479 27.8058 92.6944 27.8765C92.6409 27.9455 92.6142 28.0317 92.6142 28.1352C92.6142 28.2853 92.6685 28.4 92.7772 28.4793C92.8876 28.557 93.0273 28.5958 93.1964 28.5958Z" fill="#292929"/>
<path d="M96.1923 29.2814V25.3074H97.2609V26.0007H97.3023C97.3747 25.7541 97.4963 25.5678 97.6671 25.4419C97.8378 25.3143 98.0345 25.2504 98.257 25.2504C98.3122 25.2504 98.3717 25.2539 98.4355 25.2608C98.4993 25.2677 98.5554 25.2772 98.6037 25.2893V26.2672C98.5519 26.2517 98.4803 26.2379 98.3889 26.2258C98.2975 26.2138 98.2139 26.2077 98.138 26.2077C97.9758 26.2077 97.8309 26.2431 97.7033 26.3138C97.5774 26.3828 97.4773 26.4794 97.4032 26.6036C97.3307 26.7278 97.2945 26.8709 97.2945 27.0331V29.2814H96.1923Z" fill="#292929"/>
<path d="M99.3921 29.2814V25.3074H100.494V29.2814H99.3921ZM99.9458 24.7951C99.7819 24.7951 99.6413 24.7408 99.524 24.6321C99.4085 24.5217 99.3507 24.3897 99.3507 24.2362C99.3507 24.0845 99.4085 23.9542 99.524 23.8456C99.6413 23.7352 99.7819 23.68 99.9458 23.68C100.11 23.68 100.249 23.7352 100.365 23.8456C100.482 23.9542 100.541 24.0845 100.541 24.2362C100.541 24.3897 100.482 24.5217 100.365 24.6321C100.249 24.7408 100.11 24.7951 99.9458 24.7951Z" fill="#292929"/>
<path d="M102.698 26.9839V29.2814H101.596V25.3074H102.646V26.0085H102.693C102.781 25.7774 102.928 25.5945 103.135 25.46C103.342 25.3237 103.593 25.2556 103.888 25.2556C104.164 25.2556 104.405 25.316 104.61 25.4367C104.815 25.5575 104.975 25.7299 105.089 25.9542C105.202 26.1767 105.259 26.4423 105.259 26.7511V29.2814H104.157V26.9477C104.159 26.7045 104.097 26.5148 103.971 26.3785C103.845 26.2405 103.672 26.1715 103.451 26.1715C103.302 26.1715 103.171 26.2034 103.058 26.2672C102.945 26.3311 102.857 26.4242 102.794 26.5467C102.732 26.6674 102.7 26.8131 102.698 26.9839Z" fill="#292929"/>
<path d="M108.137 30.8544C107.78 30.8544 107.474 30.8053 107.218 30.707C106.965 30.6104 106.763 30.4784 106.613 30.3111C106.463 30.1438 106.366 29.9558 106.321 29.7471L107.34 29.61C107.371 29.6893 107.42 29.7635 107.488 29.8325C107.555 29.9015 107.644 29.9567 107.754 29.9981C107.866 30.0412 108.002 30.0627 108.163 30.0627C108.403 30.0627 108.6 30.0041 108.755 29.8868C108.912 29.7712 108.991 29.5772 108.991 29.3047V28.5777H108.944C108.896 28.6881 108.823 28.7924 108.727 28.8907C108.63 28.989 108.506 29.0692 108.354 29.1313C108.202 29.1934 108.021 29.2245 107.811 29.2245C107.513 29.2245 107.241 29.1555 106.996 29.0175C106.753 28.8778 106.559 28.6648 106.414 28.3784C106.271 28.0904 106.199 27.7265 106.199 27.2866C106.199 26.8364 106.272 26.4604 106.419 26.1586C106.566 25.8567 106.76 25.6308 107.004 25.4807C107.249 25.3307 107.517 25.2556 107.808 25.2556C108.031 25.2556 108.217 25.2936 108.367 25.3695C108.517 25.4436 108.638 25.5368 108.729 25.6489C108.823 25.7593 108.894 25.8679 108.944 25.9749H108.986V25.3074H110.08V29.3202C110.08 29.6583 109.997 29.9411 109.832 30.1688C109.666 30.3965 109.437 30.5673 109.143 30.6811C108.852 30.7967 108.516 30.8544 108.137 30.8544ZM108.16 28.3966C108.338 28.3966 108.488 28.3526 108.61 28.2646C108.735 28.1749 108.829 28.0473 108.895 27.8817C108.962 27.7144 108.996 27.5143 108.996 27.2814C108.996 27.0486 108.963 26.8468 108.898 26.676C108.832 26.5035 108.737 26.3699 108.613 26.275C108.489 26.1801 108.338 26.1327 108.16 26.1327C107.979 26.1327 107.826 26.1819 107.702 26.2802C107.578 26.3768 107.484 26.5113 107.42 26.6838C107.356 26.8563 107.325 27.0555 107.325 27.2814C107.325 27.5108 107.356 27.7092 107.42 27.8765C107.486 28.0421 107.58 28.1706 107.702 28.262C107.826 28.3517 107.979 28.3966 108.16 28.3966Z" fill="#292929"/>
<path d="M54.9707 25.3074H56.0703V26.1353H54.9707V25.3074Z" fill="#292929"/>
<defs>
<linearGradient id="paint0_linear_581_3923" x1="-55.4548" y1="15.9986" x2="1813.43" y2="15.9986" gradientUnits="userSpaceOnUse">
<stop stop-color="#FF7642"/>
<stop offset="1" stop-color="#FFB728"/>
</linearGradient>
</defs>
</svg>
