<svg width="12" height="13" viewBox="0 0 12 13" fill="none" xmlns="http://www.w3.org/2000/svg">
<path d="M9.16371 11.7498C8.70621 11.7498 8.06356 11.5843 7.10121 11.0467C5.93098 10.3904 5.02582 9.78454 3.86192 8.62369C2.73973 7.5022 2.19364 6.77611 1.42934 5.38533C0.565902 3.81502 0.713089 2.99189 0.87762 2.64009C1.07356 2.21963 1.36278 1.96814 1.7366 1.71853C1.94894 1.57942 2.17364 1.46016 2.40785 1.36228C2.43129 1.3522 2.45309 1.3426 2.47254 1.33392C2.58856 1.28166 2.76434 1.20267 2.98699 1.28705C3.13559 1.34283 3.26824 1.45697 3.4759 1.66205C3.90176 2.08205 4.48371 3.01744 4.6984 3.47681C4.84254 3.78642 4.93793 3.9908 4.93817 4.22002C4.93817 4.48838 4.80317 4.69533 4.63934 4.91869C4.60863 4.96064 4.57817 5.00072 4.54863 5.03962C4.37028 5.274 4.33113 5.34173 4.35692 5.46267C4.40918 5.70572 4.79895 6.42923 5.43949 7.06837C6.08004 7.70752 6.7827 8.07267 7.02668 8.1247C7.15277 8.15166 7.22192 8.11087 7.46379 7.92619C7.49848 7.8997 7.5341 7.87228 7.57137 7.84486C7.82121 7.659 8.01856 7.52751 8.28059 7.52751H8.28199C8.51004 7.52751 8.70527 7.62642 9.02871 7.78955C9.45059 8.00236 10.4141 8.57681 10.8367 9.00314C11.0422 9.21033 11.1568 9.34251 11.2129 9.49087C11.2972 9.71423 11.2178 9.88931 11.166 10.0065C11.1573 10.026 11.1477 10.0473 11.1376 10.071C11.039 10.3048 10.919 10.529 10.7793 10.7408C10.5301 11.1135 10.2777 11.402 9.85629 11.5981C9.6399 11.7005 9.40308 11.7523 9.16371 11.7498Z" fill="#45B620"/>
</svg>
