<svg width="25" height="24" viewBox="0 0 25 24" fill="none" xmlns="http://www.w3.org/2000/svg">
<path d="M12.25 2.25C6.8739 2.25 2.5 6.6239 2.5 12C2.5 17.3761 6.8739 21.75 12.25 21.75C17.6261 21.75 22 17.3761 22 12C22 6.6239 17.6261 2.25 12.25 2.25ZM15.7802 14.4698C15.8527 14.5388 15.9108 14.6216 15.9508 14.7133C15.9909 14.805 16.0122 14.9039 16.0135 15.004C16.0148 15.1041 15.996 15.2034 15.9583 15.2961C15.9206 15.3889 15.8647 15.4731 15.7939 15.5439C15.7231 15.6147 15.6389 15.6706 15.5461 15.7083C15.4534 15.746 15.3541 15.7648 15.254 15.7635C15.1539 15.7622 15.055 15.7409 14.9633 15.7008C14.8716 15.6608 14.7888 15.6027 14.7198 15.5302L12.25 13.0608L9.78015 15.5302C9.63836 15.6649 9.44954 15.7389 9.25397 15.7364C9.0584 15.7339 8.87155 15.655 8.73325 15.5167C8.59494 15.3784 8.51614 15.1916 8.51364 14.996C8.51113 14.8004 8.58513 14.6116 8.71984 14.4698L11.1892 12L8.71984 9.53015C8.58513 9.38836 8.51113 9.19954 8.51364 9.00397C8.51614 8.8084 8.59494 8.62155 8.73325 8.48325C8.87155 8.34494 9.0584 8.26614 9.25397 8.26364C9.44954 8.26113 9.63836 8.33513 9.78015 8.46984L12.25 10.9392L14.7198 8.46984C14.8616 8.33513 15.0504 8.26113 15.246 8.26364C15.4416 8.26614 15.6284 8.34494 15.7667 8.48325C15.905 8.62155 15.9839 8.8084 15.9864 9.00397C15.9889 9.19954 15.9149 9.38836 15.7802 9.53015L13.3108 12L15.7802 14.4698Z" fill="#FD605D"/>
</svg>
