<svg width="11" height="10" viewBox="0 0 11 10" fill="none" xmlns="http://www.w3.org/2000/svg">
<g clip-path="url(#clip0_710_10998)">
<path d="M10.2502 4.58333C10.1397 4.58333 10.0337 4.62723 9.95558 4.70537C9.87744 4.78351 9.83354 4.88949 9.83354 5C9.83693 5.96886 9.50371 6.90883 8.89085 7.65923C8.27798 8.40963 7.42351 8.92389 6.4735 9.11409C5.52348 9.30429 4.5369 9.15864 3.68237 8.70203C2.82785 8.24541 2.15844 7.50619 1.78856 6.6107C1.41868 5.71521 1.3713 4.71906 1.65451 3.7925C1.93772 2.86595 2.53395 2.06652 3.34127 1.53086C4.1486 0.995202 5.11691 0.756564 6.08069 0.855738C7.04447 0.954912 7.94389 1.38574 8.62521 2.07458C8.61151 2.07832 8.59759 2.08124 8.58354 2.08333H7.33354C7.22304 2.08333 7.11706 2.12723 7.03892 2.20537C6.96078 2.28351 6.91688 2.38949 6.91688 2.5C6.91688 2.61051 6.96078 2.71649 7.03892 2.79463C7.11706 2.87277 7.22304 2.91667 7.33354 2.91667H8.58354C8.91506 2.91667 9.23301 2.78497 9.46743 2.55055C9.70185 2.31613 9.83354 1.99819 9.83354 1.66667V0.416667C9.83354 0.30616 9.78965 0.200179 9.7115 0.122039C9.63336 0.0438987 9.52738 0 9.41688 0C9.30637 0 9.20039 0.0438987 9.12225 0.122039C9.04411 0.200179 9.00021 0.30616 9.00021 0.416667V1.27708C8.14711 0.514388 7.05809 0.0675694 5.91515 0.0112928C4.7722 -0.0449839 3.64456 0.29269 2.72066 0.967889C1.79676 1.64309 1.13256 2.61491 0.839054 3.72096C0.54555 4.82701 0.64052 6.00029 1.10809 7.04473C1.57567 8.08918 2.38752 8.94152 3.40799 9.45933C4.42847 9.97714 5.59574 10.1291 6.71475 9.88969C7.83376 9.65032 8.83673 9.03417 9.55606 8.14419C10.2754 7.25422 10.6675 6.14433 10.6669 5C10.6669 4.88949 10.623 4.78351 10.5448 4.70537C10.4667 4.62723 10.3607 4.58333 10.2502 4.58333Z" fill="black"/>
<path d="M5.66667 2.5C5.55616 2.5 5.45018 2.5439 5.37204 2.62204C5.2939 2.70018 5.25 2.80616 5.25 2.91667V5C5.25002 5.1105 5.29394 5.21646 5.37208 5.29458L6.62208 6.54458C6.70067 6.62048 6.80592 6.66248 6.91517 6.66153C7.02442 6.66058 7.12892 6.61676 7.20617 6.53951C7.28343 6.46225 7.32725 6.35775 7.3282 6.2485C7.32915 6.13925 7.28715 6.034 7.21125 5.95542L6.08333 4.8275V2.91667C6.08333 2.80616 6.03943 2.70018 5.96129 2.62204C5.88315 2.5439 5.77717 2.5 5.66667 2.5Z" fill="black"/>
</g>
<defs>
<clipPath id="clip0_710_10998">
<rect width="10" height="10" fill="white" transform="translate(0.666016)"/>
</clipPath>
</defs>
</svg>
