<svg width="15" height="15" viewBox="0 0 15 15" fill="none" xmlns="http://www.w3.org/2000/svg">
<g clip-path="url(#clip0_710_10990)">
<path d="M10.625 8.75001C10.625 8.91577 10.5592 9.07475 10.4419 9.19196C10.3247 9.30917 10.1658 9.37501 10 9.37501H5C4.83424 9.37501 4.67527 9.30917 4.55806 9.19196C4.44085 9.07475 4.375 8.91577 4.375 8.75001C4.375 8.58425 4.44085 8.42528 4.55806 8.30807C4.67527 8.19086 4.83424 8.12501 5 8.12501H10C10.1658 8.12501 10.3247 8.19086 10.4419 8.30807C10.5592 8.42528 10.625 8.58425 10.625 8.75001ZM8.125 10.625H5C4.83424 10.625 4.67527 10.6909 4.55806 10.8081C4.44085 10.9253 4.375 11.0843 4.375 11.25C4.375 11.4158 4.44085 11.5747 4.55806 11.692C4.67527 11.8092 4.83424 11.875 5 11.875H8.125C8.29076 11.875 8.44973 11.8092 8.56694 11.692C8.68415 11.5747 8.75 11.4158 8.75 11.25C8.75 11.0843 8.68415 10.9253 8.56694 10.8081C8.44973 10.6909 8.29076 10.625 8.125 10.625ZM13.75 6.55314V11.875C13.749 12.7035 13.4194 13.4978 12.8336 14.0836C12.2478 14.6695 11.4535 14.999 10.625 15H4.375C3.5465 14.999 2.75222 14.6695 2.16639 14.0836C1.58055 13.4978 1.25099 12.7035 1.25 11.875V3.12501C1.25099 2.29652 1.58055 1.50224 2.16639 0.916402C2.75222 0.330566 3.5465 0.00100682 4.375 1.44054e-05H7.19688C7.77164 -0.00146492 8.34099 0.111007 8.87201 0.330926C9.40304 0.550846 9.8852 0.873851 10.2906 1.28126L12.4681 3.46001C12.8758 3.86516 13.199 4.34718 13.419 4.87812C13.6391 5.40907 13.7516 5.9784 13.75 6.55314ZM9.40687 2.16501C9.21018 1.97449 8.98933 1.81059 8.75 1.67751V4.37501C8.75 4.54077 8.81585 4.69975 8.93306 4.81696C9.05027 4.93417 9.20924 5.00001 9.375 5.00001H12.0725C11.9393 4.76076 11.7752 4.54011 11.5844 4.34376L9.40687 2.16501ZM12.5 6.55314C12.5 6.45001 12.48 6.35126 12.4706 6.25001H9.375C8.87772 6.25001 8.40081 6.05247 8.04917 5.70084C7.69754 5.34921 7.5 4.8723 7.5 4.37501V1.27939C7.39875 1.27001 7.29938 1.25001 7.19688 1.25001H4.375C3.87772 1.25001 3.40081 1.44756 3.04917 1.79919C2.69754 2.15082 2.5 2.62773 2.5 3.12501V11.875C2.5 12.3723 2.69754 12.8492 3.04917 13.2008C3.40081 13.5525 3.87772 13.75 4.375 13.75H10.625C11.1223 13.75 11.5992 13.5525 11.9508 13.2008C12.3025 12.8492 12.5 12.3723 12.5 11.875V6.55314Z" fill="black"/>
</g>
<defs>
<clipPath id="clip0_710_10990">
<rect width="15" height="15" fill="white"/>
</clipPath>
</defs>
</svg>
