<svg width="20" height="20" viewBox="0 0 20 20" fill="none" xmlns="http://www.w3.org/2000/svg">
<g clip-path="url(#clip0_710_11156)">
<path d="M20 13.3329V17.4995C20 18.1626 19.7366 18.7985 19.2678 19.2673C18.7989 19.7362 18.163 19.9995 17.5 19.9995H13.3333C12.1642 19.9983 11.016 19.6897 10.0039 19.1047C8.99172 18.5196 8.15121 17.6787 7.56667 16.6662C8.19489 16.6617 8.82098 16.5925 9.435 16.4595C9.90262 17.0442 10.4958 17.5162 11.1707 17.8405C11.8455 18.1648 12.5846 18.3331 13.3333 18.3329H17.5C17.721 18.3329 17.933 18.2451 18.0893 18.0888C18.2455 17.9325 18.3333 17.7206 18.3333 17.4995V13.3329C18.3331 12.5839 18.1643 11.8446 17.8395 11.1697C17.5146 10.4949 17.042 9.90184 16.4567 9.43454C16.5907 8.82064 16.6611 8.19455 16.6667 7.56621C17.6791 8.15075 18.5201 8.99126 19.1051 10.0034C19.6902 11.0156 19.9988 12.1638 20 13.3329ZM14.9808 8.04204C15.0588 6.96841 14.9047 5.89058 14.529 4.88179C14.1534 3.873 13.565 2.9569 12.8038 2.19572C12.0426 1.43455 11.1265 0.846152 10.1178 0.470506C9.10896 0.0948592 8.03113 -0.0592302 6.9575 0.0187079C5.05493 0.235985 3.29744 1.14135 2.01598 2.56433C0.734522 3.9873 0.0175226 5.82969 0 7.74454L0 11.9445C0 14.0545 1.25583 14.9995 2.5 14.9995H7.25C9.16567 14.9831 11.0092 14.2665 12.4332 12.985C13.8571 11.7035 14.7633 9.94539 14.9808 8.04204ZM11.625 3.37538C12.2166 3.96829 12.674 4.68137 12.9661 5.46636C13.2582 6.25136 13.3784 7.08994 13.3183 7.92538C13.1405 9.41177 12.4254 10.7819 11.3078 11.7778C10.1901 12.7738 8.74699 13.3268 7.25 13.3329H2.5C1.72667 13.3329 1.66667 12.2704 1.66667 11.9445V7.74454C1.67361 6.24819 2.22721 4.80596 3.22326 3.68927C4.21932 2.57258 5.58916 1.85843 7.075 1.68121C7.21333 1.67121 7.35167 1.66621 7.49 1.66621C8.25772 1.66549 9.01807 1.81607 9.72757 2.10934C10.4371 2.40261 11.0818 2.83281 11.625 3.37538Z" fill="#2398FF"/>
</g>
<defs>
<clipPath id="clip0_710_11156">
<rect width="20" height="20" fill="white"/>
</clipPath>
</defs>
</svg>
