<svg width="11" height="10" viewBox="0 0 11 10" fill="none" xmlns="http://www.w3.org/2000/svg">
<g clip-path="url(#clip0_710_10995)">
<path d="M9.08398 10.0007H8.25065V7.8994C8.25032 7.57273 8.12041 7.25954 7.88942 7.02855C7.65843 6.79756 7.34523 6.66765 7.01857 6.66732H3.6494C3.32273 6.66765 3.00954 6.79756 2.77855 7.02855C2.54756 7.25954 2.41765 7.57273 2.41732 7.8994V10.0007H1.58398V7.8994C1.58465 7.35182 1.80246 6.82686 2.18966 6.43966C2.57686 6.05246 3.10182 5.83465 3.6494 5.83398H7.01857C7.56615 5.83465 8.09111 6.05246 8.47831 6.43966C8.86551 6.82686 9.08332 7.35182 9.08398 7.8994V10.0007Z" fill="black"/>
<path d="M5.33399 5C4.83953 5 4.35618 4.85338 3.94506 4.57867C3.53394 4.30397 3.21351 3.91352 3.02429 3.45671C2.83507 2.99989 2.78556 2.49723 2.88202 2.01228C2.97849 1.52732 3.21659 1.08187 3.56622 0.732234C3.91585 0.382603 4.36131 0.144501 4.84626 0.0480379C5.33121 -0.0484251 5.83388 0.00108322 6.29069 0.190302C6.74751 0.379521 7.13796 0.699953 7.41266 1.11108C7.68736 1.5222 7.83399 2.00555 7.83399 2.5C7.83332 3.16284 7.56972 3.79834 7.10102 4.26704C6.63232 4.73573 5.99682 4.99934 5.33399 5ZM5.33399 0.833334C5.00435 0.833334 4.68212 0.931083 4.40804 1.11422C4.13395 1.29735 3.92033 1.55765 3.79419 1.8622C3.66804 2.16674 3.63503 2.50185 3.69934 2.82515C3.76365 3.14845 3.92239 3.44543 4.15547 3.67851C4.38856 3.9116 4.68553 4.07033 5.00884 4.13464C5.33214 4.19895 5.66725 4.16595 5.97179 4.0398C6.27634 3.91365 6.53663 3.70003 6.71977 3.42595C6.9029 3.15187 7.00065 2.82964 7.00065 2.5C7.00065 2.05797 6.82506 1.63405 6.5125 1.32149C6.19994 1.00893 5.77601 0.833334 5.33399 0.833334Z" fill="black"/>
</g>
<defs>
<clipPath id="clip0_710_10995">
<rect width="10" height="10" fill="white" transform="translate(0.333984)"/>
</clipPath>
</defs>
</svg>
