<svg width="17" height="17" viewBox="0 0 17 17" fill="none" xmlns="http://www.w3.org/2000/svg">
<path d="M16.5 8.5C16.5 8.5 13.5 3 8.5 3C3.5 3 0.5 8.5 0.5 8.5C0.5 8.5 3.5 14 8.5 14C13.5 14 16.5 8.5 16.5 8.5ZM1.6727 8.5C1.72963 8.41321 1.79454 8.31677 1.86727 8.21242C2.20216 7.73193 2.69631 7.0929 3.33211 6.45711C4.62103 5.16818 6.38062 4 8.5 4C10.6194 4 12.379 5.16818 13.6679 6.45711C14.3037 7.0929 14.7978 7.73193 15.1327 8.21242C15.2055 8.31677 15.2704 8.41321 15.3273 8.5C15.2704 8.58679 15.2055 8.68323 15.1327 8.78758C14.7978 9.26807 14.3037 9.9071 13.6679 10.5429C12.379 11.8318 10.6194 13 8.5 13C6.38062 13 4.62103 11.8318 3.33211 10.5429C2.69631 9.9071 2.20216 9.26807 1.86727 8.78758C1.79454 8.68323 1.72963 8.58679 1.6727 8.5Z" fill="black"/>
<path d="M8.5 6C7.11929 6 6 7.11929 6 8.5C6 9.88071 7.11929 11 8.5 11C9.88071 11 11 9.88071 11 8.5C11 7.11929 9.88071 6 8.5 6ZM5 8.5C5 6.567 6.567 5 8.5 5C10.433 5 12 6.567 12 8.5C12 10.433 10.433 12 8.5 12C6.567 12 5 10.433 5 8.5Z" fill="black"/>
</svg>
