<svg width="21" height="21" viewBox="0 0 21 21" fill="none" xmlns="http://www.w3.org/2000/svg">
<path d="M11.3333 4.66634C11.3333 4.2061 10.9602 3.83301 10.5 3.83301C10.0397 3.83301 9.66665 4.2061 9.66665 4.66634V9.66634H4.66665C4.20641 9.66634 3.83331 10.0394 3.83331 10.4997C3.83331 10.9599 4.20641 11.333 4.66665 11.333H9.66665V16.333C9.66665 16.7932 10.0397 17.1663 10.5 17.1663C10.9602 17.1663 11.3333 16.7932 11.3333 16.333V11.333H16.3333C16.7935 11.333 17.1666 10.9599 17.1666 10.4997C17.1666 10.0394 16.7935 9.66634 16.3333 9.66634H11.3333V4.66634Z" fill="white"/>
</svg>
