<svg width="24" height="24" viewBox="0 0 24 24" fill="none" xmlns="http://www.w3.org/2000/svg">
<path d="M19.1249 2.99902H4.87491C4.17932 3.001 3.51279 3.2782 3.02094 3.77005C2.52908 4.26191 2.25189 4.92844 2.24991 5.62402V14.624C2.25189 15.3196 2.52908 15.9861 3.02094 16.478C3.51279 16.9698 4.17932 17.247 4.87491 17.249H6.74991V20.999L11.143 17.3362C11.2105 17.2799 11.2956 17.249 11.3835 17.249H19.1249C19.8205 17.247 20.487 16.9698 20.9789 16.478C21.4707 15.9861 21.7479 15.3196 21.7499 14.624V5.62402C21.7479 4.92844 21.4707 4.26191 20.9789 3.77005C20.487 3.2782 19.8205 3.001 19.1249 2.99902V2.99902Z" stroke="#019FD5" stroke-width="1.5" stroke-linejoin="round"/>
</svg>
