<svg width="24" height="24" viewBox="0 0 24 24" fill="none" xmlns="http://www.w3.org/2000/svg">
<path d="M19.5 3.74902H4.49997C3.25733 3.74902 2.24997 4.75638 2.24997 5.99902V19.499C2.24997 20.7417 3.25733 21.749 4.49997 21.749H19.5C20.7426 21.749 21.75 20.7417 21.75 19.499V5.99902C21.75 4.75638 20.7426 3.74902 19.5 3.74902Z" stroke="#019FD5" stroke-width="1.5" stroke-linejoin="round"/>
<path d="M18.6478 3.74902H5.35216C3.64169 3.74902 2.24997 5.1623 2.24997 6.89902V9.74902H2.99997C2.99997 8.99902 3.74997 8.24902 4.49997 8.24902H19.5C20.25 8.24902 21 8.99902 21 9.74902H21.75V6.89902C21.75 5.1623 20.3582 3.74902 18.6478 3.74902Z" fill="#019FD5"/>
<path d="M13.8749 11.999C14.4962 11.999 14.9999 11.4953 14.9999 10.874C14.9999 10.2527 14.4962 9.74902 13.8749 9.74902C13.2536 9.74902 12.7499 10.2527 12.7499 10.874C12.7499 11.4953 13.2536 11.999 13.8749 11.999Z" fill="#019FD5"/>
<path d="M17.6249 11.999C18.2463 11.999 18.7499 11.4953 18.7499 10.874C18.7499 10.2527 18.2463 9.74902 17.6249 9.74902C17.0036 9.74902 16.4999 10.2527 16.4999 10.874C16.4999 11.4953 17.0036 11.999 17.6249 11.999Z" fill="#019FD5"/>
<path d="M13.8749 15.748C14.4962 15.748 14.9999 15.2444 14.9999 14.623C14.9999 14.0017 14.4962 13.498 13.8749 13.498C13.2536 13.498 12.7499 14.0017 12.7499 14.623C12.7499 15.2444 13.2536 15.748 13.8749 15.748Z" fill="#019FD5"/>
<path d="M17.6249 15.748C18.2463 15.748 18.7499 15.2444 18.7499 14.623C18.7499 14.0017 18.2463 13.498 17.6249 13.498C17.0036 13.498 16.4999 14.0017 16.4999 14.623C16.4999 15.2444 17.0036 15.748 17.6249 15.748Z" fill="#019FD5"/>
<path d="M6.37494 15.748C6.99626 15.748 7.49994 15.2444 7.49994 14.623C7.49994 14.0017 6.99626 13.498 6.37494 13.498C5.75362 13.498 5.24994 14.0017 5.24994 14.623C5.24994 15.2444 5.75362 15.748 6.37494 15.748Z" fill="#019FD5"/>
<path d="M10.1249 15.748C10.7463 15.748 11.2499 15.2444 11.2499 14.623C11.2499 14.0017 10.7463 13.498 10.1249 13.498C9.50362 13.498 8.99994 14.0017 8.99994 14.623C8.99994 15.2444 9.50362 15.748 10.1249 15.748Z" fill="#019FD5"/>
<path d="M6.37494 19.499C6.99626 19.499 7.49994 18.9953 7.49994 18.374C7.49994 17.7527 6.99626 17.249 6.37494 17.249C5.75362 17.249 5.24994 17.7527 5.24994 18.374C5.24994 18.9953 5.75362 19.499 6.37494 19.499Z" fill="#019FD5"/>
<path d="M10.1249 19.499C10.7463 19.499 11.2499 18.9953 11.2499 18.374C11.2499 17.7527 10.7463 17.249 10.1249 17.249C9.50362 17.249 8.99994 17.7527 8.99994 18.374C8.99994 18.9953 9.50362 19.499 10.1249 19.499Z" fill="#019FD5"/>
<path d="M13.8749 19.499C14.4962 19.499 14.9999 18.9953 14.9999 18.374C14.9999 17.7527 14.4962 17.249 13.8749 17.249C13.2536 17.249 12.7499 17.7527 12.7499 18.374C12.7499 18.9953 13.2536 19.499 13.8749 19.499Z" fill="#019FD5"/>
<path d="M5.99982 2.24902V3.74902" stroke="#019FD5" stroke-width="1.5" stroke-linecap="round" stroke-linejoin="round"/>
<path d="M17.9999 2.24902V3.74902" stroke="#019FD5" stroke-width="1.5" stroke-linecap="round" stroke-linejoin="round"/>
</svg>
