<svg width="24" height="24" viewBox="0 0 24 24" fill="none" xmlns="http://www.w3.org/2000/svg">
<path d="M19.5 10.3721V19.501C19.5 20.0977 19.2629 20.67 18.841 21.092C18.419 21.5139 17.8467 21.751 17.25 21.751H6.75C6.15326 21.751 5.58097 21.5139 5.15901 21.092C4.73705 20.67 4.5 20.0977 4.5 19.501V4.50098C4.5 3.90424 4.73705 3.33194 5.15901 2.90999C5.58097 2.48803 6.15326 2.25098 6.75 2.25098H11.3789C11.7766 2.25104 12.158 2.40902 12.4392 2.6902L19.0608 9.31176C19.3419 9.59299 19.4999 9.97438 19.5 10.3721Z" stroke="#2398FF" stroke-width="1.5" stroke-linejoin="round"/>
<path d="M12 2.62598V8.25097C12 8.6488 12.158 9.03033 12.4393 9.31163C12.7206 9.59294 13.1022 9.75097 13.5 9.75097H19.125" stroke="#2398FF" stroke-width="1.5" stroke-linecap="round" stroke-linejoin="round"/>
<path d="M8.25 13.501H15.75" stroke="#2398FF" stroke-width="1.5" stroke-linecap="round" stroke-linejoin="round"/>
<path d="M8.25 17.251H15.75" stroke="#2398FF" stroke-width="1.5" stroke-linecap="round" stroke-linejoin="round"/>
</svg>
