<svg width="24" height="24" viewBox="0 0 24 24" fill="none" xmlns="http://www.w3.org/2000/svg">
<g clip-path="url(#clip0_586_16149)">
<path d="M14.7783 1.54688L4.50003 14.25H10.5L9.023 22.3701C9.02019 22.3861 9.0209 22.4024 9.0251 22.4181C9.0293 22.4337 9.03687 22.4482 9.04728 22.4606C9.0577 22.473 9.0707 22.4829 9.08537 22.4897C9.10005 22.4965 9.11604 22.5 9.13222 22.5V22.5C9.14943 22.5 9.1664 22.4959 9.18178 22.4882C9.19716 22.4805 9.21053 22.4693 9.22081 22.4555L19.5 9.75H13.5L14.9841 1.62891C14.9861 1.61273 14.9846 1.59631 14.9798 1.58074C14.9749 1.56518 14.9668 1.55082 14.956 1.53862C14.9452 1.52643 14.9319 1.51668 14.917 1.51002C14.9021 1.50336 14.886 1.49994 14.8697 1.5V1.5C14.8519 1.50007 14.8343 1.50435 14.8184 1.5125C14.8025 1.52064 14.7888 1.53242 14.7783 1.54688V1.54688Z" stroke="#019FD5" stroke-width="1.5" stroke-linecap="round" stroke-linejoin="round"/>
</g>
<defs>
<clipPath id="clip0_586_16149">
<rect width="24" height="24" fill="white"/>
</clipPath>
</defs>
</svg>
