<svg width="16" height="17" viewBox="0 0 16 17" fill="none" xmlns="http://www.w3.org/2000/svg">
<path d="M12 7.50098V13.251C12 13.4151 11.9677 13.5777 11.9048 13.7293C11.842 13.881 11.75 14.0188 11.6339 14.1349C11.5178 14.2509 11.38 14.343 11.2284 14.4058C11.0767 14.4686 10.9141 14.501 10.75 14.501H3.25C2.91848 14.501 2.60054 14.3693 2.36612 14.1349C2.1317 13.9004 2 13.5825 2 13.251V5.75098C2 5.41946 2.1317 5.10151 2.36612 4.86709C2.60054 4.63267 2.91848 4.50098 3.25 4.50098H8.48375" stroke="black" stroke-linecap="round" stroke-linejoin="round"/>
<path d="M14.3729 2.16407C14.3272 2.1139 14.2718 2.0735 14.2101 2.04533C14.1484 2.01715 14.0816 2.00178 14.0138 2.00015C13.946 1.99851 13.8785 2.01064 13.8155 2.03581C13.7525 2.06098 13.6953 2.09866 13.6472 2.14657L13.2607 2.53126C13.2138 2.57814 13.1875 2.6417 13.1875 2.70798C13.1875 2.77425 13.2138 2.83782 13.2607 2.8847L13.615 3.23845C13.6383 3.26178 13.6659 3.2803 13.6963 3.29294C13.7267 3.30558 13.7593 3.31208 13.7922 3.31208C13.8252 3.31208 13.8578 3.30558 13.8882 3.29294C13.9186 3.2803 13.9462 3.26178 13.9694 3.23845L14.3463 2.86345C14.5369 2.67313 14.5547 2.36313 14.3729 2.16407Z" fill="black"/>
<path d="M12.4794 3.31354L6.83816 8.94479C6.80396 8.97885 6.7791 9.02115 6.76598 9.0676L6.50504 9.84479C6.49879 9.86588 6.49834 9.88826 6.50376 9.90958C6.50917 9.9309 6.52023 9.95036 6.53579 9.96592C6.55134 9.98147 6.5708 9.99254 6.59212 9.99795C6.61344 10.0034 6.63583 10.0029 6.65691 9.99666L7.43348 9.73573C7.47993 9.7226 7.52222 9.69774 7.55629 9.66354L13.1875 4.02167C13.2396 3.96901 13.2689 3.89793 13.2689 3.82385C13.2689 3.74978 13.2396 3.6787 13.1875 3.62604L12.8766 3.31354C12.8239 3.26097 12.7525 3.23145 12.678 3.23145C12.6035 3.23145 12.5321 3.26097 12.4794 3.31354V3.31354Z" fill="black"/>
</svg>
