<svg width="25" height="24" viewBox="0 0 25 24" fill="none" xmlns="http://www.w3.org/2000/svg">
<g clip-path="url(#clip0_586_16043)">
<path d="M15.8301 12.3801V20.4365C15.8301 21.5756 14.9371 22.499 13.8168 22.499H5.0957C3.97305 22.499 3.08008 21.5756 3.08008 20.4365V8.06152C3.08328 7.5155 3.3016 6.99275 3.6877 6.60665C4.07381 6.22055 4.59656 6.00222 5.14258 5.99902H9.55445C9.70716 5.99926 9.8583 6.02988 9.99905 6.08911C10.1398 6.14834 10.2674 6.235 10.3743 6.34402L15.4907 11.5471C15.7084 11.7697 15.8302 12.0688 15.8301 12.3801V12.3801Z" stroke="#019FD5" stroke-width="1.5" stroke-linejoin="round"/>
<path d="M9.45508 5.99902V11.0615C9.45921 11.4083 9.59882 11.7398 9.84407 11.985C10.0893 12.2303 10.4208 12.3699 10.7676 12.374H15.8301" stroke="#019FD5" stroke-width="1.5" stroke-linecap="round" stroke-linejoin="round"/>
<path d="M8.33008 6V3.5625C8.33328 3.01648 8.5516 2.49373 8.9377 2.10763C9.32381 1.72152 9.84656 1.5032 10.3926 1.5H14.7988C14.9524 1.50021 15.1044 1.53081 15.246 1.59002C15.3877 1.64923 15.5163 1.73589 15.6243 1.845L20.7407 7.04812C20.9582 7.26835 21.0802 7.56545 21.0801 7.875V15.9375C21.0801 17.0766 20.1871 18 19.0668 18H16.2051" stroke="#019FD5" stroke-width="1.5" stroke-linejoin="round"/>
<path d="M14.7052 1.5V6.5625C14.7093 6.90931 14.8489 7.24075 15.0942 7.486C15.3394 7.73125 15.6709 7.87086 16.0177 7.875H21.0802" stroke="#019FD5" stroke-width="1.5" stroke-linecap="round" stroke-linejoin="round"/>
</g>
<defs>
<clipPath id="clip0_586_16043">
<rect width="24" height="24" fill="white" transform="translate(0.0802002)"/>
</clipPath>
</defs>
</svg>
