<svg width="18" height="18" viewBox="0 0 18 18" fill="none" xmlns="http://www.w3.org/2000/svg">
<g clip-path="url(#clip0_586_16377)">
<path d="M7.17181 1.68652H2.39056C2.00224 1.68652 1.68744 2.00132 1.68744 2.38965V7.1709C1.68744 7.55922 2.00224 7.87402 2.39056 7.87402H7.17181C7.56014 7.87402 7.87494 7.55922 7.87494 7.1709V2.38965C7.87494 2.00132 7.56014 1.68652 7.17181 1.68652Z" stroke="#F7FDFD" stroke-width="1.5" stroke-linecap="round" stroke-linejoin="round"/>
<path d="M15.6093 1.68652H10.828C10.4397 1.68652 10.1249 2.00132 10.1249 2.38965V7.1709C10.1249 7.55922 10.4397 7.87402 10.828 7.87402H15.6093C15.9976 7.87402 16.3124 7.55922 16.3124 7.1709V2.38965C16.3124 2.00132 15.9976 1.68652 15.6093 1.68652Z" stroke="#F7FDFD" stroke-width="1.5" stroke-linecap="round" stroke-linejoin="round"/>
<path d="M7.17181 10.125H2.39056C2.00224 10.125 1.68744 10.4398 1.68744 10.8281V15.6094C1.68744 15.9977 2.00224 16.3125 2.39056 16.3125H7.17181C7.56014 16.3125 7.87494 15.9977 7.87494 15.6094V10.8281C7.87494 10.4398 7.56014 10.125 7.17181 10.125Z" stroke="#F7FDFD" stroke-width="1.5" stroke-linecap="round" stroke-linejoin="round"/>
<path d="M15.6093 10.125H10.828C10.4397 10.125 10.1249 10.4398 10.1249 10.8281V15.6094C10.1249 15.9977 10.4397 16.3125 10.828 16.3125H15.6093C15.9976 16.3125 16.3124 15.9977 16.3124 15.6094V10.8281C16.3124 10.4398 15.9976 10.125 15.6093 10.125Z" stroke="#F7FDFD" stroke-width="1.5" stroke-linecap="round" stroke-linejoin="round"/>
</g>
<defs>
<clipPath id="clip0_586_16377">
<rect width="18" height="18" fill="white"/>
</clipPath>
</defs>
</svg>
