<svg width="25" height="24" viewBox="0 0 25 24" fill="none" xmlns="http://www.w3.org/2000/svg">
<path d="M21.7275 2.5218C21.7196 2.48333 21.7008 2.44794 21.6734 2.41979C21.646 2.39163 21.6111 2.3719 21.5729 2.36289C19.0238 1.73945 13.1354 3.96086 9.94176 7.15211C9.37259 7.7166 8.85361 8.32954 8.39067 8.98398C7.4063 8.89492 6.42192 8.96992 5.5838 9.33554C3.21708 10.3762 2.52849 13.094 2.3363 14.2607C2.32588 14.3246 2.33033 14.3901 2.3493 14.452C2.36826 14.514 2.40123 14.5707 2.44565 14.6178C2.49007 14.665 2.54475 14.7013 2.60545 14.7239C2.66615 14.7465 2.73124 14.7548 2.79567 14.7482L6.59583 14.331C6.59846 14.6176 6.61567 14.9039 6.64739 15.1888C6.66722 15.3857 6.75507 15.5696 6.89583 15.7087L8.36723 17.1801C8.50647 17.3209 8.69048 17.4088 8.88754 17.4285C9.17071 17.4601 9.45529 17.4773 9.7402 17.4801L9.32348 21.2769C9.31698 21.3413 9.32535 21.4063 9.34797 21.4669C9.37058 21.5275 9.40683 21.5821 9.4539 21.6264C9.50098 21.6708 9.55762 21.7037 9.61946 21.7227C9.68129 21.7417 9.74666 21.7462 9.81051 21.7359C10.9777 21.5484 13.7011 20.8598 14.7357 18.4935C15.1013 17.6544 15.1763 16.6752 15.0919 15.6955C15.7483 15.233 16.363 14.714 16.9289 14.1444C20.1343 10.957 22.3416 5.19789 21.7275 2.5218ZM14.0799 10.0152C13.7999 9.73533 13.6092 9.37868 13.532 8.99041C13.4547 8.60213 13.4943 8.19966 13.6458 7.83389C13.7973 7.46813 14.0538 7.1555 14.383 6.93555C14.7122 6.71559 15.0992 6.59819 15.495 6.59819C15.8909 6.59819 16.2779 6.71559 16.6071 6.93555C16.9363 7.1555 17.1928 7.46813 17.3443 7.83389C17.4958 8.19966 17.5354 8.60213 17.4581 8.99041C17.3808 9.37868 17.1902 9.73533 16.9102 10.0152C16.7245 10.2013 16.5039 10.349 16.2611 10.4497C16.0183 10.5504 15.7579 10.6023 15.495 10.6023C15.2321 10.6023 14.9718 10.5504 14.729 10.4497C14.4862 10.349 14.2656 10.2013 14.0799 10.0152V10.0152Z" stroke="#019FD5" stroke-width="1.5" stroke-linecap="round" stroke-linejoin="round"/>
<path d="M5.21957 16.5C4.75228 16.5574 4.31755 16.7692 3.98442 17.1019C3.15848 17.9306 3.0802 21 3.0802 21C3.0802 21 6.15145 20.9217 6.97785 20.0948C7.31188 19.7622 7.52407 19.3268 7.5802 18.8587" stroke="#019FD5" stroke-width="1.5" stroke-linecap="round" stroke-linejoin="round"/>
</svg>
