<svg width="14" height="14" viewBox="0 0 14 14" fill="none" xmlns="http://www.w3.org/2000/svg">
<path d="M6.99996 0.142883C7.47335 0.142883 7.85711 0.526639 7.85711 1.00003V6.14288H13C13.4734 6.14288 13.8571 6.52664 13.8571 7.00003C13.8571 7.47341 13.4734 7.85717 13 7.85717H7.85711V13C7.85711 13.4734 7.47335 13.8572 6.99996 13.8572C6.52658 13.8572 6.14282 13.4734 6.14282 13V7.85717H0.999965C0.526578 7.85717 0.142822 7.47341 0.142822 7.00003C0.142822 6.52664 0.526578 6.14288 0.999965 6.14288H6.14282V1.00003C6.14282 0.526639 6.52658 0.142883 6.99996 0.142883Z" fill="white"/>
</svg>
