<svg width="16" height="17" viewBox="0 0 16 17" fill="none" xmlns="http://www.w3.org/2000/svg">
<path d="M10 5.0625C10 5.0625 10.7613 4.6875 8 4.6875C7.0111 4.6875 6.0444 4.98074 5.22215 5.53015C4.39991 6.07956 3.75904 6.86045 3.3806 7.77408C3.00217 8.68771 2.90315 9.69304 3.09608 10.6629C3.289 11.6329 3.76521 12.5238 4.46447 13.223C5.16373 13.9223 6.05465 14.3985 7.02455 14.5914C7.99446 14.7843 8.99979 14.6853 9.91342 14.3069C10.827 13.9285 11.6079 13.2876 12.1573 12.4653C12.7068 11.6431 13 10.6764 13 9.6875" stroke="white" stroke-miterlimit="10" stroke-linecap="square"/>
<path d="M8 2.31348L10.5 4.81348L8 7.31347" fill="white"/>
<path d="M8 2.31348L10.5 4.81348L8 7.31347" stroke="white" stroke-miterlimit="10" stroke-linecap="square"/>
</svg>
